M48
; DRILL file {KiCad (6.0.7-1)-1} date Thursday, December 29, 2022 at 03:50:35 PM
; FORMAT={-:-/ absolute / metric / decimal}
; #@! TF.CreationDate,2022-12-29T15:50:35-05:00
; #@! TF.GenerationSoftware,Kicad,Pcbnew,(6.0.7-1)-1
; #@! TF.FileFunction,NonPlated,1,2,NPTH
FMAT,2
METRIC
; #@! TA.AperFunction,NonPlated,NPTH,ComponentDrill
T1C0.300
; #@! TA.AperFunction,NonPlated,NPTH,ComponentDrill
T2C1.300
; #@! TA.AperFunction,NonPlated,NPTH,ComponentDrill
T3C1.500
; #@! TA.AperFunction,NonPlated,NPTH,ComponentDrill
T4C2.000
; #@! TA.AperFunction,NonPlated,NPTH,ComponentDrill
T5C4.100
%
G90
G05
T2
X73.926Y-98.317
X75.456Y-109.198
X84.818Y-96.774
X86.35Y-107.679
X89.541Y-72.897
X91.07Y-83.778
X92.112Y-91.195
X93.641Y-102.075
X94.688Y-109.519
X96.217Y-120.4
X100.432Y-71.354
X101.964Y-82.259
X103.003Y-89.651
X104.536Y-100.557
X105.579Y-107.976
X107.111Y-118.882
X108.84Y-51.957
X109.607Y-62.918
X110.132Y-70.429
X110.899Y-81.39
X111.42Y-88.849
X112.187Y-99.81
X119.813Y-51.177
X120.581Y-62.163
X121.105Y-69.65
X121.873Y-80.635
X122.393Y-88.07
X123.161Y-99.055
X130.845Y-80.504
X130.845Y-62.004
X130.845Y-91.492
X130.845Y-72.992
X130.845Y-43.504
X130.845Y-54.492
X141.845Y-91.504
X141.845Y-73.004
X141.845Y-80.492
X141.845Y-61.992
X141.845Y-54.504
X141.845Y-43.492
X145.092Y-115.768
X145.092Y-126.756
X149.368Y-69.504
X149.368Y-87.754
X149.368Y-51.004
X149.368Y-80.492
X149.368Y-98.742
X149.368Y-61.992
X156.092Y-126.768
X156.092Y-115.756
X160.368Y-80.504
X160.368Y-98.754
X160.368Y-62.004
X160.368Y-69.492
X160.368Y-87.742
X160.368Y-50.992
X164.193Y-127.822
X167.036Y-117.209
X167.845Y-96.092
X167.845Y-59.104
X167.845Y-77.604
X167.845Y-107.08
X167.845Y-70.092
X167.845Y-88.592
X174.814Y-130.681
X177.665Y-120.044
X178.845Y-107.092
X178.845Y-70.104
X178.845Y-88.604
X178.845Y-96.08
X178.845Y-59.092
X178.845Y-77.592
X182.367Y-133.796
X187.86Y-124.28
X191.887Y-139.307
X197.393Y-129.77
T3
X174.986Y-51.242
X181.986Y-51.242
T1
X77.621Y-102.33G85X78.15Y-106.093
G05
X77.623Y-102.342G85X78.151Y-106.105
G05
X77.621Y-102.33G85X82.374Y-101.662
G05
X77.623Y-102.342G85X82.376Y-101.674
G05
X78.15Y-106.093G85X82.903Y-105.425
G05
X78.151Y-106.105G85X82.905Y-105.437
G05
X82.374Y-101.662G85X82.903Y-105.425
G05
X82.376Y-101.674G85X82.905Y-105.437
G05
X93.235Y-76.91G85X93.764Y-80.673
G05
X93.237Y-76.922G85X93.766Y-80.685
G05
X93.235Y-76.91G85X97.988Y-76.242
G05
X93.237Y-76.922G85X97.99Y-76.254
G05
X95.807Y-95.207G85X96.335Y-98.97
G05
X95.808Y-95.219G85X96.337Y-98.982
G05
X93.764Y-80.673G85X98.517Y-80.005
G05
X93.766Y-80.685G85X98.519Y-80.017
G05
X95.807Y-95.207G85X100.56Y-94.539
G05
X95.808Y-95.219G85X100.562Y-94.551
G05
X97.988Y-76.242G85X98.517Y-80.005
G05
X97.99Y-76.254G85X98.519Y-80.017
G05
X98.382Y-113.532G85X98.911Y-117.295
G05
X98.384Y-113.544G85X98.913Y-117.307
G05
X96.335Y-98.97G85X101.089Y-98.302
G05
X96.337Y-98.982G85X101.09Y-98.314
G05
X98.382Y-113.532G85X103.135Y-112.864
G05
X98.384Y-113.544G85X103.137Y-112.876
G05
X100.56Y-94.539G85X101.089Y-98.302
G05
X100.562Y-94.551G85X101.09Y-98.314
G05
X98.911Y-117.295G85X103.664Y-116.627
G05
X98.913Y-117.307G85X103.666Y-116.639
G05
X103.135Y-112.864G85X103.664Y-116.627
G05
X103.137Y-112.876G85X103.666Y-116.639
G05
X112.246Y-56.217G85X112.511Y-60.008
G05
X112.247Y-56.23G85X112.512Y-60.02
G05
X113.538Y-74.69G85X113.803Y-78.481
G05
X113.539Y-74.702G85X113.804Y-78.493
G05
X112.246Y-56.217G85X117.034Y-55.883
G05
X112.247Y-56.23G85X117.035Y-55.895
G05
X112.511Y-60.008G85X117.299Y-59.673
G05
X112.512Y-60.02G85X117.3Y-59.686
G05
X114.826Y-93.11G85X115.091Y-96.901
G05
X114.827Y-93.122G85X115.092Y-96.913
G05
X113.538Y-74.69G85X118.326Y-74.355
G05
X113.539Y-74.702G85X118.327Y-74.367
G05
X113.803Y-78.481G85X118.591Y-78.146
G05
X113.804Y-78.493G85X118.592Y-78.158
G05
X117.034Y-55.883G85X117.299Y-59.673
G05
X117.035Y-55.895G85X117.3Y-59.686
G05
X114.826Y-93.11G85X119.614Y-92.775
G05
X114.827Y-93.122G85X119.615Y-92.787
G05
X115.091Y-96.901G85X119.879Y-96.566
G05
X115.092Y-96.913G85X119.88Y-96.578
G05
X118.326Y-74.355G85X118.591Y-78.146
G05
X118.327Y-74.367G85X118.592Y-78.158
G05
X119.614Y-92.775G85X119.879Y-96.566
G05
X119.615Y-92.787G85X119.88Y-96.578
G05
X133.945Y-84.992G85X133.945Y-88.792
G05
X133.945Y-85.004G85X133.945Y-88.804
G05
X133.945Y-66.492G85X133.945Y-70.292
G05
X133.945Y-66.504G85X133.945Y-70.304
G05
X133.945Y-47.992G85X133.945Y-51.792
G05
X133.945Y-48.004G85X133.945Y-51.804
G05
X133.945Y-84.992G85X138.745Y-84.992
G05
X133.945Y-85.004G85X138.745Y-85.004
G05
X133.945Y-88.792G85X138.745Y-88.792
G05
X133.945Y-88.804G85X138.745Y-88.804
G05
X133.945Y-66.492G85X138.745Y-66.492
G05
X133.945Y-66.504G85X138.745Y-66.504
G05
X133.945Y-70.292G85X138.745Y-70.292
G05
X133.945Y-70.304G85X138.745Y-70.304
G05
X133.945Y-47.992G85X138.745Y-47.992
G05
X133.945Y-48.004G85X138.745Y-48.004
G05
X133.945Y-51.792G85X138.745Y-51.792
G05
X133.945Y-51.804G85X138.745Y-51.804
G05
X138.745Y-84.992G85X138.745Y-88.792
G05
X138.745Y-85.004G85X138.745Y-88.804
G05
X138.745Y-66.492G85X138.745Y-70.292
G05
X138.745Y-66.504G85X138.745Y-70.304
G05
X138.745Y-47.992G85X138.745Y-51.792
G05
X138.745Y-48.004G85X138.745Y-51.804
G05
X148.192Y-120.256G85X148.192Y-124.056
G05
X148.192Y-120.268G85X148.192Y-124.068
G05
X148.192Y-120.256G85X152.992Y-120.256
G05
X148.192Y-120.268G85X152.992Y-120.268
G05
X148.192Y-124.056G85X152.992Y-124.056
G05
X148.192Y-124.068G85X152.992Y-124.068
G05
X152.468Y-73.992G85X152.468Y-77.792
G05
X152.468Y-74.004G85X152.468Y-77.804
G05
X152.468Y-92.242G85X152.468Y-96.042
G05
X152.468Y-92.254G85X152.468Y-96.054
G05
X152.468Y-55.492G85X152.468Y-59.292
G05
X152.468Y-55.504G85X152.468Y-59.304
G05
X152.992Y-120.256G85X152.992Y-124.056
G05
X152.992Y-120.268G85X152.992Y-124.068
G05
X152.468Y-73.992G85X157.268Y-73.992
G05
X152.468Y-74.004G85X157.268Y-74.004
G05
X152.468Y-77.792G85X157.268Y-77.792
G05
X152.468Y-77.804G85X157.268Y-77.804
G05
X152.468Y-92.242G85X157.268Y-92.242
G05
X152.468Y-92.254G85X157.268Y-92.254
G05
X152.468Y-96.042G85X157.268Y-96.042
G05
X152.468Y-96.054G85X157.268Y-96.054
G05
X152.468Y-55.492G85X157.268Y-55.492
G05
X152.468Y-55.504G85X157.268Y-55.504
G05
X152.468Y-59.292G85X157.268Y-59.292
G05
X152.468Y-59.304G85X157.268Y-59.304
G05
X157.268Y-73.992G85X157.268Y-77.792
G05
X157.268Y-74.004G85X157.268Y-77.804
G05
X157.268Y-92.242G85X157.268Y-96.042
G05
X157.268Y-92.254G85X157.268Y-96.054
G05
X157.268Y-55.492G85X157.268Y-59.292
G05
X157.268Y-55.504G85X157.268Y-59.304
G05
X168.866Y-122.358G85X167.882Y-126.029
G05
X168.869Y-122.346G85X167.886Y-126.017
G05
X167.882Y-126.029G85X172.519Y-127.271
G05
X167.886Y-126.017G85X172.522Y-127.259
G05
X170.945Y-100.58G85X170.945Y-104.38
G05
X170.945Y-100.592G85X170.945Y-104.392
G05
X170.945Y-63.592G85X170.945Y-67.392
G05
X170.945Y-63.604G85X170.945Y-67.404
G05
X170.945Y-82.092G85X170.945Y-85.892
G05
X170.945Y-82.104G85X170.945Y-85.904
G05
X168.866Y-122.358G85X173.502Y-123.6
G05
X168.869Y-122.346G85X173.506Y-123.589
G05
X173.502Y-123.6G85X172.519Y-127.271
G05
X173.506Y-123.589G85X172.522Y-127.259
G05
X170.945Y-100.58G85X175.745Y-100.58
G05
X170.945Y-100.592G85X175.745Y-100.592
G05
X170.945Y-104.38G85X175.745Y-104.38
G05
X170.945Y-104.392G85X175.745Y-104.392
G05
X170.945Y-63.592G85X175.745Y-63.592
G05
X170.945Y-63.604G85X175.745Y-63.604
G05
X170.945Y-67.392G85X175.745Y-67.392
G05
X170.945Y-67.404G85X175.745Y-67.404
G05
X170.945Y-82.092G85X175.745Y-82.092
G05
X170.945Y-82.104G85X175.745Y-82.104
G05
X170.945Y-85.892G85X175.745Y-85.892
G05
X170.945Y-85.904G85X175.745Y-85.904
G05
X175.745Y-100.58G85X175.745Y-104.38
G05
X175.745Y-100.592G85X175.745Y-104.392
G05
X175.745Y-63.592G85X175.745Y-67.392
G05
X175.745Y-63.604G85X175.745Y-67.404
G05
X175.745Y-82.092G85X175.745Y-85.892
G05
X175.745Y-82.104G85X175.745Y-85.904
G05
X188.295Y-129.728G85X186.395Y-133.019
G05
X188.301Y-129.717G85X186.401Y-133.008
G05
X186.395Y-133.019G85X190.552Y-135.419
G05
X186.401Y-133.008G85X190.558Y-135.408
G05
X188.295Y-129.728G85X192.452Y-132.128
G05
X188.301Y-129.717G85X192.458Y-132.117
G05
X192.452Y-132.128G85X190.552Y-135.419
G05
X192.458Y-132.117G85X190.558Y-135.408
G05
T4
X78.581Y-103.053G85X78.873Y-105.133
G05
X78.583Y-103.066G85X78.875Y-105.145
G05
X81.651Y-102.622G85X81.943Y-104.701
G05
X81.652Y-102.634G85X81.945Y-104.714
G05
X94.195Y-77.633G85X94.487Y-79.713
G05
X94.197Y-77.645G85X94.489Y-79.725
G05
X96.767Y-95.931G85X97.059Y-98.01
G05
X96.768Y-95.943G85X97.061Y-98.022
G05
X97.265Y-77.202G85X97.557Y-79.281
G05
X97.267Y-77.214G85X97.559Y-79.293
G05
X99.342Y-114.256G85X99.634Y-116.335
G05
X99.344Y-114.268G85X99.636Y-116.347
G05
X99.836Y-95.499G85X100.129Y-97.579
G05
X99.838Y-95.511G85X100.13Y-97.591
G05
X102.412Y-113.824G85X102.704Y-115.904
G05
X102.414Y-113.836G85X102.706Y-115.916
G05
X113.153Y-57.006G85X113.3Y-59.101
G05
X113.154Y-57.018G85X113.301Y-59.113
G05
X114.445Y-75.478G85X114.591Y-77.573
G05
X114.446Y-75.491G85X114.592Y-77.586
G05
X115.733Y-93.899G85X115.879Y-95.994
G05
X115.734Y-93.911G85X115.88Y-96.006
G05
X116.246Y-56.79G85X116.392Y-58.885
G05
X116.246Y-56.802G85X116.393Y-58.897
G05
X117.537Y-75.262G85X117.684Y-77.357
G05
X117.538Y-75.275G85X117.685Y-77.369
G05
X118.825Y-93.682G85X118.972Y-95.777
G05
X118.826Y-93.695G85X118.973Y-95.79
G05
X134.795Y-85.842G85X134.795Y-87.942
G05
X134.795Y-85.854G85X134.795Y-87.954
G05
X134.795Y-67.342G85X134.795Y-69.442
G05
X134.795Y-67.354G85X134.795Y-69.454
G05
X134.795Y-48.842G85X134.795Y-50.942
G05
X134.795Y-48.854G85X134.795Y-50.954
G05
X137.895Y-85.842G85X137.895Y-87.942
G05
X137.895Y-85.854G85X137.895Y-87.954
G05
X137.895Y-67.342G85X137.895Y-69.442
G05
X137.895Y-67.354G85X137.895Y-69.454
G05
X137.895Y-48.842G85X137.895Y-50.942
G05
X137.895Y-48.854G85X137.895Y-50.954
G05
X149.042Y-121.106G85X149.042Y-123.206
G05
X149.042Y-121.118G85X149.042Y-123.218
G05
X152.142Y-121.106G85X152.142Y-123.206
G05
X152.142Y-121.118G85X152.142Y-123.218
G05
X153.318Y-74.842G85X153.318Y-76.942
G05
X153.318Y-74.854G85X153.318Y-76.954
G05
X153.318Y-93.092G85X153.318Y-95.192
G05
X153.318Y-93.104G85X153.318Y-95.204
G05
X153.318Y-56.342G85X153.318Y-58.442
G05
X153.318Y-56.354G85X153.318Y-58.454
G05
X156.418Y-74.842G85X156.418Y-76.942
G05
X156.418Y-74.854G85X156.418Y-76.954
G05
X156.418Y-93.092G85X156.418Y-95.192
G05
X156.418Y-93.104G85X156.418Y-95.204
G05
X156.418Y-56.342G85X156.418Y-58.442
G05
X156.418Y-56.354G85X156.418Y-58.454
G05
X169.467Y-123.399G85X168.923Y-125.428
G05
X169.47Y-123.387G85X168.927Y-125.416
G05
X171.795Y-101.43G85X171.795Y-103.53
G05
X171.795Y-101.442G85X171.795Y-103.542
G05
X171.795Y-64.442G85X171.795Y-66.542
G05
X171.795Y-64.454G85X171.795Y-66.554
G05
X171.795Y-82.942G85X171.795Y-85.042
G05
X171.795Y-82.954G85X171.795Y-85.054
G05
X172.461Y-124.202G85X171.918Y-126.23
G05
X172.465Y-124.19G85X171.921Y-126.218
G05
X174.895Y-101.43G85X174.895Y-103.53
G05
X174.895Y-101.442G85X174.895Y-103.542
G05
X174.895Y-64.442G85X174.895Y-66.542
G05
X174.895Y-64.454G85X174.895Y-66.554
G05
X174.895Y-82.942G85X174.895Y-85.042
G05
X174.895Y-82.954G85X174.895Y-85.054
G05
X188.606Y-130.889G85X187.556Y-132.707
G05
X188.612Y-130.878G85X187.562Y-132.697
G05
X191.291Y-132.439G85X190.241Y-134.257
G05
X191.297Y-132.428G85X190.247Y-134.247
G05
T5
X79.767Y-103.947G85X80.757Y-103.808
G05
X79.769Y-103.959G85X80.759Y-103.82
G05
X95.381Y-78.527G85X96.371Y-78.387
G05
X95.383Y-78.539G85X96.373Y-78.4
G05
X97.953Y-96.824G85X98.943Y-96.685
G05
X97.954Y-96.837G85X98.945Y-96.697
G05
X100.528Y-115.149G85X101.518Y-115.01
G05
X100.53Y-115.161G85X101.52Y-115.022
G05
X114.274Y-57.98G85X115.271Y-57.911
G05
X114.275Y-57.993G85X115.272Y-57.923
G05
X115.566Y-76.453G85X116.563Y-76.383
G05
X115.566Y-76.465G85X116.564Y-76.395
G05
X116.854Y-94.873G85X117.851Y-94.803
G05
X116.855Y-94.885G85X117.852Y-94.815
G05
X135.845Y-86.892G85X136.845Y-86.892
G05
X135.845Y-86.904G85X136.845Y-86.904
G05
X135.845Y-68.392G85X136.845Y-68.392
G05
X135.845Y-68.404G85X136.845Y-68.404
G05
X135.845Y-49.892G85X136.845Y-49.892
G05
X135.845Y-49.904G85X136.845Y-49.904
G05
X150.092Y-122.156G85X151.092Y-122.156
G05
X150.092Y-122.168G85X151.092Y-122.168
G05
X154.368Y-75.892G85X155.368Y-75.892
G05
X154.368Y-75.904G85X155.368Y-75.904
G05
X154.368Y-94.142G85X155.368Y-94.142
G05
X154.368Y-94.154G85X155.368Y-94.154
G05
X154.368Y-57.392G85X155.368Y-57.392
G05
X154.368Y-57.404G85X155.368Y-57.404
G05
X170.209Y-124.685G85X171.175Y-124.944
G05
X170.213Y-124.673G85X171.179Y-124.932
G05
X172.845Y-102.48G85X173.845Y-102.48
G05
X172.845Y-102.492G85X173.845Y-102.492
G05
X172.845Y-65.492G85X173.845Y-65.492
G05
X172.845Y-65.504G85X173.845Y-65.504
G05
X172.845Y-83.992G85X173.845Y-83.992
G05
X172.845Y-84.004G85X173.845Y-84.004
G05
X188.991Y-132.323G85X189.857Y-132.823
G05
X188.997Y-132.312G85X189.863Y-132.812
G05
T0
M30
