G04 #@! TF.GenerationSoftware,KiCad,Pcbnew,(6.0.7-1)-1*
G04 #@! TF.CreationDate,2022-12-29T15:50:44-05:00*
G04 #@! TF.ProjectId,musubi,6d757375-6269-42e6-9b69-6361645f7063,rev?*
G04 #@! TF.SameCoordinates,Original*
G04 #@! TF.FileFunction,Legend,Top*
G04 #@! TF.FilePolarity,Positive*
%FSLAX46Y46*%
G04 Gerber Fmt 4.6, Leading zero omitted, Abs format (unit mm)*
G04 Created by KiCad (PCBNEW (6.0.7-1)-1) date 2022-12-29 15:50:44*
%MOMM*%
%LPD*%
G01*
G04 APERTURE LIST*
G04 Aperture macros list*
%AMHorizOval*
0 Thick line with rounded ends*
0 $1 width*
0 $2 $3 position (X,Y) of the first rounded end (center of the circle)*
0 $4 $5 position (X,Y) of the second rounded end (center of the circle)*
0 Add line between two ends*
20,1,$1,$2,$3,$4,$5,0*
0 Add two circle primitives to create the rounded ends*
1,1,$1,$2,$3*
1,1,$1,$4,$5*%
%AMRotRect*
0 Rectangle, with rotation*
0 The origin of the aperture is its center*
0 $1 length*
0 $2 width*
0 $3 Rotation angle, in degrees counterclockwise*
0 Add horizontal line*
21,1,$1,$2,0,0,$3*%
G04 Aperture macros list end*
%ADD10C,0.100000*%
%ADD11C,0.150000*%
%ADD12C,0.200000*%
%ADD13R,1.200000X1.200000*%
%ADD14O,0.300000X4.100000*%
%ADD15C,1.300000*%
%ADD16O,5.100000X0.300000*%
%ADD17O,2.000000X4.100000*%
%ADD18O,5.100000X4.100000*%
%ADD19C,1.600000*%
%ADD20C,1.400000*%
%ADD21RotRect,1.200000X1.200000X184.000000*%
%ADD22C,1.500000*%
%ADD23O,2.200000X1.600000*%
%ADD24HorizOval,0.300000X2.376643X0.334015X-2.376643X-0.334015X0*%
%ADD25HorizOval,0.300000X-0.264429X1.881509X0.264429X-1.881509X0*%
%ADD26HorizOval,4.100000X0.495134X0.069587X-0.495134X-0.069587X0*%
%ADD27HorizOval,2.000000X-0.146132X1.039781X0.146132X-1.039781X0*%
%ADD28RotRect,1.200000X1.200000X188.000000*%
%ADD29C,4.400000*%
%ADD30C,2.600000*%
%ADD31HorizOval,0.300000X2.394154X0.167416X-2.394154X-0.167416X0*%
%ADD32HorizOval,0.300000X-0.132537X1.895372X0.132537X-1.895372X0*%
%ADD33HorizOval,2.000000X-0.073244X1.047442X0.073244X-1.047442X0*%
%ADD34HorizOval,4.100000X0.498782X0.034878X-0.498782X-0.034878X0*%
%ADD35HorizOval,2.000000X-0.525000X-0.909327X0.525000X0.909327X0*%
%ADD36HorizOval,0.300000X2.078461X-1.200000X-2.078461X1.200000X0*%
%ADD37HorizOval,4.100000X0.433013X-0.250000X-0.433013X0.250000X0*%
%ADD38HorizOval,0.300000X-0.950000X-1.645448X0.950000X1.645448X0*%
%ADD39HorizOval,1.800000X0.470377X0.066107X-0.470377X-0.066107X0*%
%ADD40HorizOval,1.800000X-0.470377X-0.066107X0.470377X0.066107X0*%
%ADD41C,1.397000*%
%ADD42RotRect,1.200000X1.200000X165.000000*%
%ADD43RotRect,1.200000X1.200000X150.000000*%
%ADD44HorizOval,0.300000X2.318222X-0.621166X-2.318222X0.621166X0*%
%ADD45HorizOval,4.100000X0.482963X-0.129410X-0.482963X0.129410X0*%
%ADD46HorizOval,0.300000X-0.491756X-1.835259X0.491756X1.835259X0*%
%ADD47HorizOval,2.000000X-0.271760X-1.014222X0.271760X1.014222X0*%
G04 APERTURE END LIST*
D10*
X154618354Y-98392001D02*
X154618354Y-97592001D01*
X155218354Y-97992001D02*
X155218354Y-98542001D01*
X155218354Y-97992001D02*
X155218354Y-97442001D01*
X154618354Y-97992001D02*
X154118354Y-97992001D01*
X155618354Y-97992001D02*
X155218354Y-97992001D01*
X154618354Y-97592001D02*
X155218354Y-97992001D01*
X155218354Y-97992001D02*
X154618354Y-98392001D01*
D11*
X162268354Y-49504495D02*
X162268354Y-50504495D01*
X148468354Y-63504495D02*
X147468354Y-63504495D01*
X161268346Y-63504331D02*
X162268346Y-63504331D01*
X147468354Y-49504495D02*
X148468354Y-49504495D01*
X147468346Y-62504331D02*
X147468346Y-63504331D01*
X147468354Y-50504495D02*
X147468354Y-49504495D01*
X162268346Y-49504331D02*
X161268346Y-49504331D01*
X162268346Y-63504331D02*
X162268346Y-62504331D01*
D10*
X117970124Y-98654008D02*
X117931758Y-98105348D01*
X117343683Y-98296836D02*
X117970124Y-98654008D01*
X117970124Y-98654008D02*
X118008490Y-99202668D01*
X117399489Y-99094888D02*
X117343683Y-98296836D01*
X117371586Y-98695862D02*
X116872804Y-98730740D01*
X118369150Y-98626106D02*
X117970124Y-98654008D01*
X117970124Y-98654008D02*
X117399489Y-99094888D01*
X137095055Y-53741968D02*
X136695055Y-53741968D01*
X136095055Y-53741968D02*
X135595055Y-53741968D01*
X136695055Y-53741968D02*
X136095055Y-54141968D01*
X136095055Y-54141968D02*
X136095055Y-53341968D01*
X136695055Y-53741968D02*
X136695055Y-53191968D01*
X136095055Y-53341968D02*
X136695055Y-53741968D01*
X136695055Y-53741968D02*
X136695055Y-54291968D01*
X173694979Y-69341961D02*
X173694979Y-69891961D01*
X173694979Y-69341961D02*
X173694979Y-68791961D01*
X173094979Y-68941961D02*
X173694979Y-69341961D01*
X174094979Y-69341961D02*
X173694979Y-69341961D01*
X173094979Y-69741961D02*
X173094979Y-68941961D01*
X173094979Y-69341961D02*
X172594979Y-69341961D01*
X173694979Y-69341961D02*
X173094979Y-69741961D01*
D11*
X157991707Y-114268116D02*
X156991707Y-114268116D01*
X157991715Y-114268280D02*
X157991715Y-115268280D01*
X143191715Y-115268280D02*
X143191715Y-114268280D01*
X157991707Y-128268116D02*
X157991707Y-127268116D01*
X143191707Y-127268116D02*
X143191707Y-128268116D01*
X156991707Y-128268116D02*
X157991707Y-128268116D01*
X143191715Y-114268280D02*
X144191715Y-114268280D01*
X144191715Y-128268280D02*
X143191715Y-128268280D01*
X92597347Y-108298650D02*
X93587615Y-108159477D01*
X108211439Y-120241653D02*
X109201707Y-120102480D01*
X92736520Y-109288918D02*
X92597347Y-108298650D01*
X95536039Y-122023230D02*
X94545771Y-122162403D01*
X109201707Y-120102480D02*
X109062534Y-119112212D01*
X107253284Y-106238727D02*
X106263016Y-106377900D01*
X107253315Y-106238888D02*
X107392488Y-107229156D01*
X94406567Y-121171973D02*
X94545740Y-122162241D01*
D10*
X101905467Y-118843324D02*
X101366975Y-119322936D01*
X102301574Y-118787655D02*
X101905467Y-118843324D01*
X101905467Y-118843324D02*
X101982012Y-119387972D01*
X101905467Y-118843324D02*
X101828922Y-118298677D01*
X101311306Y-118926828D02*
X100816172Y-118996415D01*
X101366975Y-119322936D02*
X101255637Y-118530721D01*
X101255637Y-118530721D02*
X101905467Y-118843324D01*
X173094977Y-87441952D02*
X173694977Y-87841952D01*
X173694977Y-87841952D02*
X173694977Y-88391952D01*
X173694977Y-87841952D02*
X173694977Y-87291952D01*
X174094977Y-87841952D02*
X173694977Y-87841952D01*
X173694977Y-87841952D02*
X173094977Y-88241952D01*
X173094977Y-87841952D02*
X172594977Y-87841952D01*
X173094977Y-88241952D02*
X173094977Y-87441952D01*
G36*
X78497116Y-92926933D02*
G01*
X78324405Y-92951206D01*
X78222851Y-92228606D01*
X78398972Y-92228606D01*
X78434330Y-92480189D01*
X78573650Y-92460609D01*
X78630202Y-92444222D01*
X78669745Y-92413347D01*
X78690983Y-92370220D01*
X78692615Y-92317081D01*
X78676752Y-92265300D01*
X78645829Y-92228551D01*
X78599575Y-92209073D01*
X78537717Y-92209107D01*
X78398972Y-92228606D01*
X78222851Y-92228606D01*
X78206601Y-92112984D01*
X78518056Y-92069212D01*
X78610563Y-92063713D01*
X78690041Y-92075047D01*
X78756490Y-92103215D01*
X78808324Y-92147137D01*
X78843955Y-92205729D01*
X78863383Y-92278991D01*
X78865155Y-92358952D01*
X78846357Y-92427272D01*
X78806885Y-92485289D01*
X78746632Y-92534339D01*
X78976119Y-92851395D01*
X78977251Y-92859455D01*
X78791875Y-92885508D01*
X78591584Y-92600746D01*
X78453991Y-92620084D01*
X78497116Y-92926933D01*
G37*
G36*
X80693499Y-92619752D02*
G01*
X80619413Y-92599440D01*
X80556832Y-92557030D01*
X80506650Y-92493765D01*
X80469758Y-92410888D01*
X80446157Y-92308402D01*
X80424473Y-92154113D01*
X80417435Y-92045320D01*
X80421962Y-92009893D01*
X80582308Y-92009893D01*
X80585754Y-92094461D01*
X80614396Y-92298260D01*
X80633927Y-92386584D01*
X80663718Y-92446609D01*
X80705308Y-92478850D01*
X80760239Y-92483825D01*
X80811093Y-92464497D01*
X80841606Y-92423663D01*
X80853691Y-92360322D01*
X80849263Y-92273470D01*
X80821269Y-92074278D01*
X80801492Y-91985253D01*
X80771452Y-91926585D01*
X80729960Y-91896091D01*
X80675831Y-91891590D01*
X80626397Y-91910058D01*
X80595539Y-91948960D01*
X80582308Y-92009893D01*
X80421962Y-92009893D01*
X80429224Y-91953058D01*
X80459838Y-91877328D01*
X80508420Y-91818968D01*
X80574106Y-91778818D01*
X80656898Y-91756876D01*
X80742486Y-91755056D01*
X80816558Y-91775271D01*
X80879116Y-91817522D01*
X80929276Y-91880627D01*
X80966154Y-91963408D01*
X80989750Y-92065863D01*
X81011434Y-92220150D01*
X81018452Y-92328099D01*
X81006925Y-92420128D01*
X80976852Y-92496239D01*
X80928649Y-92555198D01*
X80862728Y-92595773D01*
X80779091Y-92617964D01*
X80693499Y-92619752D01*
G37*
G36*
X76263392Y-93240863D02*
G01*
X76090681Y-93265136D01*
X75972877Y-92426913D01*
X76145588Y-92402640D01*
X76263392Y-93240863D01*
G37*
G36*
X77483373Y-93075472D02*
G01*
X77419043Y-93067488D01*
X77358138Y-93047672D01*
X77302369Y-93016601D01*
X77253449Y-92974847D01*
X77211377Y-92922411D01*
X77177219Y-92860839D01*
X77152039Y-92791678D01*
X77135839Y-92714929D01*
X77130013Y-92673479D01*
X77123836Y-92593558D01*
X77125684Y-92563951D01*
X77298765Y-92563951D01*
X77304460Y-92644852D01*
X77310205Y-92685727D01*
X77326580Y-92764181D01*
X77351647Y-92828366D01*
X77385407Y-92878285D01*
X77450441Y-92923303D01*
X77531225Y-92930002D01*
X77605684Y-92902145D01*
X77655200Y-92843011D01*
X77673803Y-92786939D01*
X77680221Y-92718426D01*
X77674453Y-92637471D01*
X77668709Y-92596595D01*
X77652100Y-92516478D01*
X77626978Y-92451909D01*
X77593344Y-92402886D01*
X77528841Y-92359555D01*
X77449002Y-92353310D01*
X77374378Y-92381044D01*
X77324370Y-92439807D01*
X77305402Y-92495603D01*
X77298765Y-92563951D01*
X77125684Y-92563951D01*
X77128501Y-92518834D01*
X77144005Y-92449305D01*
X77169708Y-92386659D01*
X77204966Y-92332586D01*
X77249776Y-92287084D01*
X77302742Y-92251102D01*
X77362462Y-92225586D01*
X77428936Y-92210536D01*
X77496984Y-92206680D01*
X77561424Y-92214746D01*
X77622256Y-92234736D01*
X77677873Y-92266123D01*
X77726668Y-92308383D01*
X77768643Y-92361518D01*
X77802703Y-92424015D01*
X77827756Y-92494368D01*
X77843803Y-92572574D01*
X77849062Y-92609996D01*
X77855321Y-92689806D01*
X77850904Y-92764202D01*
X77835812Y-92833185D01*
X77810526Y-92895314D01*
X77775530Y-92949156D01*
X77730824Y-92994708D01*
X77677817Y-93030859D01*
X77617919Y-93056498D01*
X77551129Y-93071624D01*
X77483373Y-93075472D01*
G37*
G36*
X79249559Y-92821184D02*
G01*
X79076849Y-92845457D01*
X78975294Y-92122857D01*
X79151416Y-92122857D01*
X79188392Y-92385953D01*
X79342679Y-92364270D01*
X79401923Y-92347725D01*
X79442638Y-92317345D01*
X79464122Y-92274405D01*
X79465674Y-92220176D01*
X79448778Y-92165752D01*
X79415407Y-92125677D01*
X79368184Y-92102960D01*
X79309733Y-92100607D01*
X79151416Y-92122857D01*
X78975294Y-92122857D01*
X78959044Y-92007235D01*
X79286042Y-91961278D01*
X79375986Y-91957443D01*
X79456987Y-91972478D01*
X79526263Y-92005378D01*
X79581029Y-92055140D01*
X79619516Y-92119080D01*
X79639950Y-92194509D01*
X79641309Y-92272170D01*
X79622297Y-92340888D01*
X79582917Y-92400661D01*
X79525045Y-92449075D01*
X79450560Y-92483711D01*
X79359462Y-92504570D01*
X79208053Y-92525849D01*
X79249559Y-92821184D01*
G37*
G36*
X76569572Y-93021710D02*
G01*
X76536274Y-93202512D01*
X76352626Y-93228322D01*
X76430367Y-92875261D01*
X76596543Y-92875261D01*
X76806099Y-92845810D01*
X76656649Y-92546858D01*
X76596543Y-92875261D01*
X76430367Y-92875261D01*
X76546852Y-92346246D01*
X76706897Y-92323753D01*
X77138459Y-93117880D01*
X76954810Y-93143690D01*
X76872392Y-92979151D01*
X76616204Y-93015156D01*
X76569572Y-93021710D01*
G37*
G36*
X75682994Y-92891521D02*
G01*
X75992812Y-93278890D01*
X75791892Y-93307128D01*
X75589431Y-93036174D01*
X75469499Y-93352437D01*
X75268579Y-93380675D01*
X75459622Y-92922914D01*
X75157107Y-92541562D01*
X75355724Y-92513648D01*
X75553507Y-92780563D01*
X75670058Y-92469472D01*
X75868675Y-92441558D01*
X75682994Y-92891521D01*
G37*
G36*
X82046399Y-92429615D02*
G01*
X81972312Y-92409303D01*
X81909732Y-92366893D01*
X81859549Y-92303627D01*
X81822658Y-92220751D01*
X81799057Y-92118264D01*
X81777373Y-91963975D01*
X81770335Y-91855182D01*
X81774861Y-91819755D01*
X81935208Y-91819755D01*
X81938654Y-91904324D01*
X81967296Y-92108122D01*
X81986827Y-92196446D01*
X82016618Y-92256471D01*
X82058208Y-92288712D01*
X82113138Y-92293688D01*
X82163992Y-92274359D01*
X82194505Y-92233525D01*
X82206591Y-92170184D01*
X82202164Y-92083332D01*
X82174169Y-91884140D01*
X82154393Y-91795115D01*
X82124352Y-91736447D01*
X82082861Y-91705954D01*
X82028731Y-91701452D01*
X81979298Y-91719921D01*
X81948439Y-91758822D01*
X81935208Y-91819755D01*
X81774861Y-91819755D01*
X81782123Y-91762921D01*
X81812739Y-91687191D01*
X81861319Y-91628831D01*
X81927007Y-91588680D01*
X82009799Y-91566738D01*
X82095385Y-91564918D01*
X82169458Y-91585134D01*
X82232016Y-91627384D01*
X82282176Y-91690490D01*
X82319054Y-91773270D01*
X82342650Y-91875725D01*
X82364334Y-92030013D01*
X82371352Y-92137962D01*
X82359824Y-92229991D01*
X82329752Y-92306102D01*
X82281548Y-92365060D01*
X82215628Y-92405635D01*
X82131990Y-92427826D01*
X82046399Y-92429615D01*
G37*
G36*
X81129070Y-92372108D02*
G01*
X81106861Y-92268382D01*
X81130674Y-92215720D01*
X81268536Y-92215720D01*
X81453913Y-92189667D01*
X81412325Y-91893756D01*
X81404057Y-91914291D01*
X81268536Y-92215720D01*
X81130674Y-92215720D01*
X81378720Y-91667172D01*
X81546824Y-91643546D01*
X81620290Y-92166284D01*
X81715282Y-92152934D01*
X81734134Y-92287072D01*
X81639142Y-92300423D01*
X81664629Y-92481768D01*
X81498251Y-92505151D01*
X81472765Y-92323805D01*
X81287388Y-92349858D01*
X81129070Y-92372108D01*
G37*
G36*
X80125571Y-91859728D02*
G01*
X80184638Y-91886652D01*
X80231082Y-91928199D01*
X80263200Y-91983371D01*
X80280989Y-92052167D01*
X80281749Y-92116052D01*
X80266551Y-92183353D01*
X80232607Y-92259305D01*
X80177133Y-92349146D01*
X80014813Y-92576847D01*
X80375203Y-92526197D01*
X80394055Y-92660336D01*
X79819504Y-92741084D01*
X79803484Y-92627095D01*
X80034022Y-92299984D01*
X80074568Y-92236018D01*
X80101667Y-92181869D01*
X80116302Y-92091751D01*
X80102240Y-92042871D01*
X80075753Y-92007921D01*
X79990665Y-91987297D01*
X79941584Y-92004101D01*
X79907180Y-92038657D01*
X79889105Y-92087062D01*
X79889015Y-92145416D01*
X79722060Y-92168880D01*
X79720904Y-92094337D01*
X79738957Y-92023846D01*
X79775130Y-91961155D01*
X79828339Y-91910014D01*
X79895789Y-91873016D01*
X79974691Y-91852754D01*
X80055589Y-91848429D01*
X80125571Y-91859728D01*
G37*
D11*
X110327056Y-100453868D02*
X110396813Y-101451432D01*
X109489998Y-88483262D02*
X109420242Y-87485698D01*
X109420242Y-87485698D02*
X110417806Y-87415942D01*
X124184190Y-86453302D02*
X124253946Y-87450866D01*
X124184170Y-86453139D02*
X123186606Y-86522896D01*
X111394396Y-101381838D02*
X110396832Y-101451595D01*
X124163197Y-100488792D02*
X125160761Y-100419036D01*
X125160761Y-100419036D02*
X125091004Y-99421472D01*
X186964961Y-122031539D02*
X187830986Y-122531539D01*
X191916187Y-141055749D02*
X192782212Y-141555749D01*
X180830986Y-134655895D02*
X179964961Y-134155895D01*
X186464961Y-122897565D02*
X186964961Y-122031539D01*
X199782212Y-129431393D02*
X198916187Y-128931393D01*
X199782137Y-129431539D02*
X199282137Y-130297565D01*
X192782212Y-141555749D02*
X193282212Y-140689724D01*
X180465036Y-133289724D02*
X179965036Y-134155749D01*
X74774938Y-110820994D02*
X73784670Y-110960167D01*
X73645466Y-109969737D02*
X73784639Y-110960005D01*
X87450338Y-109039417D02*
X88440606Y-108900244D01*
X86492183Y-95036491D02*
X85501915Y-95175664D01*
X71975419Y-98086682D02*
X71836246Y-97096414D01*
X86492214Y-95036652D02*
X86631387Y-96026920D01*
X71836246Y-97096414D02*
X72826514Y-96957241D01*
X88440606Y-108900244D02*
X88301433Y-107909976D01*
D12*
X127508925Y-73964823D02*
G75*
G03*
X126379164Y-73945102I-753024J-10768603D01*
G01*
X133086606Y-65214563D02*
G75*
G03*
X128902506Y-64326179I-6330702J-19518963D01*
G01*
X146963800Y-81168609D02*
G75*
G03*
X145785713Y-77056674I-20207915J-3564924D01*
G01*
X146274868Y-91064226D02*
G75*
G03*
X147163251Y-86880128I-19519014J6330710D01*
G01*
X106548008Y-88298443D02*
G75*
G03*
X107726096Y-92410380I20207849J3564905D01*
G01*
X126002883Y-95502230D02*
G75*
G03*
X127132644Y-95521950I753018J10768625D01*
G01*
X120425204Y-104252489D02*
G75*
G03*
X124609302Y-105140873I6330700J19518963D01*
G01*
X130320821Y-104941422D02*
G75*
G03*
X134432758Y-103763334I-3564917J20207896D01*
G01*
X123190987Y-64525630D02*
G75*
G03*
X119079049Y-65703718I3564912J-20207879D01*
G01*
X127132644Y-95521951D02*
G75*
G03*
X128258278Y-95423470I-376737J10788325D01*
G01*
X126379164Y-73945102D02*
G75*
G03*
X125253530Y-74043582I376731J-10788345D01*
G01*
X107236942Y-78402823D02*
G75*
G03*
X106348557Y-82586924I19518945J-6330700D01*
G01*
D11*
X165944975Y-95592115D02*
X165944975Y-94592115D01*
X165944967Y-107591951D02*
X165944967Y-108591951D01*
X180744975Y-94592115D02*
X180744975Y-95592115D01*
X179744967Y-108591951D02*
X180744967Y-108591951D01*
X180744967Y-108591951D02*
X180744967Y-107591951D01*
X180744967Y-94591951D02*
X179744967Y-94591951D01*
X166944975Y-108592115D02*
X165944975Y-108592115D01*
X165944975Y-94592115D02*
X166944975Y-94592115D01*
D10*
X136700019Y-90741977D02*
X136100019Y-91141977D01*
X137100019Y-90741977D02*
X136700019Y-90741977D01*
X136100019Y-90741977D02*
X135600019Y-90741977D01*
X136100019Y-90341977D02*
X136700019Y-90741977D01*
X136700019Y-90741977D02*
X136700019Y-90191977D01*
X136100019Y-91141977D02*
X136100019Y-90341977D01*
X136700019Y-90741977D02*
X136700019Y-91291977D01*
X115390356Y-61761419D02*
X115428722Y-62310079D01*
X114791818Y-61803273D02*
X114293036Y-61838151D01*
X115390356Y-61761419D02*
X114819721Y-62202299D01*
X115789382Y-61733517D02*
X115390356Y-61761419D01*
X114819721Y-62202299D02*
X114763915Y-61404247D01*
X115390356Y-61761419D02*
X115351990Y-61212759D01*
X114763915Y-61404247D02*
X115390356Y-61761419D01*
D11*
X143745054Y-42004482D02*
X143745054Y-43004482D01*
X143745046Y-42004318D02*
X142745046Y-42004318D01*
X142745046Y-56004318D02*
X143745046Y-56004318D01*
X129945054Y-56004482D02*
X128945054Y-56004482D01*
X128945054Y-43004482D02*
X128945054Y-42004482D01*
X128945054Y-42004482D02*
X129945054Y-42004482D01*
X143745046Y-56004318D02*
X143745046Y-55004318D01*
X128945046Y-55004318D02*
X128945046Y-56004318D01*
X90161127Y-90964004D02*
X90021954Y-89973736D01*
X105636046Y-101916739D02*
X106626314Y-101777566D01*
X92960646Y-103698316D02*
X91970378Y-103837489D01*
X104677891Y-87913813D02*
X103687623Y-88052986D01*
X91831174Y-102847059D02*
X91970347Y-103837327D01*
X104677922Y-87913974D02*
X104817095Y-88904242D01*
X106626314Y-101777566D02*
X106487141Y-100787298D01*
X90021954Y-89973736D02*
X91012222Y-89834563D01*
G36*
X148370162Y-110982653D02*
G01*
X148026961Y-110982653D01*
X148026961Y-111916070D01*
X147796108Y-111916070D01*
X147796108Y-110982653D01*
X147457523Y-110982653D01*
X147457523Y-110795662D01*
X148370162Y-110795662D01*
X148370162Y-110982653D01*
G37*
G36*
X152136488Y-111877765D02*
G01*
X152062273Y-111810647D01*
X152008151Y-111718476D01*
X151975062Y-111603050D01*
X151964545Y-111482066D01*
X152185395Y-111482066D01*
X152194725Y-111601436D01*
X152222716Y-111685601D01*
X152271292Y-111735523D01*
X152342375Y-111752164D01*
X152412593Y-111736196D01*
X152460110Y-111688294D01*
X152487620Y-111607496D01*
X152497816Y-111492839D01*
X152497816Y-111226588D01*
X152488294Y-111106256D01*
X152459725Y-111023822D01*
X152410958Y-110976209D01*
X152340836Y-110960338D01*
X152272638Y-110975439D01*
X152225025Y-111020744D01*
X152196457Y-111098176D01*
X152185395Y-111209659D01*
X152185395Y-111482066D01*
X151964545Y-111482066D01*
X151963007Y-111464367D01*
X151963007Y-111258138D01*
X151973822Y-111114240D01*
X152006270Y-110995479D01*
X152060350Y-110901855D01*
X152134778Y-110834309D01*
X152228274Y-110793781D01*
X152340836Y-110780272D01*
X152453356Y-110793653D01*
X152546723Y-110833796D01*
X152620938Y-110900700D01*
X152675060Y-110992657D01*
X152708149Y-111107955D01*
X152720205Y-111246595D01*
X152720205Y-111452824D01*
X152709517Y-111595611D01*
X152677454Y-111714116D01*
X152624016Y-111808338D01*
X152549972Y-111876739D01*
X152456092Y-111917780D01*
X152342375Y-111931460D01*
X152229856Y-111918036D01*
X152136488Y-111877765D01*
G37*
G36*
X146810410Y-108803081D02*
G01*
X147205735Y-108803081D01*
X147331653Y-108811823D01*
X147435523Y-108838049D01*
X147517344Y-108881759D01*
X147576341Y-108942349D01*
X147611739Y-109019218D01*
X147623539Y-109112365D01*
X147612881Y-109190364D01*
X147580906Y-109258480D01*
X147529940Y-109313225D01*
X147462308Y-109351110D01*
X147539920Y-109383860D01*
X147599122Y-109438701D01*
X147636619Y-109511953D01*
X147649119Y-109599932D01*
X147637578Y-109699667D01*
X147602954Y-109781833D01*
X147545249Y-109846428D01*
X147466184Y-109893109D01*
X147367482Y-109921531D01*
X147249143Y-109931695D01*
X146810410Y-109931695D01*
X146810410Y-109744884D01*
X147042954Y-109744884D01*
X147242167Y-109744884D01*
X147315321Y-109735098D01*
X147370454Y-109705739D01*
X147416575Y-109597606D01*
X147398746Y-109511221D01*
X147345261Y-109458769D01*
X147256119Y-109440252D01*
X147042954Y-109440252D01*
X147042954Y-109744884D01*
X146810410Y-109744884D01*
X146810410Y-109275921D01*
X147042954Y-109275921D01*
X147215037Y-109275921D01*
X147312791Y-109258953D01*
X147371444Y-109212186D01*
X147390995Y-109135619D01*
X147379852Y-109069635D01*
X147346424Y-109025161D01*
X147288966Y-108999872D01*
X147205735Y-108991442D01*
X147042954Y-108991442D01*
X147042954Y-109275921D01*
X146810410Y-109275921D01*
X146810410Y-108803081D01*
G37*
G36*
X142584214Y-111916070D02*
G01*
X142353360Y-111916070D01*
X142353360Y-111334320D01*
X142584214Y-111334320D01*
X142790442Y-111334320D01*
X142871145Y-111323546D01*
X142930108Y-111291227D01*
X142966179Y-111238900D01*
X142978203Y-111168105D01*
X142966083Y-111093655D01*
X142929724Y-111034980D01*
X142872010Y-110996505D01*
X142795829Y-110982653D01*
X142584214Y-110982653D01*
X142584214Y-111334320D01*
X142353360Y-111334320D01*
X142353360Y-110795662D01*
X142790442Y-110795662D01*
X142909043Y-110807205D01*
X143012446Y-110841833D01*
X143097188Y-110897719D01*
X143159807Y-110973034D01*
X143198475Y-111063933D01*
X143211364Y-111166566D01*
X143198839Y-111268612D01*
X143161261Y-111355182D01*
X143098631Y-111426276D01*
X143013857Y-111479073D01*
X142909845Y-111510751D01*
X142786595Y-111521311D01*
X142584214Y-111521311D01*
X142584214Y-111916070D01*
G37*
G36*
X146711098Y-111901705D02*
G01*
X146634916Y-111864512D01*
X146567541Y-111813511D01*
X146511111Y-111749770D01*
X146465624Y-111673289D01*
X146432193Y-111586292D01*
X146411929Y-111491000D01*
X146404833Y-111387416D01*
X146404833Y-111381260D01*
X146638764Y-111381260D01*
X146645775Y-111487110D01*
X146666808Y-111575860D01*
X146701864Y-111647510D01*
X146778815Y-111718498D01*
X146883468Y-111742160D01*
X146986198Y-111719363D01*
X147061995Y-111650973D01*
X147096708Y-111580905D01*
X147117741Y-111492283D01*
X147125095Y-111385107D01*
X147125095Y-111330472D01*
X147118083Y-111222399D01*
X147097050Y-111133135D01*
X147061995Y-111062682D01*
X146985428Y-110994004D01*
X146881929Y-110971111D01*
X146779007Y-110993715D01*
X146702633Y-111061528D01*
X146667492Y-111131169D01*
X146646203Y-111219534D01*
X146638764Y-111326625D01*
X146638764Y-111381260D01*
X146404833Y-111381260D01*
X146404833Y-111332011D01*
X146411459Y-111226118D01*
X146431338Y-111129031D01*
X146464470Y-111040751D01*
X146509700Y-110963373D01*
X146565874Y-110898990D01*
X146632993Y-110847604D01*
X146709046Y-110810198D01*
X146792025Y-110787753D01*
X146881929Y-110780272D01*
X146971834Y-110787753D01*
X147054813Y-110810198D01*
X147130866Y-110847604D01*
X147197984Y-110898990D01*
X147254158Y-110963373D01*
X147299389Y-111040751D01*
X147332520Y-111128946D01*
X147352399Y-111225776D01*
X147359026Y-111331242D01*
X147359026Y-111381260D01*
X147352528Y-111487025D01*
X147333033Y-111583727D01*
X147300543Y-111671365D01*
X147255954Y-111748145D01*
X147200165Y-111812271D01*
X147133174Y-111863743D01*
X147057036Y-111901363D01*
X146973800Y-111923936D01*
X146883468Y-111931460D01*
X146793949Y-111924021D01*
X146711098Y-111901705D01*
G37*
G36*
X148888043Y-111300461D02*
G01*
X149121205Y-110795662D01*
X149373604Y-110795662D01*
X149005778Y-111509768D01*
X149005778Y-111916070D01*
X148771077Y-111916070D01*
X148771077Y-111509768D01*
X148403251Y-110795662D01*
X148656420Y-110795662D01*
X148888043Y-111300461D01*
G37*
G36*
X151796792Y-111525928D02*
G01*
X151363558Y-111525928D01*
X151363558Y-111346632D01*
X151796792Y-111346632D01*
X151796792Y-111525928D01*
G37*
G36*
X145307789Y-108798527D02*
G01*
X145408945Y-108831374D01*
X145492952Y-108884181D01*
X145555836Y-108955010D01*
X145595077Y-109040276D01*
X145608158Y-109136394D01*
X145375614Y-109136394D01*
X145363406Y-109067503D01*
X145326780Y-109015859D01*
X145268062Y-108983593D01*
X145189579Y-108972838D01*
X145113808Y-108981849D01*
X145057029Y-109008883D01*
X145009745Y-109103838D01*
X145065168Y-109196080D01*
X145133671Y-109232125D01*
X145228336Y-109265844D01*
X145348656Y-109308821D01*
X145445033Y-109358172D01*
X145517466Y-109413897D01*
X145585485Y-109513115D01*
X145608158Y-109634038D01*
X145595842Y-109724687D01*
X145558893Y-109801298D01*
X145497312Y-109863869D01*
X145414888Y-109910163D01*
X145315411Y-109937939D01*
X145198881Y-109947197D01*
X145074470Y-109935280D01*
X144961686Y-109899526D01*
X144867409Y-109843037D01*
X144798518Y-109768914D01*
X144756369Y-109679384D01*
X144742319Y-109576677D01*
X144975638Y-109576677D01*
X144989591Y-109658407D01*
X145031449Y-109716785D01*
X145101212Y-109751812D01*
X145198881Y-109763488D01*
X145272713Y-109755058D01*
X145328330Y-109729769D01*
X145374839Y-109635589D01*
X145328330Y-109534432D01*
X145263218Y-109498194D01*
X145160898Y-109460018D01*
X145052572Y-109421164D01*
X144969437Y-109382891D01*
X144862639Y-109305635D01*
X144798561Y-109212359D01*
X144777201Y-109103063D01*
X144790088Y-109016537D01*
X144828748Y-108939895D01*
X144891535Y-108876042D01*
X144976801Y-108827886D01*
X145079217Y-108797655D01*
X145193455Y-108787578D01*
X145307789Y-108798527D01*
G37*
G36*
X143369884Y-111916070D02*
G01*
X143369884Y-111318929D01*
X143600737Y-111318929D01*
X143786958Y-111318929D01*
X143864102Y-111307868D01*
X143921623Y-111274683D01*
X143957405Y-111222067D01*
X143969332Y-111152715D01*
X143958078Y-111081920D01*
X143924316Y-111028054D01*
X143867276Y-110994004D01*
X143786189Y-110982653D01*
X143600737Y-110982653D01*
X143600737Y-111318929D01*
X143369884Y-111318929D01*
X143369884Y-110795662D01*
X143786189Y-110795662D01*
X143908455Y-110805495D01*
X144010544Y-110834993D01*
X144092454Y-110884156D01*
X144152305Y-110951274D01*
X144188215Y-111034638D01*
X144200185Y-111134247D01*
X144187777Y-111239381D01*
X144150552Y-111325470D01*
X144088125Y-111394245D01*
X144000113Y-111447438D01*
X144242508Y-111905296D01*
X144242508Y-111916070D01*
X143994726Y-111916070D01*
X143784650Y-111505920D01*
X143600737Y-111505920D01*
X143600737Y-111916070D01*
X143369884Y-111916070D01*
G37*
G36*
X148070798Y-109931695D02*
G01*
X147838254Y-109931695D01*
X147838254Y-108803081D01*
X148070798Y-108803081D01*
X148070798Y-109931695D01*
G37*
G36*
X149706802Y-111916070D02*
G01*
X149475949Y-111916070D01*
X149475949Y-111334320D01*
X149706802Y-111334320D01*
X149913031Y-111334320D01*
X149993733Y-111323546D01*
X150052697Y-111291227D01*
X150088768Y-111238900D01*
X150100791Y-111168105D01*
X150088672Y-111093655D01*
X150052312Y-111034980D01*
X149994599Y-110996505D01*
X149918417Y-110982653D01*
X149706802Y-110982653D01*
X149706802Y-111334320D01*
X149475949Y-111334320D01*
X149475949Y-110795662D01*
X149913031Y-110795662D01*
X150031632Y-110807205D01*
X150135035Y-110841833D01*
X150219777Y-110897719D01*
X150282396Y-110973034D01*
X150321064Y-111063933D01*
X150333953Y-111166566D01*
X150321427Y-111268612D01*
X150283849Y-111355182D01*
X150221220Y-111426276D01*
X150136445Y-111479073D01*
X150032433Y-111510751D01*
X149909183Y-111521311D01*
X149706802Y-111521311D01*
X149706802Y-111916070D01*
G37*
G36*
X146307105Y-110982653D02*
G01*
X145963903Y-110982653D01*
X145963903Y-111916070D01*
X145733050Y-111916070D01*
X145733050Y-110982653D01*
X145394466Y-110982653D01*
X145394466Y-110795662D01*
X146307105Y-110795662D01*
X146307105Y-110982653D01*
G37*
G36*
X153410456Y-111916070D02*
G01*
X153188067Y-111916070D01*
X153188067Y-111058835D01*
X152922586Y-111141173D01*
X152922586Y-110960338D01*
X153386601Y-110794123D01*
X153410456Y-110794123D01*
X153410456Y-111916070D01*
G37*
G36*
X151241975Y-110982653D02*
G01*
X150723325Y-110982653D01*
X150723325Y-111249673D01*
X151166563Y-111249673D01*
X151166563Y-111430508D01*
X150723325Y-111430508D01*
X150723325Y-111730617D01*
X151243514Y-111730617D01*
X151243514Y-111916070D01*
X150492472Y-111916070D01*
X150492472Y-110795662D01*
X151241975Y-110795662D01*
X151241975Y-110982653D01*
G37*
G36*
X143966398Y-109547997D02*
G01*
X143979672Y-109643824D01*
X144019495Y-109709615D01*
X144082767Y-109747694D01*
X144166386Y-109760387D01*
X144252378Y-109747500D01*
X144314245Y-109708840D01*
X144351985Y-109644406D01*
X144365598Y-109554198D01*
X144365598Y-108803081D01*
X144598917Y-108803081D01*
X144598917Y-109546447D01*
X144586041Y-109661341D01*
X144547413Y-109759009D01*
X144483033Y-109839452D01*
X144396346Y-109899311D01*
X144290797Y-109935226D01*
X144166386Y-109947197D01*
X144043654Y-109935570D01*
X143939009Y-109900689D01*
X143852451Y-109842553D01*
X143787597Y-109764091D01*
X143748065Y-109668231D01*
X143733854Y-109554973D01*
X143733854Y-108803081D01*
X143966398Y-108803081D01*
X143966398Y-109547997D01*
G37*
G36*
X145987205Y-109547997D02*
G01*
X146000479Y-109643824D01*
X146040302Y-109709615D01*
X146103574Y-109747694D01*
X146187192Y-109760387D01*
X146273185Y-109747500D01*
X146335052Y-109708840D01*
X146372792Y-109644406D01*
X146386405Y-109554198D01*
X146386405Y-108803081D01*
X146619724Y-108803081D01*
X146619724Y-109546447D01*
X146606848Y-109661341D01*
X146568220Y-109759009D01*
X146503840Y-109839452D01*
X146417153Y-109899311D01*
X146311603Y-109935226D01*
X146187192Y-109947197D01*
X146064461Y-109935570D01*
X145959816Y-109900689D01*
X145873258Y-109842553D01*
X145808404Y-109764091D01*
X145768872Y-109668231D01*
X145754661Y-109554973D01*
X145754661Y-108803081D01*
X145987205Y-108803081D01*
X145987205Y-109547997D01*
G37*
G36*
X142947855Y-109621636D02*
G01*
X143236210Y-108803081D01*
X143541617Y-108803081D01*
X143541617Y-109931695D01*
X143308298Y-109931695D01*
X143308298Y-109623186D01*
X143331553Y-109090661D01*
X143026920Y-109931695D01*
X142867240Y-109931695D01*
X142563383Y-109091436D01*
X142586637Y-109623186D01*
X142586637Y-109931695D01*
X142354093Y-109931695D01*
X142354093Y-108803081D01*
X142657950Y-108803081D01*
X142947855Y-109621636D01*
G37*
G36*
X144648040Y-111901705D02*
G01*
X144571859Y-111864512D01*
X144504484Y-111813511D01*
X144448053Y-111749770D01*
X144402567Y-111673289D01*
X144369136Y-111586292D01*
X144348872Y-111491000D01*
X144341775Y-111387416D01*
X144341775Y-111381260D01*
X144575706Y-111381260D01*
X144582718Y-111487110D01*
X144603751Y-111575860D01*
X144638806Y-111647510D01*
X144715757Y-111718498D01*
X144820411Y-111742160D01*
X144923140Y-111719363D01*
X144998937Y-111650973D01*
X145033651Y-111580905D01*
X145054684Y-111492283D01*
X145062037Y-111385107D01*
X145062037Y-111330472D01*
X145055026Y-111222399D01*
X145033993Y-111133135D01*
X144998937Y-111062682D01*
X144922371Y-110994004D01*
X144818872Y-110971111D01*
X144715950Y-110993715D01*
X144639576Y-111061528D01*
X144604435Y-111131169D01*
X144583145Y-111219534D01*
X144575706Y-111326625D01*
X144575706Y-111381260D01*
X144341775Y-111381260D01*
X144341775Y-111332011D01*
X144348402Y-111226118D01*
X144368281Y-111129031D01*
X144401412Y-111040751D01*
X144446642Y-110963373D01*
X144502817Y-110898990D01*
X144569935Y-110847604D01*
X144645988Y-110810198D01*
X144728967Y-110787753D01*
X144818872Y-110780272D01*
X144908776Y-110787753D01*
X144991755Y-110810198D01*
X145067808Y-110847604D01*
X145134927Y-110898990D01*
X145191101Y-110963373D01*
X145236331Y-111040751D01*
X145269463Y-111128946D01*
X145289342Y-111225776D01*
X145295968Y-111331242D01*
X145295968Y-111381260D01*
X145289470Y-111487025D01*
X145269976Y-111583727D01*
X145237485Y-111671365D01*
X145192897Y-111748145D01*
X145137107Y-111812271D01*
X145070117Y-111863743D01*
X144993978Y-111901363D01*
X144910743Y-111923936D01*
X144820411Y-111931460D01*
X144730891Y-111924021D01*
X144648040Y-111901705D01*
G37*
X143745022Y-74504304D02*
X143745022Y-73504304D01*
X142745022Y-74504304D02*
X143745022Y-74504304D01*
X143745030Y-60504468D02*
X143745030Y-61504468D01*
X143745022Y-60504304D02*
X142745022Y-60504304D01*
X128945030Y-60504468D02*
X129945030Y-60504468D01*
X129945030Y-74504468D02*
X128945030Y-74504468D01*
X128945030Y-61504468D02*
X128945030Y-60504468D01*
X128945022Y-73504304D02*
X128945022Y-74504304D01*
X87633153Y-91652565D02*
X87493980Y-90662297D01*
X84710518Y-70856935D02*
X83720250Y-70996109D01*
X70026186Y-94127063D02*
X69887013Y-93136795D01*
X84710518Y-70856935D02*
X84849691Y-71847203D01*
X67103551Y-73331433D02*
X67242724Y-74321701D01*
X87633153Y-91652565D02*
X86642885Y-91791738D01*
X70026186Y-94127063D02*
X71016454Y-93987889D01*
X67103551Y-73331433D02*
X68093819Y-73192260D01*
G36*
X78439057Y-72441543D02*
G01*
X78480549Y-72484407D01*
X78502334Y-72555288D01*
X78501287Y-72633386D01*
X78472958Y-72688466D01*
X78418292Y-72724403D01*
X78338237Y-72745073D01*
X78259634Y-72756120D01*
X78215447Y-72441709D01*
X78262842Y-72431040D01*
X78310680Y-72423517D01*
X78381289Y-72422610D01*
X78439057Y-72441543D01*
G37*
G36*
X75388525Y-73783036D02*
G01*
X74701538Y-73879585D01*
X73450186Y-74055451D01*
X73450055Y-74055470D01*
X73336668Y-74060173D01*
X73224540Y-74042665D01*
X73117983Y-74003618D01*
X73021091Y-73944532D01*
X72937588Y-73867680D01*
X72870682Y-73776014D01*
X72822946Y-73673056D01*
X72796213Y-73562764D01*
X72791510Y-73449376D01*
X72809018Y-73337248D01*
X72848065Y-73230692D01*
X72907150Y-73133800D01*
X72984003Y-73050296D01*
X73057825Y-72996414D01*
X73301348Y-72996414D01*
X73438108Y-73969513D01*
X73631471Y-73942338D01*
X73621442Y-73870975D01*
X74139243Y-73870975D01*
X74340465Y-73842695D01*
X74352889Y-73611706D01*
X74612278Y-73575251D01*
X74689461Y-73793647D01*
X74896971Y-73764483D01*
X74855528Y-73657802D01*
X74814219Y-73554372D01*
X74773048Y-73454193D01*
X74732012Y-73357266D01*
X74691114Y-73263589D01*
X74641829Y-73153667D01*
X74877255Y-73153667D01*
X74885075Y-73269194D01*
X74907996Y-73383099D01*
X74942517Y-73481146D01*
X74988634Y-73563337D01*
X75046351Y-73629670D01*
X75139805Y-73691346D01*
X75250794Y-73720635D01*
X75379319Y-73717534D01*
X75464447Y-73700160D01*
X75537472Y-73673665D01*
X75641783Y-73611714D01*
X75571619Y-73466073D01*
X75497091Y-73511817D01*
X75374544Y-73546673D01*
X75259218Y-73540238D01*
X75174201Y-73484254D01*
X75132786Y-73420874D01*
X75101692Y-73338410D01*
X75080919Y-73236861D01*
X75073852Y-73148080D01*
X75079605Y-73073529D01*
X75120156Y-72962826D01*
X75189453Y-72896979D01*
X75275955Y-72867989D01*
X75395393Y-72868036D01*
X75488275Y-72895861D01*
X75516929Y-72734730D01*
X75482050Y-72720395D01*
X75426073Y-72704216D01*
X75350210Y-72694839D01*
X75255459Y-72699338D01*
X75164485Y-72720740D01*
X75083353Y-72757993D01*
X75013749Y-72810257D01*
X74957360Y-72876695D01*
X74915083Y-72956580D01*
X74887820Y-73049184D01*
X74877255Y-73153667D01*
X74641829Y-73153667D01*
X74640254Y-73150154D01*
X74589751Y-73039975D01*
X74539607Y-72933052D01*
X74489818Y-72829386D01*
X74279164Y-72858991D01*
X74260983Y-72971308D01*
X74242642Y-73086755D01*
X74224138Y-73205329D01*
X74205473Y-73327033D01*
X74190826Y-73427682D01*
X74176881Y-73532401D01*
X74163634Y-73641189D01*
X74151089Y-73754047D01*
X74139243Y-73870975D01*
X73621442Y-73870975D01*
X73572923Y-73525745D01*
X73925062Y-73476255D01*
X73902526Y-73315906D01*
X73550387Y-73365396D01*
X73517247Y-73129588D01*
X73919691Y-73073028D01*
X73897156Y-72912679D01*
X73301348Y-72996414D01*
X73057825Y-72996414D01*
X73075668Y-72983391D01*
X73178627Y-72935654D01*
X73288919Y-72908922D01*
X73289049Y-72908903D01*
X75024453Y-72665008D01*
X75659424Y-72665008D01*
X75796184Y-73638107D01*
X76420289Y-73550395D01*
X76397753Y-73390046D01*
X75967011Y-73450582D01*
X75928568Y-73177046D01*
X76272847Y-73128660D01*
X76250311Y-72968311D01*
X75906033Y-73016697D01*
X75875322Y-72798182D01*
X76271479Y-72742506D01*
X76248944Y-72582157D01*
X75659424Y-72665008D01*
X75024453Y-72665008D01*
X76558776Y-72449373D01*
X77193745Y-72449373D01*
X77281016Y-73070333D01*
X77296324Y-73150741D01*
X77318388Y-73222184D01*
X77348615Y-73283263D01*
X77388408Y-73332577D01*
X77500300Y-73392999D01*
X77574366Y-73402427D01*
X77661937Y-73396733D01*
X77749060Y-73377876D01*
X77818640Y-73348259D01*
X77872359Y-73308446D01*
X77911901Y-73259005D01*
X77937740Y-73200467D01*
X77950352Y-73133368D01*
X77951869Y-73058610D01*
X77944421Y-72977097D01*
X77857151Y-72356138D01*
X77663789Y-72383313D01*
X77749071Y-72990125D01*
X77757254Y-73093977D01*
X77744745Y-73164668D01*
X77707492Y-73207578D01*
X77641441Y-73228082D01*
X77572295Y-73226578D01*
X77525555Y-73196275D01*
X77494942Y-73132446D01*
X77474182Y-73030360D01*
X77388680Y-72421977D01*
X77193745Y-72449373D01*
X76558776Y-72449373D01*
X77278895Y-72348167D01*
X78005119Y-72348167D01*
X78140112Y-73308689D01*
X78333474Y-73281514D01*
X78287298Y-72952956D01*
X78356468Y-72943235D01*
X78471498Y-72918251D01*
X78565057Y-72878651D01*
X78637148Y-72824434D01*
X78685552Y-72753774D01*
X78708055Y-72664846D01*
X78704657Y-72557649D01*
X78678610Y-72454703D01*
X78632877Y-72376433D01*
X78567454Y-72322840D01*
X78484121Y-72291356D01*
X78384654Y-72279419D01*
X78269054Y-72287026D01*
X78207964Y-72297216D01*
X78137775Y-72311087D01*
X78067241Y-72328214D01*
X78005119Y-72348167D01*
X77278895Y-72348167D01*
X78648170Y-72155728D01*
X78648301Y-72155709D01*
X78761689Y-72151006D01*
X78873817Y-72168514D01*
X78980373Y-72207562D01*
X79077265Y-72266647D01*
X79160769Y-72343499D01*
X79227674Y-72435165D01*
X79275411Y-72538123D01*
X79302143Y-72648415D01*
X79306847Y-72761803D01*
X79289339Y-72873931D01*
X79250291Y-72980487D01*
X79191206Y-73077379D01*
X79114354Y-73160883D01*
X79022688Y-73227788D01*
X78919730Y-73275525D01*
X78809438Y-73302258D01*
X78809307Y-73302276D01*
X78345552Y-73367453D01*
X77671142Y-73462235D01*
X75808262Y-73724045D01*
X75388525Y-73783036D01*
G37*
G36*
X74446040Y-73105324D02*
G01*
X74484890Y-73199256D01*
X74519701Y-73292955D01*
X74552705Y-73390915D01*
X74362488Y-73417649D01*
X74367999Y-73314276D01*
X74376419Y-73214501D01*
X74387874Y-73113498D01*
X74402264Y-73004871D01*
X74446040Y-73105324D01*
G37*
D10*
X173094972Y-105941952D02*
X173694972Y-106341952D01*
X173094972Y-106741952D02*
X173094972Y-105941952D01*
X173694972Y-106341952D02*
X173694972Y-105791952D01*
X174094972Y-106341952D02*
X173694972Y-106341952D01*
X173094972Y-106341952D02*
X172594972Y-106341952D01*
X173694972Y-106341952D02*
X173694972Y-106891952D01*
X173694972Y-106341952D02*
X173094972Y-106741952D01*
X154618351Y-79741990D02*
X154118351Y-79741990D01*
X155218351Y-79741990D02*
X155218351Y-79191990D01*
X155218351Y-79741990D02*
X155218351Y-80291990D01*
X154618351Y-80141990D02*
X154618351Y-79341990D01*
X155618351Y-79741990D02*
X155218351Y-79741990D01*
X155218351Y-79741990D02*
X154618351Y-80141990D01*
X154618351Y-79341990D02*
X155218351Y-79741990D01*
X169372240Y-128813627D02*
X169579295Y-128040886D01*
X169579295Y-128040886D02*
X170055323Y-128582548D01*
X170055323Y-128582548D02*
X169912973Y-129113807D01*
X169475768Y-128427256D02*
X168992805Y-128297847D01*
X170055323Y-128582548D02*
X169372240Y-128813627D01*
X170441693Y-128686075D02*
X170055323Y-128582548D01*
X170055323Y-128582548D02*
X170197674Y-128051288D01*
D11*
X166944980Y-90104452D02*
X165944980Y-90104452D01*
X180744980Y-76104452D02*
X180744980Y-77104452D01*
X179744972Y-90104288D02*
X180744972Y-90104288D01*
X165944972Y-89104288D02*
X165944972Y-90104288D01*
X180744972Y-90104288D02*
X180744972Y-89104288D01*
X165944980Y-76104452D02*
X166944980Y-76104452D01*
X180744972Y-76104288D02*
X179744972Y-76104288D01*
X165944980Y-77104452D02*
X165944980Y-76104452D01*
D10*
X96760227Y-82232957D02*
X96221735Y-82712569D01*
X96760227Y-82232957D02*
X96683682Y-81688310D01*
X96760227Y-82232957D02*
X96836772Y-82777605D01*
X96221735Y-82712569D02*
X96110397Y-81920354D01*
X97156334Y-82177288D02*
X96760227Y-82232957D01*
X96110397Y-81920354D02*
X96760227Y-82232957D01*
X96166066Y-82316461D02*
X95670932Y-82386048D01*
D11*
X180744978Y-57604451D02*
X180744978Y-58604451D01*
X180744970Y-57604287D02*
X179744970Y-57604287D01*
X180744970Y-71604287D02*
X180744970Y-70604287D01*
X165944978Y-58604451D02*
X165944978Y-57604451D01*
X166944978Y-71604451D02*
X165944978Y-71604451D01*
X165944978Y-57604451D02*
X166944978Y-57604451D01*
X165944970Y-70604287D02*
X165944970Y-71604287D01*
X179744970Y-71604287D02*
X180744970Y-71604287D01*
X87589569Y-72666328D02*
X87450396Y-71676060D01*
X104054756Y-83479890D02*
X103915583Y-82489622D01*
X87450396Y-71676060D02*
X88440664Y-71536887D01*
X102106333Y-69616137D02*
X101116065Y-69755310D01*
X90389088Y-85400640D02*
X89398820Y-85539813D01*
X102106364Y-69616298D02*
X102245537Y-70606566D01*
X103064488Y-83619063D02*
X104054756Y-83479890D01*
X89259616Y-84549383D02*
X89398789Y-85539651D01*
D10*
X116682065Y-80233806D02*
X116720431Y-80782466D01*
X116055624Y-79876634D02*
X116682065Y-80233806D01*
X116682065Y-80233806D02*
X116111430Y-80674686D01*
X116111430Y-80674686D02*
X116055624Y-79876634D01*
X116682065Y-80233806D02*
X116643699Y-79685146D01*
X116083527Y-80275660D02*
X115584745Y-80310538D01*
X117081091Y-80205904D02*
X116682065Y-80233806D01*
D11*
X161268342Y-82004335D02*
X162268342Y-82004335D01*
X147468350Y-68004499D02*
X148468350Y-68004499D01*
X162268350Y-68004499D02*
X162268350Y-69004499D01*
X162268342Y-68004335D02*
X161268342Y-68004335D01*
X162268342Y-82004335D02*
X162268342Y-81004335D01*
X147468350Y-69004499D02*
X147468350Y-68004499D01*
X147468342Y-81004335D02*
X147468342Y-82004335D01*
X148468350Y-82004499D02*
X147468350Y-82004499D01*
D10*
X150941715Y-126005779D02*
X150941715Y-125455779D01*
X151341715Y-126005779D02*
X150941715Y-126005779D01*
X150941715Y-126005779D02*
X150941715Y-126555779D01*
X150341715Y-126005779D02*
X149841715Y-126005779D01*
X150941715Y-126005779D02*
X150341715Y-126405779D01*
X150341715Y-125605779D02*
X150941715Y-126005779D01*
X150341715Y-126405779D02*
X150341715Y-125605779D01*
X187074070Y-136152042D02*
X187474070Y-135459222D01*
X187474070Y-135459222D02*
X187793685Y-136105632D01*
X187793685Y-136105632D02*
X187074070Y-136152042D01*
X187793685Y-136105632D02*
X187518685Y-136581946D01*
X188140095Y-136305632D02*
X187793685Y-136105632D01*
X187274070Y-135805632D02*
X186841057Y-135555632D01*
X187793685Y-136105632D02*
X188068685Y-135629318D01*
X154618352Y-61641986D02*
X154618352Y-60841986D01*
X155218352Y-61241986D02*
X155218352Y-60691986D01*
X155218352Y-61241986D02*
X154618352Y-61641986D01*
X155618352Y-61241986D02*
X155218352Y-61241986D01*
X155218352Y-61241986D02*
X155218352Y-61791986D01*
X154618352Y-60841986D02*
X155218352Y-61241986D01*
X154618352Y-61241986D02*
X154118352Y-61241986D01*
D11*
X147468352Y-87254490D02*
X147468352Y-86254490D01*
X162268344Y-86254326D02*
X161268344Y-86254326D01*
X162268344Y-100254326D02*
X162268344Y-99254326D01*
X147468344Y-99254326D02*
X147468344Y-100254326D01*
X161268344Y-100254326D02*
X162268344Y-100254326D01*
X147468352Y-86254490D02*
X148468352Y-86254490D01*
X148468352Y-100254490D02*
X147468352Y-100254490D01*
X162268352Y-86254490D02*
X162268352Y-87254490D01*
D10*
X99330074Y-100518427D02*
X99406619Y-101063075D01*
X98680244Y-100205824D02*
X99330074Y-100518427D01*
X98791582Y-100998039D02*
X98680244Y-100205824D01*
X99330074Y-100518427D02*
X98791582Y-100998039D01*
X98735913Y-100601931D02*
X98240779Y-100671518D01*
X99726181Y-100462758D02*
X99330074Y-100518427D01*
X99330074Y-100518427D02*
X99253529Y-99973780D01*
D11*
X129945021Y-93004473D02*
X128945021Y-93004473D01*
X143745013Y-93004309D02*
X143745013Y-92004309D01*
X128945021Y-80004473D02*
X128945021Y-79004473D01*
X128945021Y-79004473D02*
X129945021Y-79004473D01*
X128945013Y-92004309D02*
X128945013Y-93004309D01*
X142745013Y-93004309D02*
X143745013Y-93004309D01*
X143745013Y-79004309D02*
X142745013Y-79004309D01*
X143745021Y-79004473D02*
X143745021Y-80004473D01*
X110106336Y-82961650D02*
X109108772Y-83031407D01*
X122896130Y-68033114D02*
X122965886Y-69030678D01*
X109038996Y-82033680D02*
X109108753Y-83031244D01*
X108201938Y-70063074D02*
X108132182Y-69065510D01*
X122875137Y-82068604D02*
X123872701Y-81998848D01*
X108132182Y-69065510D02*
X109129746Y-68995754D01*
X123872701Y-81998848D02*
X123802944Y-81001284D01*
X122896110Y-68032951D02*
X121898546Y-68102708D01*
D10*
X136095033Y-72641982D02*
X136095033Y-71841982D01*
X136695033Y-72241982D02*
X136095033Y-72641982D01*
X136095033Y-72241982D02*
X135595033Y-72241982D01*
X137095033Y-72241982D02*
X136695033Y-72241982D01*
X136695033Y-72241982D02*
X136695033Y-71691982D01*
X136095033Y-71841982D02*
X136695033Y-72241982D01*
X136695033Y-72241982D02*
X136695033Y-72791982D01*
D11*
X179884956Y-119099031D02*
X179626137Y-120064957D01*
X162224641Y-127825385D02*
X161965822Y-128791310D01*
X179884991Y-119098871D02*
X178919065Y-118840052D01*
X175295598Y-132363013D02*
X176261524Y-132621832D01*
X165589254Y-115268509D02*
X166555180Y-115527328D01*
X162931713Y-129050290D02*
X161965787Y-128791471D01*
X165330435Y-116234435D02*
X165589254Y-115268509D01*
X176261524Y-132621832D02*
X176520343Y-131655906D01*
D10*
X81144365Y-107641098D02*
X81067820Y-107096451D01*
X80550204Y-107724602D02*
X80055070Y-107794189D01*
X81144365Y-107641098D02*
X81220910Y-108185746D01*
X81540472Y-107585429D02*
X81144365Y-107641098D01*
X80605873Y-108120710D02*
X80494535Y-107328495D01*
X80494535Y-107328495D02*
X81144365Y-107641098D01*
X81144365Y-107641098D02*
X80605873Y-108120710D01*
D11*
X121583422Y-63596227D02*
X122580986Y-63526471D01*
X106910223Y-51590697D02*
X106840467Y-50593133D01*
X106840467Y-50593133D02*
X107838031Y-50523377D01*
X107747281Y-63561303D02*
X107817038Y-64558867D01*
X121604415Y-49560737D02*
X121674171Y-50558301D01*
X122580986Y-63526471D02*
X122511229Y-62528907D01*
X108814621Y-64489273D02*
X107817057Y-64559030D01*
X121604395Y-49560574D02*
X120606831Y-49630331D01*
%LPC*%
D13*
X156518354Y-97992001D03*
X153218354Y-97992001D03*
D14*
X157268354Y-57392159D03*
D15*
X160368346Y-62004331D03*
D16*
X154868354Y-59304495D03*
D15*
X149368362Y-61991995D03*
D17*
X156418354Y-57392159D03*
X156418354Y-57404495D03*
D18*
X154868354Y-57404495D03*
D17*
X153318354Y-57392159D03*
D18*
X154868354Y-57392159D03*
D15*
X149368346Y-51004331D03*
D16*
X154868354Y-55492159D03*
X154868354Y-55504495D03*
D14*
X152468354Y-57392159D03*
D17*
X153318354Y-57404495D03*
D16*
X154868354Y-59292159D03*
D14*
X157268354Y-57404495D03*
X152468354Y-57404495D03*
D15*
X160368362Y-50991995D03*
D19*
X158268362Y-53591995D03*
D20*
X158268362Y-58491995D03*
D21*
X119266958Y-98563325D03*
X115974996Y-98793521D03*
D13*
X137995055Y-53741968D03*
X134695055Y-53741968D03*
D22*
X174986206Y-51241997D03*
X181986206Y-51241997D03*
D23*
X172286206Y-48941997D03*
X172286206Y-53541997D03*
X173386206Y-48941997D03*
X173386206Y-53541997D03*
X177386206Y-53541997D03*
X177386206Y-48941997D03*
X180386206Y-53541997D03*
X180386206Y-48941997D03*
D13*
X174994979Y-69341961D03*
X171694979Y-69341961D03*
D16*
X150591715Y-120255944D03*
D17*
X152141715Y-122168280D03*
D15*
X145091723Y-126755780D03*
D18*
X150591715Y-122155944D03*
D14*
X148191715Y-122168280D03*
X152991715Y-122168280D03*
X148191715Y-122155944D03*
X152991715Y-122155944D03*
D15*
X156091723Y-115755780D03*
D16*
X150591715Y-124068280D03*
D17*
X149041715Y-122155944D03*
D18*
X150591715Y-122168280D03*
D17*
X152141715Y-122155944D03*
D15*
X145091707Y-115768116D03*
X156091707Y-126768116D03*
D16*
X150591715Y-124055944D03*
D17*
X149041715Y-122168280D03*
D16*
X150591715Y-120268280D03*
D19*
X153991723Y-118355780D03*
D20*
X153991723Y-123255780D03*
D24*
X101287511Y-116961180D03*
D25*
X98648155Y-115425902D03*
D15*
X107111438Y-118881506D03*
D26*
X101024798Y-115091887D03*
D27*
X102557997Y-114863952D03*
D15*
X96216789Y-120400192D03*
D27*
X99489883Y-115307605D03*
D25*
X103401442Y-114757871D03*
D24*
X101289227Y-116973396D03*
D27*
X102559714Y-114876168D03*
D24*
X100758653Y-113198161D03*
D15*
X105578833Y-107976339D03*
D26*
X101023082Y-115079671D03*
D24*
X100760370Y-113210377D03*
D25*
X103399725Y-114745655D03*
D15*
X94687585Y-109519462D03*
D25*
X98646438Y-115413686D03*
D27*
X99488166Y-115295389D03*
D19*
X103861120Y-110843300D03*
D20*
X104543069Y-115695613D03*
D28*
X103192815Y-118662399D03*
X99924931Y-119121671D03*
D13*
X174994977Y-87841952D03*
X171694977Y-87841952D03*
D29*
X90544301Y-112068688D03*
D30*
X90544301Y-112068688D03*
D31*
X117484969Y-96733322D03*
D32*
X119747446Y-94682841D03*
D15*
X112186705Y-99810241D03*
D31*
X117220754Y-92954885D03*
D33*
X118899516Y-94742134D03*
D31*
X117485829Y-96745628D03*
D15*
X111420229Y-88849344D03*
D33*
X118898656Y-94729828D03*
D32*
X119746585Y-94670535D03*
X114959138Y-95017672D03*
D15*
X123160754Y-99055227D03*
D34*
X117352431Y-94837950D03*
D33*
X115807068Y-94958379D03*
D15*
X122392589Y-88069716D03*
D32*
X114958278Y-95005366D03*
D34*
X117353292Y-94850256D03*
D31*
X117219894Y-92942579D03*
D33*
X115806207Y-94946073D03*
D19*
X120479071Y-90809871D03*
D20*
X120820878Y-95697935D03*
D35*
X188081210Y-131798140D03*
D36*
X188479717Y-134207905D03*
D37*
X189423549Y-132573140D03*
D36*
X190373549Y-130927692D03*
D35*
X188087378Y-131787457D03*
D38*
X187345088Y-131373140D03*
D36*
X188473549Y-134218588D03*
D15*
X197392946Y-129769756D03*
D37*
X189429717Y-132562457D03*
D38*
X191502010Y-133773140D03*
X187351256Y-131362457D03*
D35*
X190772056Y-133337457D03*
D15*
X187860484Y-124280432D03*
D35*
X190765888Y-133348140D03*
D15*
X182366666Y-133796036D03*
D38*
X191508178Y-133762457D03*
D36*
X190379717Y-130917009D03*
D15*
X191886764Y-139306711D03*
D19*
X194274292Y-130971422D03*
D20*
X191824292Y-135214947D03*
D27*
X81796896Y-103661716D03*
D24*
X79997552Y-101995925D03*
D15*
X84817732Y-96774103D03*
D25*
X82638624Y-103543419D03*
D15*
X73926484Y-98317226D03*
D25*
X77885337Y-104211450D03*
D15*
X86350337Y-107679270D03*
D24*
X80526410Y-105758944D03*
D25*
X82640341Y-103555635D03*
D26*
X80263697Y-103889651D03*
D24*
X80528126Y-105771160D03*
D27*
X81798613Y-103673932D03*
D26*
X80261981Y-103877435D03*
D27*
X78728782Y-104105369D03*
D25*
X77887054Y-104223666D03*
D27*
X78727065Y-104093153D03*
D15*
X75455688Y-109197956D03*
D24*
X79999269Y-102008141D03*
D19*
X83100019Y-99641064D03*
D20*
X83781968Y-104493377D03*
D30*
X166673711Y-51242001D03*
D29*
X166673711Y-51242001D03*
X105044296Y-66818696D03*
D30*
X105044296Y-66818696D03*
D29*
X145794299Y-84068691D03*
X107717509Y-85398361D03*
X126091069Y-65695131D03*
D17*
X171794975Y-102479779D03*
D16*
X173344975Y-104392115D03*
D14*
X170944975Y-102492115D03*
D15*
X178844983Y-96079615D03*
D14*
X175744975Y-102492115D03*
D16*
X173344975Y-100592115D03*
D14*
X175744975Y-102479779D03*
D18*
X173344975Y-102492115D03*
X173344975Y-102479779D03*
D16*
X173344975Y-104379779D03*
D15*
X167844967Y-96091951D03*
D17*
X174894975Y-102492115D03*
D15*
X178844967Y-107091951D03*
D14*
X170944975Y-102479779D03*
D15*
X167844983Y-107079615D03*
D16*
X173344975Y-100579779D03*
D17*
X174894975Y-102479779D03*
X171794975Y-102492115D03*
D19*
X176744983Y-98679615D03*
D20*
X176744983Y-103579615D03*
D13*
X138000019Y-90741977D03*
X134700019Y-90741977D03*
D21*
X116687190Y-61670736D03*
X113395228Y-61900932D03*
D16*
X136345054Y-48004482D03*
X136345054Y-47992146D03*
X136345054Y-51792146D03*
D15*
X130845046Y-43504318D03*
D17*
X134795054Y-49904482D03*
D16*
X136345054Y-51804482D03*
D17*
X137895054Y-49904482D03*
D18*
X136345054Y-49904482D03*
D14*
X133945054Y-49892146D03*
X133945054Y-49904482D03*
D15*
X130845062Y-54491982D03*
D14*
X138745054Y-49904482D03*
D18*
X136345054Y-49892146D03*
D17*
X137895054Y-49892146D03*
D15*
X141845046Y-54504318D03*
D14*
X138745054Y-49892146D03*
D17*
X134795054Y-49892146D03*
D15*
X141845062Y-43491982D03*
D19*
X139745062Y-46091982D03*
D20*
X139745062Y-50991982D03*
D24*
X98712118Y-98636266D03*
D26*
X98447689Y-96754757D03*
D24*
X98713834Y-98648482D03*
D27*
X99982604Y-96539038D03*
D25*
X96072762Y-97100988D03*
D26*
X98449405Y-96766973D03*
D25*
X100826049Y-96432957D03*
D24*
X98183260Y-94873247D03*
D27*
X96914490Y-96982691D03*
D24*
X98184977Y-94885463D03*
D15*
X92112192Y-91194548D03*
X104536045Y-100556592D03*
D25*
X96071045Y-97088772D03*
D15*
X93641396Y-102075278D03*
D27*
X96912773Y-96970475D03*
D25*
X100824332Y-96420741D03*
D27*
X99984321Y-96551254D03*
D15*
X103003440Y-89651425D03*
D19*
X101285727Y-92518386D03*
D20*
X101967676Y-97370699D03*
D16*
X136345030Y-66492132D03*
D18*
X136345030Y-68404468D03*
D17*
X137895030Y-68392132D03*
D16*
X136345030Y-70292132D03*
D17*
X134795030Y-68404468D03*
D14*
X138745030Y-68404468D03*
D17*
X134795030Y-68392132D03*
D16*
X136345030Y-70304468D03*
D18*
X136345030Y-68392132D03*
D15*
X141845038Y-61991968D03*
X141845022Y-73004304D03*
D14*
X138745030Y-68392132D03*
D17*
X137895030Y-68404468D03*
D15*
X130845022Y-62004304D03*
D14*
X133945030Y-68392132D03*
D16*
X136345030Y-66504468D03*
D15*
X130845038Y-72991968D03*
D14*
X133945030Y-68404468D03*
D19*
X139745038Y-64591968D03*
D20*
X139745038Y-69491968D03*
D39*
X68291633Y-76072762D03*
X68645133Y-78588043D03*
X68998633Y-81103324D03*
X69352132Y-83618605D03*
X69705632Y-86133886D03*
X70059132Y-88649167D03*
X70412631Y-91164448D03*
D40*
X86445071Y-88911236D03*
X86091571Y-86395955D03*
X85738071Y-83880674D03*
X85384572Y-81365393D03*
X85031072Y-78850112D03*
X84677572Y-76334831D03*
X84324073Y-73819550D03*
D41*
X72922493Y-82796708D03*
X81721720Y-81560058D03*
D13*
X174994972Y-106341952D03*
X171694972Y-106341952D03*
X156518351Y-79741990D03*
X153218351Y-79741990D03*
D42*
X171311027Y-128919012D03*
X168123471Y-128064910D03*
D16*
X173344980Y-85904452D03*
D15*
X178844988Y-77591952D03*
D18*
X173344980Y-83992116D03*
D14*
X175744980Y-83992116D03*
X170944980Y-83992116D03*
D16*
X173344980Y-82104452D03*
D17*
X171794980Y-83992116D03*
D14*
X170944980Y-84004452D03*
D17*
X174894980Y-84004452D03*
D15*
X167844988Y-88591952D03*
X178844972Y-88604288D03*
D14*
X175744980Y-84004452D03*
D15*
X167844972Y-77604288D03*
D16*
X173344980Y-82092116D03*
D17*
X171794980Y-84004452D03*
X174894980Y-83992116D03*
D18*
X173344980Y-84004452D03*
D16*
X173344980Y-85892116D03*
D19*
X176744988Y-80191952D03*
D20*
X176744988Y-85091952D03*
D28*
X98047575Y-82052032D03*
X94779691Y-82511304D03*
D15*
X167844986Y-70091951D03*
X178844970Y-70104287D03*
D17*
X174894978Y-65504451D03*
D18*
X173344978Y-65504451D03*
X173344978Y-65492115D03*
D17*
X174894978Y-65492115D03*
D14*
X175744978Y-65492115D03*
D17*
X171794978Y-65504451D03*
D15*
X167844970Y-59104287D03*
X178844986Y-59091951D03*
D16*
X173344978Y-67404451D03*
D14*
X175744978Y-65504451D03*
D16*
X173344978Y-63604451D03*
X173344978Y-63592115D03*
D14*
X170944978Y-65504451D03*
D17*
X171794978Y-65492115D03*
D14*
X170944978Y-65492115D03*
D16*
X173344978Y-67392115D03*
D19*
X176744986Y-61691951D03*
D20*
X176744986Y-66591951D03*
D15*
X91069838Y-83777602D03*
D27*
X97412763Y-78253578D03*
D25*
X93501204Y-78803312D03*
D24*
X96140560Y-80338590D03*
D15*
X101964487Y-82258916D03*
D24*
X95611702Y-76575571D03*
D25*
X98254491Y-78135281D03*
X93499487Y-78791096D03*
D27*
X97411046Y-78241362D03*
D26*
X95876131Y-78457081D03*
D24*
X96142276Y-80350806D03*
D15*
X100431882Y-71353749D03*
D24*
X95613419Y-76587787D03*
D15*
X89540634Y-72896872D03*
D27*
X94342932Y-78685015D03*
X94341215Y-78672799D03*
D26*
X95877847Y-78469297D03*
D25*
X98252774Y-78123065D03*
D19*
X98714169Y-74220710D03*
D20*
X99396118Y-79073023D03*
D21*
X117978899Y-80143123D03*
X114686937Y-80373319D03*
D16*
X154868350Y-74004499D03*
D17*
X156418350Y-75892163D03*
X153318350Y-75892163D03*
D16*
X154868350Y-73992163D03*
D15*
X149368342Y-69504335D03*
D16*
X154868350Y-77792163D03*
D15*
X160368342Y-80504335D03*
D14*
X152468350Y-75892163D03*
D17*
X156418350Y-75904499D03*
X153318350Y-75904499D03*
D15*
X149368358Y-80491999D03*
D14*
X157268350Y-75904499D03*
D15*
X160368358Y-69491999D03*
D14*
X157268350Y-75892163D03*
D18*
X154868350Y-75904499D03*
D14*
X152468350Y-75904499D03*
D18*
X154868350Y-75892163D03*
D16*
X154868350Y-77804499D03*
D19*
X158268358Y-72091999D03*
D20*
X158268358Y-76991999D03*
D13*
X152241715Y-126005779D03*
X148941715Y-126005779D03*
D43*
X188919518Y-136755632D03*
X186061634Y-135105632D03*
D13*
X156518352Y-61241986D03*
X153218352Y-61241986D03*
D14*
X152468352Y-94154490D03*
X152468352Y-94142154D03*
D16*
X154868352Y-92254490D03*
D17*
X153318352Y-94142154D03*
D18*
X154868352Y-94142154D03*
D15*
X160368344Y-98754326D03*
D17*
X153318352Y-94154490D03*
D18*
X154868352Y-94154490D03*
D15*
X160368360Y-87741990D03*
D17*
X156418352Y-94154490D03*
D14*
X157268352Y-94154490D03*
D16*
X154868352Y-96042154D03*
D15*
X149368344Y-87754326D03*
D16*
X154868352Y-92242154D03*
D17*
X156418352Y-94142154D03*
D16*
X154868352Y-96054490D03*
D15*
X149368360Y-98741990D03*
D14*
X157268352Y-94142154D03*
D19*
X158268360Y-90341990D03*
D20*
X158268360Y-95241990D03*
D28*
X100617422Y-100337502D03*
X97349538Y-100796774D03*
D17*
X137895021Y-86904473D03*
D14*
X133945021Y-86892137D03*
D17*
X134795021Y-86892137D03*
D15*
X130845029Y-91491973D03*
D16*
X136345021Y-84992137D03*
D15*
X130845013Y-80504309D03*
D16*
X136345021Y-88804473D03*
D17*
X134795021Y-86904473D03*
D14*
X138745021Y-86904473D03*
D16*
X136345021Y-88792137D03*
D17*
X137895021Y-86892137D03*
D15*
X141845013Y-91504309D03*
D14*
X133945021Y-86904473D03*
D16*
X136345021Y-85004473D03*
D14*
X138745021Y-86892137D03*
D15*
X141845029Y-80491973D03*
D18*
X136345021Y-86904473D03*
X136345021Y-86892137D03*
D19*
X139745029Y-83091973D03*
D20*
X139745029Y-87991973D03*
D32*
X118458525Y-76250347D03*
D15*
X110132169Y-70429156D03*
D33*
X117610596Y-76309640D03*
D15*
X121104529Y-69649528D03*
D34*
X116065232Y-76430068D03*
X116064371Y-76417762D03*
D33*
X114518147Y-76525885D03*
D32*
X113671078Y-76597484D03*
D33*
X114519008Y-76538191D03*
D15*
X110898645Y-81390053D03*
D31*
X116197769Y-78325440D03*
D15*
X121872694Y-80635039D03*
D32*
X113670218Y-76585178D03*
X118459386Y-76262653D03*
D31*
X116196909Y-78313134D03*
X115931834Y-74522391D03*
X115932694Y-74534697D03*
D33*
X117611456Y-76321946D03*
D19*
X119191011Y-72389683D03*
D20*
X119532818Y-77277747D03*
D13*
X137995033Y-72241982D03*
X134695033Y-72241982D03*
D44*
X170203871Y-126637928D03*
X171184191Y-122979325D03*
D45*
X170692435Y-124814584D03*
D46*
X168374213Y-124193419D03*
D44*
X170200678Y-126649843D03*
D15*
X167036319Y-117208994D03*
X174814494Y-130681187D03*
X177664712Y-120044092D03*
X164192518Y-127822266D03*
D45*
X170695627Y-124802669D03*
D44*
X171187384Y-122967410D03*
D46*
X168377405Y-124181503D03*
D47*
X172192812Y-125203838D03*
X172189620Y-125215754D03*
D46*
X173010657Y-125435750D03*
X173013849Y-125423834D03*
D47*
X169195250Y-124413415D03*
X169198442Y-124401499D03*
D19*
X174963338Y-122011979D03*
D20*
X173695124Y-126745015D03*
D29*
X183044297Y-121568690D03*
D30*
X183044297Y-121568690D03*
D28*
X82431713Y-107460173D03*
X79163829Y-107919445D03*
D31*
X114640979Y-56062320D03*
D15*
X119812814Y-51177151D03*
D32*
X112379363Y-58125107D03*
X117166810Y-57777970D03*
D15*
X108840454Y-51956779D03*
D32*
X112378503Y-58112801D03*
D31*
X114640119Y-56050014D03*
X114906054Y-59853063D03*
D33*
X116318881Y-57837263D03*
X116319741Y-57849569D03*
D32*
X117167671Y-57790276D03*
D34*
X114772656Y-57945385D03*
D31*
X114905194Y-59840757D03*
D34*
X114773517Y-57957691D03*
D15*
X109606930Y-62917676D03*
D33*
X113227293Y-58065814D03*
X113226432Y-58053508D03*
D15*
X120580979Y-62162662D03*
D19*
X117899296Y-53917306D03*
D20*
X118241103Y-58805370D03*
M02*
