G04 #@! TF.GenerationSoftware,KiCad,Pcbnew,(6.0.7-1)-1*
G04 #@! TF.CreationDate,2023-01-14T03:29:51-05:00*
G04 #@! TF.ProjectId,musubi_rev2,6d757375-6269-45f7-9265-76322e6b6963,rev?*
G04 #@! TF.SameCoordinates,Original*
G04 #@! TF.FileFunction,Paste,Bot*
G04 #@! TF.FilePolarity,Positive*
%FSLAX46Y46*%
G04 Gerber Fmt 4.6, Leading zero omitted, Abs format (unit mm)*
G04 Created by KiCad (PCBNEW (6.0.7-1)-1) date 2023-01-14 03:29:51*
%MOMM*%
%LPD*%
G01*
G04 APERTURE LIST*
G04 Aperture macros list*
%AMHorizOval*
0 Thick line with rounded ends*
0 $1 width*
0 $2 $3 position (X,Y) of the first rounded end (center of the circle)*
0 $4 $5 position (X,Y) of the second rounded end (center of the circle)*
0 Add line between two ends*
20,1,$1,$2,$3,$4,$5,0*
0 Add two circle primitives to create the rounded ends*
1,1,$1,$2,$3*
1,1,$1,$4,$5*%
%AMRotRect*
0 Rectangle, with rotation*
0 The origin of the aperture is its center*
0 $1 length*
0 $2 width*
0 $3 Rotation angle, in degrees counterclockwise*
0 Add horizontal line*
21,1,$1,$2,0,0,$3*%
G04 Aperture macros list end*
%ADD10R,1.200000X1.200000*%
%ADD11RotRect,1.200000X1.200000X184.000000*%
%ADD12RotRect,1.200000X1.200000X188.000000*%
%ADD13HorizOval,1.800000X0.470377X0.066107X-0.470377X-0.066107X0*%
%ADD14HorizOval,1.800000X-0.470377X-0.066107X0.470377X0.066107X0*%
%ADD15RotRect,1.200000X1.200000X165.000000*%
%ADD16RotRect,1.200000X1.200000X150.000000*%
G04 APERTURE END LIST*
D10*
X154916364Y-98450848D03*
X151616364Y-98450848D03*
D11*
X117738655Y-98789460D03*
X114446693Y-99019656D03*
D10*
X136416439Y-53450910D03*
X133116439Y-53450910D03*
X173416327Y-65450912D03*
X170116327Y-65450912D03*
D12*
X100455326Y-114079306D03*
X97187442Y-114538578D03*
D10*
X173416324Y-83950865D03*
X170116324Y-83950865D03*
X136421404Y-90450920D03*
X133121404Y-90450920D03*
D11*
X115157635Y-61879640D03*
X111865673Y-62109836D03*
D13*
X81472848Y-69037091D03*
X81826348Y-71552373D03*
X82179848Y-74067654D03*
X82533349Y-76582935D03*
X82886847Y-79098216D03*
X83240347Y-81613497D03*
X83593847Y-84128778D03*
D14*
X67561407Y-86381990D03*
X67207907Y-83866709D03*
X66854408Y-81351428D03*
X66500908Y-78836147D03*
X66147408Y-76320866D03*
X65793909Y-73805585D03*
X65440409Y-71290305D03*
D10*
X173416321Y-102463166D03*
X170116321Y-102463166D03*
X154916363Y-79950864D03*
X151616363Y-79950864D03*
D15*
X181030919Y-127864012D03*
X177843363Y-127009910D03*
D12*
X95323322Y-77353165D03*
X92055438Y-77812437D03*
D11*
X116448144Y-80334548D03*
X113156182Y-80564744D03*
D10*
X161961606Y-124950782D03*
X158661606Y-124950782D03*
D16*
X198639406Y-135700633D03*
X195781522Y-134050633D03*
D10*
X154916360Y-61450901D03*
X151616360Y-61450901D03*
D12*
X97955327Y-95679306D03*
X94687443Y-96138578D03*
D10*
X136416417Y-71950924D03*
X133116417Y-71950924D03*
D12*
X79655326Y-102779307D03*
X76387442Y-103238579D03*
M02*
