M48
; DRILL file {KiCad (6.0.7-1)-1} date Saturday, January 14, 2023 at 03:29:41 AM
; FORMAT={-:-/ absolute / metric / decimal}
; #@! TF.CreationDate,2023-01-14T03:29:41-05:00
; #@! TF.GenerationSoftware,Kicad,Pcbnew,(6.0.7-1)-1
; #@! TF.FileFunction,NonPlated,1,2,NPTH
FMAT,2
METRIC
; #@! TA.AperFunction,NonPlated,NPTH,ComponentDrill
T1C0.300
; #@! TA.AperFunction,NonPlated,NPTH,ComponentDrill
T2C1.300
; #@! TA.AperFunction,NonPlated,NPTH,ComponentDrill
T3C1.500
; #@! TA.AperFunction,NonPlated,NPTH,ComponentDrill
T4C2.000
; #@! TA.AperFunction,NonPlated,NPTH,ComponentDrill
T5C4.100
%
G90
G05
T2
X71.202Y-93.618
X72.731Y-104.499
X82.093Y-92.075
X83.626Y-102.98
X86.816Y-68.198
X88.346Y-79.079
X89.391Y-86.518
X90.92Y-97.399
X91.966Y-104.838
X93.495Y-115.719
X97.708Y-66.655
X99.24Y-77.56
X100.282Y-84.975
X101.815Y-95.88
X102.857Y-103.295
X104.39Y-114.2
X107.311Y-52.166
X108.077Y-63.127
X108.601Y-70.621
X109.368Y-81.581
X109.892Y-89.075
X110.658Y-100.036
X118.283Y-51.386
X119.051Y-62.372
X119.574Y-69.841
X120.342Y-80.826
X120.864Y-88.296
X121.632Y-99.281
X129.266Y-80.213
X129.266Y-61.713
X129.266Y-91.201
X129.266Y-72.701
X129.266Y-43.213
X129.266Y-54.201
X140.266Y-91.213
X140.266Y-72.713
X140.266Y-80.201
X140.266Y-61.701
X140.266Y-54.213
X140.266Y-43.201
X147.766Y-88.213
X147.766Y-69.713
X147.766Y-51.213
X147.766Y-99.201
X147.766Y-80.701
X147.766Y-62.201
X154.812Y-114.713
X154.812Y-125.701
X158.766Y-99.213
X158.766Y-80.713
X158.766Y-62.213
X158.766Y-88.201
X158.766Y-69.701
X158.766Y-51.201
X165.812Y-125.713
X165.812Y-114.701
X166.266Y-55.213
X166.266Y-73.713
X166.266Y-92.213
X166.266Y-66.201
X166.266Y-84.701
X166.266Y-103.201
X173.912Y-126.767
X176.756Y-116.154
X177.266Y-66.213
X177.266Y-84.713
X177.266Y-103.213
X177.266Y-55.201
X177.266Y-73.701
X177.266Y-92.201
X184.534Y-129.626
X187.385Y-118.989
X192.087Y-132.741
X197.58Y-123.225
X201.607Y-138.252
X207.113Y-128.715
T3
X154.921Y-43.459
X161.921Y-43.459
T1
X74.897Y-97.631G85X75.426Y-101.394
G05
X74.898Y-97.643G85X75.427Y-101.406
G05
X74.897Y-97.631G85X79.65Y-96.963
G05
X74.898Y-97.643G85X79.652Y-96.975
G05
X75.426Y-101.394G85X80.179Y-100.726
G05
X75.427Y-101.406G85X80.181Y-100.738
G05
X79.65Y-96.963G85X80.179Y-100.726
G05
X79.652Y-96.975G85X80.181Y-100.738
G05
X90.511Y-72.211G85X91.04Y-75.974
G05
X90.513Y-72.223G85X91.041Y-75.986
G05
X90.511Y-72.211G85X95.264Y-71.543
G05
X90.513Y-72.223G85X95.266Y-71.555
G05
X93.085Y-90.531G85X93.614Y-94.294
G05
X93.087Y-90.543G85X93.616Y-94.306
G05
X91.04Y-75.974G85X95.793Y-75.306
G05
X91.041Y-75.986G85X95.795Y-75.318
G05
X93.085Y-90.531G85X97.839Y-89.863
G05
X93.087Y-90.543G85X97.84Y-89.875
G05
X95.264Y-71.543G85X95.793Y-75.306
G05
X95.266Y-71.555G85X95.795Y-75.318
G05
X95.66Y-108.851G85X96.189Y-112.614
G05
X95.662Y-108.863G85X96.191Y-112.626
G05
X93.614Y-94.294G85X98.368Y-93.626
G05
X93.616Y-94.306G85X98.369Y-93.638
G05
X95.66Y-108.851G85X100.413Y-108.183
G05
X95.662Y-108.863G85X100.415Y-108.195
G05
X97.839Y-89.863G85X98.368Y-93.626
G05
X97.84Y-89.875G85X98.369Y-93.638
G05
X96.189Y-112.614G85X100.942Y-111.946
G05
X96.191Y-112.626G85X100.944Y-111.958
G05
X100.413Y-108.183G85X100.942Y-111.946
G05
X100.415Y-108.195G85X100.944Y-111.958
G05
X110.716Y-56.426G85X110.981Y-60.217
G05
X110.717Y-56.439G85X110.982Y-60.229
G05
X112.007Y-74.881G85X112.272Y-78.672
G05
X112.008Y-74.894G85X112.273Y-78.684
G05
X110.716Y-56.426G85X115.505Y-56.092
G05
X110.717Y-56.439G85X115.506Y-56.104
G05
X110.981Y-60.217G85X115.77Y-59.882
G05
X110.982Y-60.229G85X115.771Y-59.895
G05
X113.297Y-93.336G85X113.563Y-97.127
G05
X113.298Y-93.348G85X113.563Y-97.139
G05
X112.007Y-74.881G85X116.795Y-74.546
G05
X112.008Y-74.894G85X116.796Y-74.559
G05
X112.272Y-78.672G85X117.06Y-78.337
G05
X112.273Y-78.684G85X117.061Y-78.349
G05
X115.505Y-56.092G85X115.77Y-59.882
G05
X115.506Y-56.104G85X115.771Y-59.895
G05
X113.297Y-93.336G85X118.086Y-93.001
G05
X113.298Y-93.348G85X118.087Y-93.014
G05
X113.563Y-97.127G85X118.351Y-96.792
G05
X113.563Y-97.139G85X118.352Y-96.804
G05
X116.795Y-74.546G85X117.06Y-78.337
G05
X116.796Y-74.559G85X117.061Y-78.349
G05
X118.086Y-93.001G85X118.351Y-96.792
G05
X118.087Y-93.014G85X118.352Y-96.804
G05
X132.366Y-84.701G85X132.366Y-88.501
G05
X132.366Y-84.713G85X132.366Y-88.513
G05
X132.366Y-66.201G85X132.366Y-70.001
G05
X132.366Y-66.213G85X132.366Y-70.013
G05
X132.366Y-47.701G85X132.366Y-51.501
G05
X132.366Y-47.713G85X132.366Y-51.513
G05
X132.366Y-84.701G85X137.166Y-84.701
G05
X132.366Y-84.713G85X137.166Y-84.713
G05
X132.366Y-88.501G85X137.166Y-88.501
G05
X132.366Y-88.513G85X137.166Y-88.513
G05
X132.366Y-66.201G85X137.166Y-66.201
G05
X132.366Y-66.213G85X137.166Y-66.213
G05
X132.366Y-70.001G85X137.166Y-70.001
G05
X132.366Y-70.013G85X137.166Y-70.013
G05
X132.366Y-47.701G85X137.166Y-47.701
G05
X132.366Y-47.713G85X137.166Y-47.713
G05
X132.366Y-51.501G85X137.166Y-51.501
G05
X132.366Y-51.513G85X137.166Y-51.513
G05
X137.166Y-84.701G85X137.166Y-88.501
G05
X137.166Y-84.713G85X137.166Y-88.513
G05
X137.166Y-66.201G85X137.166Y-70.001
G05
X137.166Y-66.213G85X137.166Y-70.013
G05
X137.166Y-47.701G85X137.166Y-51.501
G05
X137.166Y-47.713G85X137.166Y-51.513
G05
X150.866Y-92.701G85X150.866Y-96.501
G05
X150.866Y-92.713G85X150.866Y-96.513
G05
X150.866Y-74.201G85X150.866Y-78.001
G05
X150.866Y-74.213G85X150.866Y-78.013
G05
X150.866Y-55.701G85X150.866Y-59.501
G05
X150.866Y-55.713G85X150.866Y-59.513
G05
X150.866Y-92.701G85X155.666Y-92.701
G05
X150.866Y-92.713G85X155.666Y-92.713
G05
X150.866Y-96.501G85X155.666Y-96.501
G05
X150.866Y-96.513G85X155.666Y-96.513
G05
X150.866Y-74.201G85X155.666Y-74.201
G05
X150.866Y-74.213G85X155.666Y-74.213
G05
X150.866Y-78.001G85X155.666Y-78.001
G05
X150.866Y-78.013G85X155.666Y-78.013
G05
X150.866Y-55.701G85X155.666Y-55.701
G05
X150.866Y-55.713G85X155.666Y-55.713
G05
X150.866Y-59.501G85X155.666Y-59.501
G05
X150.866Y-59.513G85X155.666Y-59.513
G05
X155.666Y-92.701G85X155.666Y-96.501
G05
X155.666Y-92.713G85X155.666Y-96.513
G05
X155.666Y-74.201G85X155.666Y-78.001
G05
X155.666Y-74.213G85X155.666Y-78.013
G05
X155.666Y-55.701G85X155.666Y-59.501
G05
X155.666Y-55.713G85X155.666Y-59.513
G05
X157.912Y-119.201G85X157.912Y-123.001
G05
X157.912Y-119.213G85X157.912Y-123.013
G05
X157.912Y-119.201G85X162.712Y-119.201
G05
X157.912Y-119.213G85X162.712Y-119.213
G05
X157.912Y-123.001G85X162.712Y-123.001
G05
X157.912Y-123.013G85X162.712Y-123.013
G05
X162.712Y-119.201G85X162.712Y-123.001
G05
X162.712Y-119.213G85X162.712Y-123.013
G05
X169.366Y-59.701G85X169.366Y-63.501
G05
X169.366Y-59.713G85X169.366Y-63.513
G05
X169.366Y-78.201G85X169.366Y-82.001
G05
X169.366Y-78.213G85X169.366Y-82.013
G05
X169.366Y-96.701G85X169.366Y-100.501
G05
X169.366Y-96.713G85X169.366Y-100.513
G05
X169.366Y-59.701G85X174.166Y-59.701
G05
X169.366Y-59.713G85X174.166Y-59.713
G05
X169.366Y-63.501G85X174.166Y-63.501
G05
X169.366Y-63.513G85X174.166Y-63.513
G05
X169.366Y-78.201G85X174.166Y-78.201
G05
X169.366Y-78.213G85X174.166Y-78.213
G05
X169.366Y-82.001G85X174.166Y-82.001
G05
X169.366Y-82.013G85X174.166Y-82.013
G05
X169.366Y-96.701G85X174.166Y-96.701
G05
X169.366Y-96.713G85X174.166Y-96.713
G05
X169.366Y-100.501G85X174.166Y-100.501
G05
X169.366Y-100.513G85X174.166Y-100.513
G05
X174.166Y-59.701G85X174.166Y-63.501
G05
X174.166Y-59.713G85X174.166Y-63.513
G05
X174.166Y-78.201G85X174.166Y-82.001
G05
X174.166Y-78.213G85X174.166Y-82.013
G05
X174.166Y-96.701G85X174.166Y-100.501
G05
X174.166Y-96.713G85X174.166Y-100.513
G05
X178.586Y-121.303G85X177.602Y-124.974
G05
X178.589Y-121.291G85X177.606Y-124.962
G05
X177.602Y-124.974G85X182.239Y-126.216
G05
X177.606Y-124.962G85X182.242Y-126.204
G05
X178.586Y-121.303G85X183.222Y-122.545
G05
X178.589Y-121.291G85X183.225Y-122.534
G05
X183.222Y-122.545G85X182.239Y-126.216
G05
X183.225Y-122.534G85X182.242Y-126.204
G05
X198.015Y-128.673G85X196.115Y-131.964
G05
X198.021Y-128.662G85X196.121Y-131.953
G05
X196.115Y-131.964G85X200.272Y-134.364
G05
X196.121Y-131.953G85X200.278Y-134.353
G05
X198.015Y-128.673G85X202.172Y-131.073
G05
X198.021Y-128.662G85X202.178Y-131.062
G05
X202.172Y-131.073G85X200.272Y-134.364
G05
X202.178Y-131.062G85X200.278Y-134.353
G05
T4
X75.857Y-98.355G85X76.149Y-100.434
G05
X75.858Y-98.367G85X76.151Y-100.446
G05
X78.927Y-97.923G85X79.219Y-100.003
G05
X78.928Y-97.935G85X79.22Y-100.015
G05
X91.471Y-72.934G85X91.763Y-75.014
G05
X91.473Y-72.946G85X91.765Y-75.026
G05
X94.045Y-91.254G85X94.338Y-93.334
G05
X94.047Y-91.266G85X94.339Y-93.346
G05
X94.541Y-72.503G85X94.833Y-74.582
G05
X94.542Y-72.515G85X94.835Y-74.594
G05
X96.62Y-109.574G85X96.912Y-111.654
G05
X96.622Y-109.586G85X96.914Y-111.666
G05
X97.115Y-90.823G85X97.408Y-92.902
G05
X97.117Y-90.835G85X97.409Y-92.914
G05
X99.69Y-109.143G85X99.982Y-111.222
G05
X99.692Y-109.155G85X99.984Y-111.234
G05
X111.624Y-57.215G85X111.77Y-59.31
G05
X111.624Y-57.227G85X111.771Y-59.322
G05
X112.914Y-75.67G85X113.061Y-77.765
G05
X112.915Y-75.682G85X113.061Y-77.777
G05
X114.205Y-94.125G85X114.351Y-96.22
G05
X114.206Y-94.137G85X114.352Y-96.232
G05
X114.716Y-56.999G85X114.863Y-59.094
G05
X114.717Y-57.011G85X114.863Y-59.106
G05
X116.007Y-75.454G85X116.153Y-77.549
G05
X116.007Y-75.466G85X116.154Y-77.561
G05
X117.297Y-93.909G85X117.444Y-96.003
G05
X117.298Y-93.921G85X117.444Y-96.016
G05
X133.216Y-85.551G85X133.216Y-87.651
G05
X133.216Y-85.563G85X133.216Y-87.663
G05
X133.216Y-67.051G85X133.216Y-69.151
G05
X133.216Y-67.063G85X133.216Y-69.163
G05
X133.216Y-48.551G85X133.216Y-50.651
G05
X133.216Y-48.563G85X133.216Y-50.663
G05
X136.316Y-85.551G85X136.316Y-87.651
G05
X136.316Y-85.563G85X136.316Y-87.663
G05
X136.316Y-67.051G85X136.316Y-69.151
G05
X136.316Y-67.063G85X136.316Y-69.163
G05
X136.316Y-48.551G85X136.316Y-50.651
G05
X136.316Y-48.563G85X136.316Y-50.663
G05
X151.716Y-93.551G85X151.716Y-95.651
G05
X151.716Y-93.563G85X151.716Y-95.663
G05
X151.716Y-75.051G85X151.716Y-77.151
G05
X151.716Y-75.063G85X151.716Y-77.163
G05
X151.716Y-56.551G85X151.716Y-58.651
G05
X151.716Y-56.563G85X151.716Y-58.663
G05
X154.816Y-93.551G85X154.816Y-95.651
G05
X154.816Y-93.563G85X154.816Y-95.663
G05
X154.816Y-75.051G85X154.816Y-77.151
G05
X154.816Y-75.063G85X154.816Y-77.163
G05
X154.816Y-56.551G85X154.816Y-58.651
G05
X154.816Y-56.563G85X154.816Y-58.663
G05
X158.762Y-120.051G85X158.762Y-122.151
G05
X158.762Y-120.063G85X158.762Y-122.163
G05
X161.862Y-120.051G85X161.862Y-122.151
G05
X161.862Y-120.063G85X161.862Y-122.163
G05
X170.216Y-60.551G85X170.216Y-62.651
G05
X170.216Y-60.563G85X170.216Y-62.663
G05
X170.216Y-79.051G85X170.216Y-81.151
G05
X170.216Y-79.063G85X170.216Y-81.163
G05
X170.216Y-97.551G85X170.216Y-99.651
G05
X170.216Y-97.563G85X170.216Y-99.663
G05
X173.316Y-60.551G85X173.316Y-62.651
G05
X173.316Y-60.563G85X173.316Y-62.663
G05
X173.316Y-79.051G85X173.316Y-81.151
G05
X173.316Y-79.063G85X173.316Y-81.163
G05
X173.316Y-97.551G85X173.316Y-99.651
G05
X173.316Y-97.563G85X173.316Y-99.663
G05
X179.187Y-122.344G85X178.643Y-124.373
G05
X179.19Y-122.332G85X178.647Y-124.361
G05
X182.181Y-123.147G85X181.638Y-125.175
G05
X182.184Y-123.135G85X181.641Y-125.163
G05
X198.326Y-129.834G85X197.276Y-131.652
G05
X198.332Y-129.823G85X197.282Y-131.642
G05
X201.011Y-131.384G85X199.961Y-133.202
G05
X201.017Y-131.373G85X199.967Y-133.192
G05
T5
X77.043Y-99.248G85X78.033Y-99.109
G05
X77.044Y-99.26G85X78.035Y-99.121
G05
X92.657Y-73.828G85X93.647Y-73.689
G05
X92.658Y-73.84G85X93.649Y-73.701
G05
X95.231Y-92.148G85X96.222Y-92.009
G05
X95.233Y-92.16G85X96.223Y-92.021
G05
X97.806Y-110.468G85X98.796Y-110.328
G05
X97.808Y-110.48G85X98.798Y-110.341
G05
X112.744Y-58.189G85X113.742Y-58.119
G05
X112.745Y-58.201G85X113.743Y-58.132
G05
X114.035Y-76.644G85X115.032Y-76.574
G05
X114.036Y-76.656G85X115.033Y-76.587
G05
X115.325Y-95.099G85X116.323Y-95.029
G05
X115.326Y-95.111G85X116.324Y-95.042
G05
X134.266Y-86.601G85X135.266Y-86.601
G05
X134.266Y-86.613G85X135.266Y-86.613
G05
X134.266Y-68.101G85X135.266Y-68.101
G05
X134.266Y-68.113G85X135.266Y-68.113
G05
X134.266Y-49.601G85X135.266Y-49.601
G05
X134.266Y-49.613G85X135.266Y-49.613
G05
X152.766Y-94.601G85X153.766Y-94.601
G05
X152.766Y-94.613G85X153.766Y-94.613
G05
X152.766Y-76.101G85X153.766Y-76.101
G05
X152.766Y-76.113G85X153.766Y-76.113
G05
X152.766Y-57.601G85X153.766Y-57.601
G05
X152.766Y-57.613G85X153.766Y-57.613
G05
X159.812Y-121.101G85X160.812Y-121.101
G05
X159.812Y-121.113G85X160.812Y-121.113
G05
X171.266Y-61.601G85X172.266Y-61.601
G05
X171.266Y-61.613G85X172.266Y-61.613
G05
X171.266Y-80.101G85X172.266Y-80.101
G05
X171.266Y-80.113G85X172.266Y-80.113
G05
X171.266Y-98.601G85X172.266Y-98.601
G05
X171.266Y-98.613G85X172.266Y-98.613
G05
X179.929Y-123.63G85X180.895Y-123.889
G05
X179.933Y-123.618G85X180.898Y-123.877
G05
X198.71Y-131.268G85X199.576Y-131.768
G05
X198.717Y-131.257G85X199.583Y-131.757
G05
T0
M30
