M48
; DRILL file {KiCad (6.0.7-1)-1} date Saturday, January 14, 2023 at 03:29:41 AM
; FORMAT={-:-/ absolute / metric / decimal}
; #@! TF.CreationDate,2023-01-14T03:29:41-05:00
; #@! TF.GenerationSoftware,Kicad,Pcbnew,(6.0.7-1)-1
; #@! TF.FileFunction,Plated,1,2,PTH
FMAT,2
METRIC
; #@! TA.AperFunction,Plated,PTH,ComponentDrill
T1C0.300
; #@! TA.AperFunction,Plated,PTH,ViaDrill
T2C0.400
; #@! TA.AperFunction,Plated,PTH,ComponentDrill
T3C0.900
; #@! TA.AperFunction,Plated,PTH,ComponentDrill
T4C1.016
; #@! TA.AperFunction,Plated,PTH,ComponentDrill
T5C1.100
; #@! TA.AperFunction,Plated,PTH,ComponentDrill
T6C2.200
%
G90
G05
T1
X72.203Y-70.34
X72.557Y-72.855
X72.91Y-75.37
X73.264Y-77.886
X73.617Y-80.401
X73.971Y-82.916
X74.324Y-85.432
X74.807Y-70.615
X75.16Y-73.13
X75.514Y-75.646
X75.694Y-103.336
X75.867Y-78.161
X76.221Y-80.676
X76.574Y-83.192
X76.928Y-85.707
X80.349Y-102.682
X91.362Y-77.91
X93.994Y-96.236
X96.017Y-77.256
X96.494Y-114.636
X98.649Y-95.582
X101.149Y-113.982
X111.167Y-62.159
X112.458Y-80.614
X113.748Y-99.068
X115.856Y-61.831
X117.146Y-80.286
X118.437Y-98.741
X132.416Y-71.951
X132.416Y-53.451
X132.421Y-90.451
X137.116Y-71.951
X137.116Y-53.451
X137.121Y-90.451
X150.916Y-61.451
X150.916Y-79.951
X150.916Y-98.451
X155.616Y-61.451
X155.616Y-79.951
X155.616Y-98.451
X157.962Y-124.951
X162.662Y-124.951
X169.416Y-102.463
X169.416Y-83.951
X169.416Y-65.451
X174.116Y-102.463
X174.116Y-83.951
X174.116Y-65.451
X177.167Y-126.829
X181.707Y-128.045
X195.175Y-133.701
X199.246Y-136.051
T2
X76.738Y-65.97
X77.086Y-68.445
T4
X70.076Y-78.014
X78.875Y-76.777
T5
X73.644Y-95.901
X74.326Y-100.753
X80.376Y-94.942
X81.058Y-99.795
X89.258Y-70.48
X89.94Y-75.333
X91.832Y-88.8
X92.514Y-93.653
X94.407Y-107.12
X95.089Y-111.973
X95.99Y-69.522
X96.672Y-74.374
X98.565Y-87.842
X99.247Y-92.694
X101.139Y-106.162
X101.821Y-111.014
X109.587Y-54.613
X109.929Y-59.501
X110.878Y-73.068
X111.219Y-77.956
X112.168Y-91.523
X112.51Y-96.411
X116.37Y-54.126
X116.712Y-59.014
X117.66Y-72.581
X118.002Y-77.469
X118.951Y-91.036
X119.293Y-95.924
X131.366Y-82.813
X131.366Y-87.713
X131.366Y-64.313
X131.366Y-69.213
X131.366Y-45.813
X131.366Y-50.713
X138.166Y-82.801
X138.166Y-87.701
X138.166Y-64.301
X138.166Y-69.201
X138.166Y-45.801
X138.166Y-50.701
X149.866Y-90.813
X149.866Y-95.713
X149.866Y-72.313
X149.866Y-77.213
X149.866Y-53.813
X149.866Y-58.713
X156.666Y-90.801
X156.666Y-95.701
X156.666Y-72.301
X156.666Y-77.201
X156.666Y-53.801
X156.666Y-58.701
X156.912Y-117.313
X156.912Y-122.213
X163.712Y-117.301
X163.712Y-122.201
X168.366Y-57.813
X168.366Y-62.713
X168.366Y-76.313
X168.366Y-81.213
X168.366Y-94.813
X168.366Y-99.713
X175.166Y-57.801
X175.166Y-62.701
X175.166Y-76.301
X175.166Y-81.201
X175.166Y-94.801
X175.166Y-99.701
X176.844Y-123.942
X178.112Y-119.209
X183.415Y-125.69
X184.683Y-120.957
X195.649Y-130.771
X198.099Y-126.527
X201.544Y-134.16
X203.994Y-129.916
T6
X87.848Y-107.506
X102.748Y-63.306
X105.909Y-85.471
X124.283Y-65.768
X124.674Y-84.603
X143.724Y-65.553
X143.986Y-84.141
X147.421Y-43.509
X162.774Y-84.603
X177.548Y-109.406
T3
X152.521Y-41.159G85X151.921Y-41.159
G05
X152.521Y-45.759G85X151.921Y-45.759
G05
X153.621Y-41.159G85X153.021Y-41.159
G05
X153.621Y-45.759G85X153.021Y-45.759
G05
X157.621Y-41.159G85X157.021Y-41.159
G05
X157.621Y-45.759G85X157.021Y-45.759
G05
X160.621Y-41.159G85X160.021Y-41.159
G05
X160.621Y-45.759G85X160.021Y-45.759
G05
T0
M30
