G04 #@! TF.GenerationSoftware,KiCad,Pcbnew,(6.0.7-1)-1*
G04 #@! TF.CreationDate,2023-01-14T03:29:51-05:00*
G04 #@! TF.ProjectId,musubi_rev2,6d757375-6269-45f7-9265-76322e6b6963,rev?*
G04 #@! TF.SameCoordinates,Original*
G04 #@! TF.FileFunction,Legend,Top*
G04 #@! TF.FilePolarity,Positive*
%FSLAX46Y46*%
G04 Gerber Fmt 4.6, Leading zero omitted, Abs format (unit mm)*
G04 Created by KiCad (PCBNEW (6.0.7-1)-1) date 2023-01-14 03:29:51*
%MOMM*%
%LPD*%
G01*
G04 APERTURE LIST*
G04 Aperture macros list*
%AMHorizOval*
0 Thick line with rounded ends*
0 $1 width*
0 $2 $3 position (X,Y) of the first rounded end (center of the circle)*
0 $4 $5 position (X,Y) of the second rounded end (center of the circle)*
0 Add line between two ends*
20,1,$1,$2,$3,$4,$5,0*
0 Add two circle primitives to create the rounded ends*
1,1,$1,$2,$3*
1,1,$1,$4,$5*%
%AMRotRect*
0 Rectangle, with rotation*
0 The origin of the aperture is its center*
0 $1 length*
0 $2 width*
0 $3 Rotation angle, in degrees counterclockwise*
0 Add horizontal line*
21,1,$1,$2,0,0,$3*%
G04 Aperture macros list end*
%ADD10C,0.100000*%
%ADD11C,0.150000*%
%ADD12C,0.200000*%
%ADD13R,1.200000X1.200000*%
%ADD14O,0.300000X4.100000*%
%ADD15C,1.300000*%
%ADD16O,5.100000X0.300000*%
%ADD17O,2.000000X4.100000*%
%ADD18O,5.100000X4.100000*%
%ADD19C,1.600000*%
%ADD20C,1.400000*%
%ADD21RotRect,1.200000X1.200000X184.000000*%
%ADD22C,1.500000*%
%ADD23O,2.200000X1.600000*%
%ADD24HorizOval,0.300000X2.376643X0.334015X-2.376643X-0.334015X0*%
%ADD25HorizOval,0.300000X-0.264429X1.881509X0.264429X-1.881509X0*%
%ADD26HorizOval,4.100000X0.495134X0.069587X-0.495134X-0.069587X0*%
%ADD27HorizOval,2.000000X-0.146132X1.039781X0.146132X-1.039781X0*%
%ADD28RotRect,1.200000X1.200000X188.000000*%
%ADD29C,4.400000*%
%ADD30C,2.600000*%
%ADD31HorizOval,0.300000X2.394154X0.167416X-2.394154X-0.167416X0*%
%ADD32HorizOval,0.300000X-0.132537X1.895372X0.132537X-1.895372X0*%
%ADD33HorizOval,2.000000X-0.073244X1.047442X0.073244X-1.047442X0*%
%ADD34HorizOval,4.100000X0.498782X0.034878X-0.498782X-0.034878X0*%
%ADD35HorizOval,2.000000X-0.525000X-0.909327X0.525000X0.909327X0*%
%ADD36HorizOval,0.300000X2.078461X-1.200000X-2.078461X1.200000X0*%
%ADD37HorizOval,4.100000X0.433013X-0.250000X-0.433013X0.250000X0*%
%ADD38HorizOval,0.300000X-0.950000X-1.645448X0.950000X1.645448X0*%
%ADD39HorizOval,1.800000X0.470377X0.066107X-0.470377X-0.066107X0*%
%ADD40HorizOval,1.800000X-0.470377X-0.066107X0.470377X0.066107X0*%
%ADD41C,1.397000*%
%ADD42RotRect,1.200000X1.200000X165.000000*%
%ADD43RotRect,1.200000X1.200000X150.000000*%
%ADD44HorizOval,0.300000X2.318222X-0.621166X-2.318222X0.621166X0*%
%ADD45HorizOval,4.100000X0.482963X-0.129410X-0.482963X0.129410X0*%
%ADD46HorizOval,0.300000X-0.491756X-1.835259X0.491756X1.835259X0*%
%ADD47HorizOval,2.000000X-0.271760X-1.014222X0.271760X1.014222X0*%
G04 APERTURE END LIST*
D10*
X153016364Y-98850848D02*
X153016364Y-98050848D01*
X153616364Y-98450848D02*
X153616364Y-99000848D01*
X153616364Y-98450848D02*
X153616364Y-97900848D01*
X153016364Y-98450848D02*
X152516364Y-98450848D01*
X154016364Y-98450848D02*
X153616364Y-98450848D01*
X153016364Y-98050848D02*
X153616364Y-98450848D01*
X153616364Y-98450848D02*
X153016364Y-98850848D01*
D11*
X160666363Y-49713410D02*
X160666363Y-50713410D01*
X146866363Y-63713410D02*
X145866363Y-63713410D01*
X159666355Y-63713246D02*
X160666355Y-63713246D01*
X145866363Y-49713410D02*
X146866363Y-49713410D01*
X145866355Y-62713246D02*
X145866355Y-63713246D01*
X145866363Y-50713410D02*
X145866363Y-49713410D01*
X160666355Y-49713246D02*
X159666355Y-49713246D01*
X160666355Y-63713246D02*
X160666355Y-62713246D01*
D10*
X116441821Y-98880143D02*
X116403455Y-98331483D01*
X115815380Y-98522971D02*
X116441821Y-98880143D01*
X116441821Y-98880143D02*
X116480187Y-99428803D01*
X115871186Y-99321023D02*
X115815380Y-98522971D01*
X115843283Y-98921997D02*
X115344501Y-98956875D01*
X116840847Y-98852241D02*
X116441821Y-98880143D01*
X116441821Y-98880143D02*
X115871186Y-99321023D01*
X135516439Y-53450910D02*
X135116439Y-53450910D01*
X134516439Y-53450910D02*
X134016439Y-53450910D01*
X135116439Y-53450910D02*
X134516439Y-53850910D01*
X134516439Y-53850910D02*
X134516439Y-53050910D01*
X135116439Y-53450910D02*
X135116439Y-52900910D01*
X134516439Y-53050910D02*
X135116439Y-53450910D01*
X135116439Y-53450910D02*
X135116439Y-54000910D01*
X172116327Y-65450912D02*
X172116327Y-66000912D01*
X172116327Y-65450912D02*
X172116327Y-64900912D01*
X171516327Y-65050912D02*
X172116327Y-65450912D01*
X172516327Y-65450912D02*
X172116327Y-65450912D01*
X171516327Y-65850912D02*
X171516327Y-65050912D01*
X171516327Y-65450912D02*
X171016327Y-65450912D01*
X172116327Y-65450912D02*
X171516327Y-65850912D01*
D11*
X167711596Y-113213119D02*
X166711596Y-113213119D01*
X167711604Y-113213283D02*
X167711604Y-114213283D01*
X152911604Y-114213283D02*
X152911604Y-113213283D01*
X167711596Y-127213119D02*
X167711596Y-126213119D01*
X152911596Y-126213119D02*
X152911596Y-127213119D01*
X166711596Y-127213119D02*
X167711596Y-127213119D01*
X152911604Y-113213283D02*
X153911604Y-113213283D01*
X153911604Y-127213283D02*
X152911604Y-127213283D01*
X89875497Y-103617045D02*
X90865765Y-103477872D01*
X105489589Y-115560048D02*
X106479857Y-115420875D01*
X90014670Y-104607313D02*
X89875497Y-103617045D01*
X92814189Y-117341625D02*
X91823921Y-117480798D01*
X106479857Y-115420875D02*
X106340684Y-114430607D01*
X104531434Y-101557122D02*
X103541166Y-101696295D01*
X104531465Y-101557283D02*
X104670638Y-102547551D01*
X91684717Y-116490368D02*
X91823890Y-117480636D01*
D10*
X99167978Y-114260231D02*
X98629486Y-114739843D01*
X99564085Y-114204562D02*
X99167978Y-114260231D01*
X99167978Y-114260231D02*
X99244523Y-114804879D01*
X99167978Y-114260231D02*
X99091433Y-113715584D01*
X98573817Y-114343735D02*
X98078683Y-114413322D01*
X98629486Y-114739843D02*
X98518148Y-113947628D01*
X98518148Y-113947628D02*
X99167978Y-114260231D01*
X171516324Y-83550865D02*
X172116324Y-83950865D01*
X172116324Y-83950865D02*
X172116324Y-84500865D01*
X172116324Y-83950865D02*
X172116324Y-83400865D01*
X172516324Y-83950865D02*
X172116324Y-83950865D01*
X172116324Y-83950865D02*
X171516324Y-84350865D01*
X171516324Y-83950865D02*
X171016324Y-83950865D01*
X171516324Y-84350865D02*
X171516324Y-83550865D01*
G36*
X75836595Y-87776356D02*
G01*
X75663884Y-87800629D01*
X75562330Y-87078029D01*
X75738451Y-87078029D01*
X75773809Y-87329612D01*
X75913129Y-87310032D01*
X75969681Y-87293645D01*
X76009224Y-87262770D01*
X76030462Y-87219643D01*
X76032094Y-87166504D01*
X76016231Y-87114723D01*
X75985308Y-87077974D01*
X75939054Y-87058496D01*
X75877196Y-87058530D01*
X75738451Y-87078029D01*
X75562330Y-87078029D01*
X75546080Y-86962407D01*
X75857535Y-86918635D01*
X75950042Y-86913136D01*
X76029520Y-86924470D01*
X76095969Y-86952638D01*
X76147803Y-86996560D01*
X76183434Y-87055152D01*
X76202862Y-87128414D01*
X76204634Y-87208375D01*
X76185836Y-87276695D01*
X76146364Y-87334712D01*
X76086111Y-87383762D01*
X76315598Y-87700818D01*
X76316730Y-87708878D01*
X76131354Y-87734931D01*
X75931063Y-87450169D01*
X75793470Y-87469507D01*
X75836595Y-87776356D01*
G37*
G36*
X78032978Y-87469175D02*
G01*
X77958892Y-87448863D01*
X77896311Y-87406453D01*
X77846129Y-87343188D01*
X77809237Y-87260311D01*
X77785636Y-87157825D01*
X77763952Y-87003536D01*
X77756914Y-86894743D01*
X77761441Y-86859316D01*
X77921787Y-86859316D01*
X77925233Y-86943884D01*
X77953875Y-87147683D01*
X77973406Y-87236007D01*
X78003197Y-87296032D01*
X78044787Y-87328273D01*
X78099718Y-87333248D01*
X78150572Y-87313920D01*
X78181085Y-87273086D01*
X78193170Y-87209745D01*
X78188742Y-87122893D01*
X78160748Y-86923701D01*
X78140971Y-86834676D01*
X78110931Y-86776008D01*
X78069439Y-86745514D01*
X78015310Y-86741013D01*
X77965876Y-86759481D01*
X77935018Y-86798383D01*
X77921787Y-86859316D01*
X77761441Y-86859316D01*
X77768703Y-86802481D01*
X77799317Y-86726751D01*
X77847899Y-86668391D01*
X77913585Y-86628241D01*
X77996377Y-86606299D01*
X78081965Y-86604479D01*
X78156037Y-86624694D01*
X78218595Y-86666945D01*
X78268755Y-86730050D01*
X78305633Y-86812831D01*
X78329229Y-86915286D01*
X78350913Y-87069573D01*
X78357931Y-87177522D01*
X78346404Y-87269551D01*
X78316331Y-87345662D01*
X78268128Y-87404621D01*
X78202207Y-87445196D01*
X78118570Y-87467387D01*
X78032978Y-87469175D01*
G37*
G36*
X73602871Y-88090286D02*
G01*
X73430160Y-88114559D01*
X73312356Y-87276336D01*
X73485067Y-87252063D01*
X73602871Y-88090286D01*
G37*
G36*
X74822852Y-87924895D02*
G01*
X74758522Y-87916911D01*
X74697617Y-87897095D01*
X74641848Y-87866024D01*
X74592928Y-87824270D01*
X74550856Y-87771834D01*
X74516698Y-87710262D01*
X74491518Y-87641101D01*
X74475318Y-87564352D01*
X74469492Y-87522902D01*
X74463315Y-87442981D01*
X74465163Y-87413374D01*
X74638244Y-87413374D01*
X74643939Y-87494275D01*
X74649684Y-87535150D01*
X74666059Y-87613604D01*
X74691126Y-87677789D01*
X74724886Y-87727708D01*
X74789920Y-87772726D01*
X74870704Y-87779425D01*
X74945163Y-87751568D01*
X74994679Y-87692434D01*
X75013282Y-87636362D01*
X75019700Y-87567849D01*
X75013932Y-87486894D01*
X75008188Y-87446018D01*
X74991579Y-87365901D01*
X74966457Y-87301332D01*
X74932823Y-87252309D01*
X74868320Y-87208978D01*
X74788481Y-87202733D01*
X74713857Y-87230467D01*
X74663849Y-87289230D01*
X74644881Y-87345026D01*
X74638244Y-87413374D01*
X74465163Y-87413374D01*
X74467980Y-87368257D01*
X74483484Y-87298728D01*
X74509187Y-87236082D01*
X74544445Y-87182009D01*
X74589255Y-87136507D01*
X74642221Y-87100525D01*
X74701941Y-87075009D01*
X74768415Y-87059959D01*
X74836463Y-87056103D01*
X74900903Y-87064169D01*
X74961735Y-87084159D01*
X75017352Y-87115546D01*
X75066147Y-87157806D01*
X75108122Y-87210941D01*
X75142182Y-87273438D01*
X75167235Y-87343791D01*
X75183282Y-87421997D01*
X75188541Y-87459419D01*
X75194800Y-87539229D01*
X75190383Y-87613625D01*
X75175291Y-87682608D01*
X75150005Y-87744737D01*
X75115009Y-87798579D01*
X75070303Y-87844131D01*
X75017296Y-87880282D01*
X74957398Y-87905921D01*
X74890608Y-87921047D01*
X74822852Y-87924895D01*
G37*
G36*
X76589038Y-87670607D02*
G01*
X76416328Y-87694880D01*
X76314773Y-86972280D01*
X76490895Y-86972280D01*
X76527871Y-87235376D01*
X76682158Y-87213693D01*
X76741402Y-87197148D01*
X76782117Y-87166768D01*
X76803601Y-87123828D01*
X76805153Y-87069599D01*
X76788257Y-87015175D01*
X76754886Y-86975100D01*
X76707663Y-86952383D01*
X76649212Y-86950030D01*
X76490895Y-86972280D01*
X76314773Y-86972280D01*
X76298523Y-86856658D01*
X76625521Y-86810701D01*
X76715465Y-86806866D01*
X76796466Y-86821901D01*
X76865742Y-86854801D01*
X76920508Y-86904563D01*
X76958995Y-86968503D01*
X76979429Y-87043932D01*
X76980788Y-87121593D01*
X76961776Y-87190311D01*
X76922396Y-87250084D01*
X76864524Y-87298498D01*
X76790039Y-87333134D01*
X76698941Y-87353993D01*
X76547532Y-87375272D01*
X76589038Y-87670607D01*
G37*
G36*
X73909051Y-87871133D02*
G01*
X73875753Y-88051935D01*
X73692105Y-88077745D01*
X73769846Y-87724684D01*
X73936022Y-87724684D01*
X74145578Y-87695233D01*
X73996128Y-87396281D01*
X73936022Y-87724684D01*
X73769846Y-87724684D01*
X73886331Y-87195669D01*
X74046376Y-87173176D01*
X74477938Y-87967303D01*
X74294289Y-87993113D01*
X74211871Y-87828574D01*
X73955683Y-87864579D01*
X73909051Y-87871133D01*
G37*
G36*
X73022473Y-87740944D02*
G01*
X73332291Y-88128313D01*
X73131371Y-88156551D01*
X72928910Y-87885597D01*
X72808978Y-88201860D01*
X72608058Y-88230098D01*
X72799101Y-87772337D01*
X72496586Y-87390985D01*
X72695203Y-87363071D01*
X72892986Y-87629986D01*
X73009537Y-87318895D01*
X73208154Y-87290981D01*
X73022473Y-87740944D01*
G37*
G36*
X79385878Y-87279038D02*
G01*
X79311791Y-87258726D01*
X79249211Y-87216316D01*
X79199028Y-87153050D01*
X79162137Y-87070174D01*
X79138536Y-86967687D01*
X79116852Y-86813398D01*
X79109814Y-86704605D01*
X79114340Y-86669178D01*
X79274687Y-86669178D01*
X79278133Y-86753747D01*
X79306775Y-86957545D01*
X79326306Y-87045869D01*
X79356097Y-87105894D01*
X79397687Y-87138135D01*
X79452617Y-87143111D01*
X79503471Y-87123782D01*
X79533984Y-87082948D01*
X79546070Y-87019607D01*
X79541643Y-86932755D01*
X79513648Y-86733563D01*
X79493872Y-86644538D01*
X79463831Y-86585870D01*
X79422340Y-86555377D01*
X79368210Y-86550875D01*
X79318777Y-86569344D01*
X79287918Y-86608245D01*
X79274687Y-86669178D01*
X79114340Y-86669178D01*
X79121602Y-86612344D01*
X79152218Y-86536614D01*
X79200798Y-86478254D01*
X79266486Y-86438103D01*
X79349278Y-86416161D01*
X79434864Y-86414341D01*
X79508937Y-86434557D01*
X79571495Y-86476807D01*
X79621655Y-86539913D01*
X79658533Y-86622693D01*
X79682129Y-86725148D01*
X79703813Y-86879436D01*
X79710831Y-86987385D01*
X79699303Y-87079414D01*
X79669231Y-87155525D01*
X79621027Y-87214483D01*
X79555107Y-87255058D01*
X79471469Y-87277249D01*
X79385878Y-87279038D01*
G37*
G36*
X78468549Y-87221531D02*
G01*
X78446340Y-87117805D01*
X78470153Y-87065143D01*
X78608015Y-87065143D01*
X78793392Y-87039090D01*
X78751804Y-86743179D01*
X78743536Y-86763714D01*
X78608015Y-87065143D01*
X78470153Y-87065143D01*
X78718199Y-86516595D01*
X78886303Y-86492969D01*
X78959769Y-87015707D01*
X79054761Y-87002357D01*
X79073613Y-87136495D01*
X78978621Y-87149846D01*
X79004108Y-87331191D01*
X78837730Y-87354574D01*
X78812244Y-87173228D01*
X78626867Y-87199281D01*
X78468549Y-87221531D01*
G37*
G36*
X77465050Y-86709151D02*
G01*
X77524117Y-86736075D01*
X77570561Y-86777622D01*
X77602679Y-86832794D01*
X77620468Y-86901590D01*
X77621228Y-86965475D01*
X77606030Y-87032776D01*
X77572086Y-87108728D01*
X77516612Y-87198569D01*
X77354292Y-87426270D01*
X77714682Y-87375620D01*
X77733534Y-87509759D01*
X77158983Y-87590507D01*
X77142963Y-87476518D01*
X77373501Y-87149407D01*
X77414047Y-87085441D01*
X77441146Y-87031292D01*
X77455781Y-86941174D01*
X77441719Y-86892294D01*
X77415232Y-86857344D01*
X77330144Y-86836720D01*
X77281063Y-86853524D01*
X77246659Y-86888080D01*
X77228584Y-86936485D01*
X77228494Y-86994839D01*
X77061539Y-87018303D01*
X77060383Y-86943760D01*
X77078436Y-86873269D01*
X77114609Y-86810578D01*
X77167818Y-86759437D01*
X77235268Y-86722439D01*
X77314170Y-86702177D01*
X77395068Y-86697852D01*
X77465050Y-86709151D01*
G37*
D11*
X108798755Y-100680003D02*
X108868512Y-101677567D01*
X107961697Y-88709397D02*
X107891941Y-87711833D01*
X107891941Y-87711833D02*
X108889505Y-87642077D01*
X122655889Y-86679437D02*
X122725645Y-87677001D01*
X122655869Y-86679274D02*
X121658305Y-86749031D01*
X109866095Y-101607973D02*
X108868531Y-101677730D01*
X122634896Y-100714927D02*
X123632460Y-100645171D01*
X123632460Y-100645171D02*
X123562703Y-99647607D01*
X196684849Y-120976540D02*
X197550874Y-121476540D01*
X201636075Y-140000750D02*
X202502100Y-140500750D01*
X190550874Y-133600896D02*
X189684849Y-133100896D01*
X196184849Y-121842566D02*
X196684849Y-120976540D01*
X209502100Y-128376394D02*
X208636075Y-127876394D01*
X209502025Y-128376540D02*
X209002025Y-129242566D01*
X202502100Y-140500750D02*
X203002100Y-139634725D01*
X190184924Y-132234725D02*
X189684924Y-133100750D01*
X72050686Y-106122125D02*
X71060418Y-106261298D01*
X70921214Y-105270868D02*
X71060387Y-106261136D01*
X84726086Y-104340548D02*
X85716354Y-104201375D01*
X83767931Y-90337622D02*
X82777663Y-90476795D01*
X69251167Y-93387813D02*
X69111994Y-92397545D01*
X83767962Y-90337783D02*
X83907135Y-91328051D01*
X69111994Y-92397545D02*
X70102262Y-92258372D01*
X85716354Y-104201375D02*
X85577181Y-103211107D01*
D12*
X144852184Y-73867118D02*
G75*
G03*
X143723799Y-73807981I-1128385J-10735763D01*
G01*
X150731846Y-65316847D02*
G75*
G03*
X146581299Y-64282981I-7008047J-19286134D01*
G01*
X164043799Y-81745481D02*
G75*
G03*
X163009934Y-77594936I-20320019J-2857506D01*
G01*
X163009934Y-91611027D02*
G75*
G03*
X164043799Y-87460481I-19286185J7008058D01*
G01*
X123403799Y-87460481D02*
G75*
G03*
X124437665Y-91611028I20319953J2857490D01*
G01*
X142595414Y-95338845D02*
G75*
G03*
X143723799Y-95397981I1128379J10735785D01*
G01*
X136715753Y-103889116D02*
G75*
G03*
X140866299Y-104922981I7008046J19286135D01*
G01*
X146581299Y-104922981D02*
G75*
G03*
X150731846Y-103889115I-2857500J20320000D01*
G01*
X140866299Y-64282981D02*
G75*
G03*
X136715751Y-65316847I2857496J-20319983D01*
G01*
X143723799Y-95397982D02*
G75*
G03*
X144852184Y-95338845I0J10794901D01*
G01*
X143723799Y-73807981D02*
G75*
G03*
X142595414Y-73867117I-6J-10794921D01*
G01*
X124437665Y-77594933D02*
G75*
G03*
X123403799Y-81745481I19286117J-7008044D01*
G01*
D11*
X164366325Y-91713328D02*
X164366325Y-90713328D01*
X164366317Y-103713164D02*
X164366317Y-104713164D01*
X179166325Y-90713328D02*
X179166325Y-91713328D01*
X178166317Y-104713164D02*
X179166317Y-104713164D01*
X179166317Y-104713164D02*
X179166317Y-103713164D01*
X179166317Y-90713164D02*
X178166317Y-90713164D01*
X165366325Y-104713328D02*
X164366325Y-104713328D01*
X164366325Y-90713328D02*
X165366325Y-90713328D01*
D10*
X135121404Y-90450920D02*
X134521404Y-90850920D01*
X135521404Y-90450920D02*
X135121404Y-90450920D01*
X134521404Y-90450920D02*
X134021404Y-90450920D01*
X134521404Y-90050920D02*
X135121404Y-90450920D01*
X135121404Y-90450920D02*
X135121404Y-89900920D01*
X134521404Y-90850920D02*
X134521404Y-90050920D01*
X135121404Y-90450920D02*
X135121404Y-91000920D01*
X113860801Y-61970323D02*
X113899167Y-62518983D01*
X113262263Y-62012177D02*
X112763481Y-62047055D01*
X113860801Y-61970323D02*
X113290166Y-62411203D01*
X114259827Y-61942421D02*
X113860801Y-61970323D01*
X113290166Y-62411203D02*
X113234360Y-61613151D01*
X113860801Y-61970323D02*
X113822435Y-61421663D01*
X113234360Y-61613151D02*
X113860801Y-61970323D01*
D11*
X142166440Y-41713425D02*
X142166440Y-42713425D01*
X142166432Y-41713261D02*
X141166432Y-41713261D01*
X141166432Y-55713261D02*
X142166432Y-55713261D01*
X128366440Y-55713425D02*
X127366440Y-55713425D01*
X127366440Y-42713425D02*
X127366440Y-41713425D01*
X127366440Y-41713425D02*
X128366440Y-41713425D01*
X142166432Y-55713261D02*
X142166432Y-54713261D01*
X127366432Y-54713261D02*
X127366432Y-55713261D01*
X87439969Y-86287389D02*
X87300796Y-85297121D01*
X102914888Y-97240124D02*
X103905156Y-97100951D01*
X90239488Y-99021701D02*
X89249220Y-99160874D01*
X101956733Y-83237198D02*
X100966465Y-83376371D01*
X89110016Y-98170444D02*
X89249189Y-99160712D01*
X101956764Y-83237359D02*
X102095937Y-84227627D01*
X103905156Y-97100951D02*
X103765983Y-96110683D01*
X87300796Y-85297121D02*
X88291064Y-85157948D01*
X142166406Y-74213247D02*
X142166406Y-73213247D01*
X141166406Y-74213247D02*
X142166406Y-74213247D01*
X142166414Y-60213411D02*
X142166414Y-61213411D01*
X142166406Y-60213247D02*
X141166406Y-60213247D01*
X127366414Y-60213411D02*
X128366414Y-60213411D01*
X128366414Y-74213411D02*
X127366414Y-74213411D01*
X127366414Y-61213411D02*
X127366414Y-60213411D01*
X127366406Y-73213247D02*
X127366406Y-74213247D01*
X84786185Y-86869509D02*
X84647012Y-85879241D01*
X81863550Y-66073879D02*
X80873282Y-66213053D01*
X67179218Y-89344007D02*
X67040045Y-88353739D01*
X81863550Y-66073879D02*
X82002723Y-67064147D01*
X64256583Y-68548377D02*
X64395756Y-69538645D01*
X84786185Y-86869509D02*
X83795917Y-87008682D01*
X67179218Y-89344007D02*
X68169486Y-89204833D01*
X64256583Y-68548377D02*
X65246851Y-68409204D01*
G36*
X75592089Y-67658487D02*
G01*
X75633581Y-67701351D01*
X75655366Y-67772232D01*
X75654319Y-67850330D01*
X75625990Y-67905410D01*
X75571324Y-67941347D01*
X75491269Y-67962017D01*
X75412666Y-67973064D01*
X75368479Y-67658653D01*
X75415874Y-67647984D01*
X75463712Y-67640461D01*
X75534321Y-67639554D01*
X75592089Y-67658487D01*
G37*
G36*
X72541557Y-68999980D02*
G01*
X71854570Y-69096529D01*
X70603218Y-69272395D01*
X70603087Y-69272414D01*
X70489700Y-69277117D01*
X70377572Y-69259609D01*
X70271015Y-69220562D01*
X70174123Y-69161476D01*
X70090620Y-69084624D01*
X70023714Y-68992958D01*
X69975978Y-68890000D01*
X69949245Y-68779708D01*
X69944542Y-68666320D01*
X69962050Y-68554192D01*
X70001097Y-68447636D01*
X70060182Y-68350744D01*
X70137035Y-68267240D01*
X70210857Y-68213358D01*
X70454380Y-68213358D01*
X70591140Y-69186457D01*
X70784503Y-69159282D01*
X70774474Y-69087919D01*
X71292275Y-69087919D01*
X71493497Y-69059639D01*
X71505921Y-68828650D01*
X71765310Y-68792195D01*
X71842493Y-69010591D01*
X72050003Y-68981427D01*
X72008560Y-68874746D01*
X71967251Y-68771316D01*
X71926080Y-68671137D01*
X71885044Y-68574210D01*
X71844146Y-68480533D01*
X71794861Y-68370611D01*
X72030287Y-68370611D01*
X72038107Y-68486138D01*
X72061028Y-68600043D01*
X72095549Y-68698090D01*
X72141666Y-68780281D01*
X72199383Y-68846614D01*
X72292837Y-68908290D01*
X72403826Y-68937579D01*
X72532351Y-68934478D01*
X72617479Y-68917104D01*
X72690504Y-68890609D01*
X72794815Y-68828658D01*
X72724651Y-68683017D01*
X72650123Y-68728761D01*
X72527576Y-68763617D01*
X72412250Y-68757182D01*
X72327233Y-68701198D01*
X72285818Y-68637818D01*
X72254724Y-68555354D01*
X72233951Y-68453805D01*
X72226884Y-68365024D01*
X72232637Y-68290473D01*
X72273188Y-68179770D01*
X72342485Y-68113923D01*
X72428987Y-68084933D01*
X72548425Y-68084980D01*
X72641307Y-68112805D01*
X72669961Y-67951674D01*
X72635082Y-67937339D01*
X72579105Y-67921160D01*
X72503242Y-67911783D01*
X72408491Y-67916282D01*
X72317517Y-67937684D01*
X72236385Y-67974937D01*
X72166781Y-68027201D01*
X72110392Y-68093639D01*
X72068115Y-68173524D01*
X72040852Y-68266128D01*
X72030287Y-68370611D01*
X71794861Y-68370611D01*
X71793286Y-68367098D01*
X71742783Y-68256919D01*
X71692639Y-68149996D01*
X71642850Y-68046330D01*
X71432196Y-68075935D01*
X71414015Y-68188252D01*
X71395674Y-68303699D01*
X71377170Y-68422273D01*
X71358505Y-68543977D01*
X71343858Y-68644626D01*
X71329913Y-68749345D01*
X71316666Y-68858133D01*
X71304121Y-68970991D01*
X71292275Y-69087919D01*
X70774474Y-69087919D01*
X70725955Y-68742689D01*
X71078094Y-68693199D01*
X71055558Y-68532850D01*
X70703419Y-68582340D01*
X70670279Y-68346532D01*
X71072723Y-68289972D01*
X71050188Y-68129623D01*
X70454380Y-68213358D01*
X70210857Y-68213358D01*
X70228700Y-68200335D01*
X70331659Y-68152598D01*
X70441951Y-68125866D01*
X70442081Y-68125847D01*
X72177485Y-67881952D01*
X72812456Y-67881952D01*
X72949216Y-68855051D01*
X73573321Y-68767339D01*
X73550785Y-68606990D01*
X73120043Y-68667526D01*
X73081600Y-68393990D01*
X73425879Y-68345604D01*
X73403343Y-68185255D01*
X73059065Y-68233641D01*
X73028354Y-68015126D01*
X73424511Y-67959450D01*
X73401976Y-67799101D01*
X72812456Y-67881952D01*
X72177485Y-67881952D01*
X73711808Y-67666317D01*
X74346777Y-67666317D01*
X74434048Y-68287277D01*
X74449356Y-68367685D01*
X74471420Y-68439128D01*
X74501647Y-68500207D01*
X74541440Y-68549521D01*
X74653332Y-68609943D01*
X74727398Y-68619371D01*
X74814969Y-68613677D01*
X74902092Y-68594820D01*
X74971672Y-68565203D01*
X75025391Y-68525390D01*
X75064933Y-68475949D01*
X75090772Y-68417411D01*
X75103384Y-68350312D01*
X75104901Y-68275554D01*
X75097453Y-68194041D01*
X75010183Y-67573082D01*
X74816821Y-67600257D01*
X74902103Y-68207069D01*
X74910286Y-68310921D01*
X74897777Y-68381612D01*
X74860524Y-68424522D01*
X74794473Y-68445026D01*
X74725327Y-68443522D01*
X74678587Y-68413219D01*
X74647974Y-68349390D01*
X74627214Y-68247304D01*
X74541712Y-67638921D01*
X74346777Y-67666317D01*
X73711808Y-67666317D01*
X74431927Y-67565111D01*
X75158151Y-67565111D01*
X75293144Y-68525633D01*
X75486506Y-68498458D01*
X75440330Y-68169900D01*
X75509500Y-68160179D01*
X75624530Y-68135195D01*
X75718089Y-68095595D01*
X75790180Y-68041378D01*
X75838584Y-67970718D01*
X75861087Y-67881790D01*
X75857689Y-67774593D01*
X75831642Y-67671647D01*
X75785909Y-67593377D01*
X75720486Y-67539784D01*
X75637153Y-67508300D01*
X75537686Y-67496363D01*
X75422086Y-67503970D01*
X75360996Y-67514160D01*
X75290807Y-67528031D01*
X75220273Y-67545158D01*
X75158151Y-67565111D01*
X74431927Y-67565111D01*
X75801202Y-67372672D01*
X75801333Y-67372653D01*
X75914721Y-67367950D01*
X76026849Y-67385458D01*
X76133405Y-67424506D01*
X76230297Y-67483591D01*
X76313801Y-67560443D01*
X76380706Y-67652109D01*
X76428443Y-67755067D01*
X76455175Y-67865359D01*
X76459879Y-67978747D01*
X76442371Y-68090875D01*
X76403323Y-68197431D01*
X76344238Y-68294323D01*
X76267386Y-68377827D01*
X76175720Y-68444732D01*
X76072762Y-68492469D01*
X75962470Y-68519202D01*
X75962339Y-68519220D01*
X75498584Y-68584397D01*
X74824174Y-68679179D01*
X72961294Y-68940989D01*
X72541557Y-68999980D01*
G37*
G36*
X71599072Y-68322268D02*
G01*
X71637922Y-68416200D01*
X71672733Y-68509899D01*
X71705737Y-68607859D01*
X71515520Y-68634593D01*
X71521031Y-68531220D01*
X71529451Y-68431445D01*
X71540906Y-68330442D01*
X71555296Y-68221815D01*
X71599072Y-68322268D01*
G37*
D10*
X171516321Y-102063166D02*
X172116321Y-102463166D01*
X171516321Y-102863166D02*
X171516321Y-102063166D01*
X172116321Y-102463166D02*
X172116321Y-101913166D01*
X172516321Y-102463166D02*
X172116321Y-102463166D01*
X171516321Y-102463166D02*
X171016321Y-102463166D01*
X172116321Y-102463166D02*
X172116321Y-103013166D01*
X172116321Y-102463166D02*
X171516321Y-102863166D01*
X153016363Y-79950864D02*
X152516363Y-79950864D01*
X153616363Y-79950864D02*
X153616363Y-79400864D01*
X153616363Y-79950864D02*
X153616363Y-80500864D01*
X153016363Y-80350864D02*
X153016363Y-79550864D01*
X154016363Y-79950864D02*
X153616363Y-79950864D01*
X153616363Y-79950864D02*
X153016363Y-80350864D01*
X153016363Y-79550864D02*
X153616363Y-79950864D01*
X179092132Y-127758627D02*
X179299187Y-126985886D01*
X179299187Y-126985886D02*
X179775215Y-127527548D01*
X179775215Y-127527548D02*
X179632865Y-128058807D01*
X179195660Y-127372256D02*
X178712697Y-127242847D01*
X179775215Y-127527548D02*
X179092132Y-127758627D01*
X180161585Y-127631075D02*
X179775215Y-127527548D01*
X179775215Y-127527548D02*
X179917566Y-126996288D01*
G36*
X118873560Y-114544549D02*
G01*
X118444541Y-114604844D01*
X118419588Y-114427293D01*
X118848607Y-114366998D01*
X118873560Y-114544549D01*
G37*
G36*
X112172869Y-112765235D02*
G01*
X112263407Y-112805836D01*
X112335537Y-112867224D01*
X112386263Y-112946199D01*
X112412593Y-113039561D01*
X112182313Y-113071925D01*
X112160635Y-113005404D01*
X112117178Y-112959360D01*
X112054542Y-112935579D01*
X111975325Y-112935852D01*
X111901547Y-112955320D01*
X111849082Y-112989994D01*
X111815473Y-113090605D01*
X111883194Y-113174236D01*
X111956048Y-113200396D01*
X112054485Y-113220612D01*
X112179615Y-113246426D01*
X112281921Y-113281884D01*
X112361405Y-113326986D01*
X112442570Y-113415772D01*
X112481852Y-113532362D01*
X112482272Y-113623843D01*
X112456345Y-113704851D01*
X112404072Y-113775383D01*
X112328893Y-113832698D01*
X112234249Y-113874048D01*
X112120141Y-113899434D01*
X111995282Y-113904948D01*
X111878620Y-113885238D01*
X111777399Y-113842420D01*
X111698862Y-113778606D01*
X111644663Y-113695813D01*
X111616457Y-113596061D01*
X111847505Y-113563589D01*
X111872697Y-113642582D01*
X111922272Y-113694566D01*
X111996231Y-113719543D01*
X112094574Y-113717513D01*
X112166515Y-113698889D01*
X112218071Y-113666106D01*
X112251019Y-113566370D01*
X112190886Y-113472670D01*
X112121363Y-113445847D01*
X112014727Y-113422282D01*
X111902046Y-113398883D01*
X111814395Y-113372552D01*
X111697884Y-113310911D01*
X111621447Y-113227461D01*
X111585084Y-113122202D01*
X111585804Y-113034724D01*
X111613422Y-112953447D01*
X111666711Y-112881478D01*
X111744446Y-112821924D01*
X111841657Y-112777733D01*
X111953380Y-112751856D01*
X112068125Y-112746786D01*
X112172869Y-112765235D01*
G37*
G36*
X110811564Y-116071565D02*
G01*
X110582958Y-116103693D01*
X110448536Y-115147232D01*
X110681658Y-115147232D01*
X110728458Y-115480235D01*
X110912868Y-115454318D01*
X110987721Y-115432628D01*
X111040064Y-115391761D01*
X111068175Y-115334677D01*
X111070335Y-115264340D01*
X111049338Y-115195800D01*
X111008406Y-115147157D01*
X110947183Y-115121377D01*
X110865305Y-115121422D01*
X110681658Y-115147232D01*
X110448536Y-115147232D01*
X110427027Y-114994189D01*
X110839281Y-114936251D01*
X110961727Y-114928972D01*
X111066926Y-114943975D01*
X111154881Y-114981259D01*
X111223491Y-115039395D01*
X111270655Y-115116950D01*
X111296371Y-115213923D01*
X111298715Y-115319761D01*
X111273833Y-115410193D01*
X111221586Y-115486987D01*
X111141833Y-115551911D01*
X111445591Y-115971578D01*
X111447091Y-115982247D01*
X111201720Y-116016732D01*
X110936606Y-115639811D01*
X110754483Y-115665406D01*
X110811564Y-116071565D01*
G37*
G36*
X118248533Y-114083777D02*
G01*
X117734930Y-114155959D01*
X117772092Y-114420380D01*
X118211017Y-114358693D01*
X118236184Y-114537769D01*
X117797260Y-114599455D01*
X117839027Y-114896644D01*
X118354153Y-114824247D01*
X118379963Y-115007896D01*
X117636231Y-115112420D01*
X117480300Y-114002916D01*
X118222509Y-113898606D01*
X118248533Y-114083777D01*
G37*
G36*
X116858206Y-115221765D02*
G01*
X116629599Y-115253893D01*
X116495178Y-114297432D01*
X116728299Y-114297432D01*
X116777242Y-114645676D01*
X116981464Y-114616975D01*
X117059882Y-114595074D01*
X117113773Y-114554863D01*
X117142211Y-114498026D01*
X117144265Y-114426246D01*
X117121901Y-114354207D01*
X117077730Y-114301164D01*
X117015223Y-114271095D01*
X116937856Y-114267980D01*
X116728299Y-114297432D01*
X116495178Y-114297432D01*
X116473669Y-114144389D01*
X116906497Y-114083559D01*
X117025550Y-114078484D01*
X117132766Y-114098384D01*
X117224461Y-114141932D01*
X117296953Y-114207799D01*
X117347895Y-114292432D01*
X117374942Y-114392272D01*
X117376740Y-114495068D01*
X117351577Y-114586026D01*
X117299451Y-114665144D01*
X117222850Y-114729226D01*
X117124259Y-114775071D01*
X117003678Y-114802681D01*
X116803266Y-114830848D01*
X116858206Y-115221765D01*
G37*
G36*
X120395999Y-113614900D02*
G01*
X120474181Y-113650536D01*
X120535658Y-113705530D01*
X120578169Y-113778558D01*
X120601717Y-113869620D01*
X120602722Y-113954180D01*
X120582605Y-114043261D01*
X120537677Y-114143796D01*
X120464249Y-114262711D01*
X120249396Y-114564106D01*
X120726421Y-114497064D01*
X120751374Y-114674616D01*
X119990877Y-114781496D01*
X119969672Y-114630615D01*
X120274822Y-114197639D01*
X120328489Y-114112972D01*
X120364360Y-114041297D01*
X120383729Y-113922014D01*
X120330058Y-113811053D01*
X120217432Y-113783754D01*
X120152467Y-113805998D01*
X120106928Y-113851737D01*
X120083004Y-113915808D01*
X120082883Y-113993047D01*
X119861897Y-114024104D01*
X119860366Y-113925437D01*
X119884262Y-113832132D01*
X119932143Y-113749153D01*
X120002570Y-113681461D01*
X120091851Y-113632488D01*
X120196288Y-113605668D01*
X120303368Y-113599943D01*
X120395999Y-113614900D01*
G37*
G36*
X113974807Y-115635029D02*
G01*
X113889656Y-115624461D01*
X113809041Y-115598232D01*
X113735223Y-115557104D01*
X113670470Y-115501837D01*
X113614783Y-115432431D01*
X113569570Y-115350933D01*
X113536241Y-115259389D01*
X113514797Y-115157801D01*
X113507086Y-115102935D01*
X113498911Y-114997150D01*
X113501357Y-114957960D01*
X113730453Y-114957960D01*
X113737991Y-115065045D01*
X113745594Y-115119148D01*
X113767269Y-115222992D01*
X113800450Y-115307951D01*
X113845135Y-115374025D01*
X113931217Y-115433613D01*
X114038146Y-115442479D01*
X114136702Y-115405607D01*
X114202243Y-115327334D01*
X114226868Y-115253116D01*
X114235362Y-115162430D01*
X114227728Y-115055273D01*
X114220124Y-115001170D01*
X114198141Y-114895124D01*
X114164889Y-114809656D01*
X114120369Y-114744768D01*
X114034990Y-114687414D01*
X113929312Y-114679148D01*
X113830538Y-114715856D01*
X113764345Y-114793638D01*
X113739238Y-114867492D01*
X113730453Y-114957960D01*
X113501357Y-114957960D01*
X113505085Y-114898241D01*
X113525607Y-114806210D01*
X113559628Y-114723290D01*
X113606296Y-114651715D01*
X113665609Y-114591489D01*
X113735716Y-114543862D01*
X113814764Y-114510087D01*
X113902753Y-114490166D01*
X113992823Y-114485062D01*
X114078118Y-114495741D01*
X114158637Y-114522198D01*
X114232254Y-114563743D01*
X114296842Y-114619681D01*
X114352401Y-114690011D01*
X114397484Y-114772737D01*
X114430646Y-114865858D01*
X114451886Y-114969376D01*
X114458847Y-115018907D01*
X114467132Y-115124547D01*
X114461286Y-115223021D01*
X114441308Y-115314328D01*
X114407838Y-115396566D01*
X114361517Y-115467832D01*
X114302342Y-115528127D01*
X114232180Y-115575977D01*
X114152897Y-115609914D01*
X114064491Y-115629937D01*
X113974807Y-115635029D01*
G37*
G36*
X111931827Y-115922151D02*
G01*
X111846677Y-115911583D01*
X111766060Y-115885354D01*
X111692243Y-115844227D01*
X111627491Y-115788959D01*
X111571803Y-115719553D01*
X111526589Y-115638056D01*
X111493260Y-115546511D01*
X111471817Y-115444923D01*
X111464106Y-115390057D01*
X111455930Y-115284272D01*
X111458376Y-115245082D01*
X111687474Y-115245082D01*
X111695011Y-115352167D01*
X111702615Y-115406270D01*
X111724289Y-115510114D01*
X111757469Y-115595073D01*
X111802156Y-115661147D01*
X111888237Y-115720735D01*
X111995165Y-115729601D01*
X112093723Y-115692729D01*
X112159264Y-115614456D01*
X112183887Y-115540238D01*
X112192382Y-115449552D01*
X112184748Y-115342395D01*
X112177145Y-115288292D01*
X112155160Y-115182247D01*
X112121909Y-115096779D01*
X112077390Y-115031890D01*
X111992010Y-114974536D01*
X111886332Y-114966270D01*
X111787557Y-115002978D01*
X111721364Y-115080761D01*
X111696257Y-115154615D01*
X111687474Y-115245082D01*
X111458376Y-115245082D01*
X111462104Y-115185364D01*
X111482627Y-115093332D01*
X111516648Y-115010412D01*
X111563315Y-114938838D01*
X111622630Y-114878611D01*
X111692736Y-114830984D01*
X111771784Y-114797209D01*
X111859772Y-114777289D01*
X111949843Y-114772184D01*
X112035139Y-114782863D01*
X112115657Y-114809320D01*
X112189274Y-114850865D01*
X112253862Y-114906803D01*
X112309421Y-114977133D01*
X112354504Y-115059859D01*
X112387666Y-115152980D01*
X112408906Y-115256498D01*
X112415867Y-115306029D01*
X112424152Y-115411669D01*
X112418305Y-115510143D01*
X112398328Y-115601450D01*
X112364859Y-115683688D01*
X112318538Y-115754954D01*
X112259362Y-115815249D01*
X112189201Y-115863099D01*
X112109916Y-115897037D01*
X112021511Y-115917059D01*
X111931827Y-115922151D01*
G37*
G36*
X114961952Y-113484389D02*
G01*
X114731672Y-113516753D01*
X114574599Y-112399123D01*
X114804880Y-112366759D01*
X114961952Y-113484389D01*
G37*
G36*
X110476849Y-114114729D02*
G01*
X110245801Y-114147201D01*
X110202865Y-113841694D01*
X110151779Y-113311116D01*
X109967161Y-114186361D01*
X109809034Y-114208585D01*
X109391193Y-113418792D01*
X109488226Y-113942130D01*
X109531162Y-114247637D01*
X109300882Y-114280001D01*
X109143809Y-113162370D01*
X109444709Y-113120082D01*
X109845714Y-113890323D01*
X110017341Y-113039603D01*
X110319776Y-112997099D01*
X110476849Y-114114729D01*
G37*
G36*
X115404668Y-114483456D02*
G01*
X115064806Y-114531220D01*
X115194713Y-115455553D01*
X114966106Y-115487682D01*
X114836200Y-114563349D01*
X114500910Y-114610471D01*
X114474886Y-114425300D01*
X115378644Y-114298285D01*
X115404668Y-114483456D01*
G37*
G36*
X116107458Y-114916981D02*
G01*
X116164004Y-115319328D01*
X115931588Y-115351992D01*
X115875042Y-114949644D01*
X115411411Y-114293680D01*
X115662116Y-114258445D01*
X115961739Y-114726096D01*
X116122377Y-114193760D01*
X116372320Y-114158633D01*
X116107458Y-114916981D01*
G37*
G36*
X109804934Y-116213037D02*
G01*
X109576328Y-116245166D01*
X109441906Y-115288704D01*
X109675028Y-115288704D01*
X109723970Y-115636949D01*
X109928192Y-115608247D01*
X110006609Y-115586347D01*
X110060502Y-115546136D01*
X110088939Y-115489298D01*
X110090992Y-115417519D01*
X110068630Y-115345480D01*
X110024458Y-115292436D01*
X109961952Y-115262368D01*
X109884583Y-115259253D01*
X109675028Y-115288704D01*
X109441906Y-115288704D01*
X109420397Y-115135662D01*
X109853226Y-115074832D01*
X109972279Y-115069756D01*
X110079495Y-115089656D01*
X110171190Y-115133205D01*
X110243681Y-115199072D01*
X110294624Y-115283705D01*
X110321671Y-115383545D01*
X110323469Y-115486341D01*
X110298305Y-115577299D01*
X110246180Y-115656417D01*
X110169578Y-115720498D01*
X110070987Y-115766344D01*
X109950406Y-115793954D01*
X109749994Y-115822120D01*
X109804934Y-116213037D01*
G37*
G36*
X113361688Y-114770578D02*
G01*
X113021827Y-114818342D01*
X113151733Y-115742675D01*
X112923127Y-115774804D01*
X112793220Y-114850471D01*
X112457930Y-114897593D01*
X112431906Y-114712422D01*
X113335664Y-114585407D01*
X113361688Y-114770578D01*
G37*
G36*
X119356979Y-114872570D02*
G01*
X119258916Y-114845685D01*
X119176082Y-114789549D01*
X119109659Y-114705808D01*
X119060828Y-114596110D01*
X119029588Y-114460455D01*
X119000887Y-114256233D01*
X118991571Y-114112230D01*
X118997563Y-114065337D01*
X119209803Y-114065337D01*
X119214364Y-114177275D01*
X119252275Y-114447031D01*
X119278129Y-114563941D01*
X119317561Y-114643391D01*
X119372611Y-114686067D01*
X119445319Y-114692653D01*
X119512630Y-114667068D01*
X119553019Y-114613019D01*
X119569017Y-114529179D01*
X119563156Y-114414218D01*
X119526101Y-114150559D01*
X119499924Y-114032723D01*
X119460161Y-113955067D01*
X119405242Y-113914705D01*
X119333594Y-113908747D01*
X119268162Y-113933192D01*
X119227316Y-113984683D01*
X119209803Y-114065337D01*
X118997563Y-114065337D01*
X119007175Y-113990109D01*
X119047698Y-113889869D01*
X119112002Y-113812622D01*
X119198946Y-113759477D01*
X119308534Y-113730433D01*
X119421820Y-113728025D01*
X119519865Y-113754783D01*
X119602669Y-113810707D01*
X119669063Y-113894237D01*
X119717877Y-114003807D01*
X119749109Y-114139420D01*
X119777811Y-114343642D01*
X119787100Y-114486527D01*
X119771842Y-114608341D01*
X119732036Y-114709083D01*
X119668232Y-114787124D01*
X119580978Y-114840831D01*
X119470272Y-114870204D01*
X119356979Y-114872570D01*
G37*
G36*
X113471384Y-113304841D02*
G01*
X113474624Y-113420409D01*
X113449963Y-113522502D01*
X113397405Y-113611122D01*
X113319893Y-113682463D01*
X113220369Y-113732718D01*
X113098835Y-113761888D01*
X112975679Y-113767455D01*
X112867199Y-113747477D01*
X112773393Y-113701953D01*
X112698250Y-113633281D01*
X112645761Y-113543855D01*
X112615925Y-113433677D01*
X112511282Y-112689103D01*
X112741563Y-112656739D01*
X112845235Y-113394406D01*
X112871717Y-113487453D01*
X112920310Y-113547061D01*
X112988264Y-113575964D01*
X113072836Y-113576896D01*
X113156199Y-113552166D01*
X113212082Y-113505272D01*
X113240487Y-113436213D01*
X113241414Y-113344988D01*
X113136879Y-112601181D01*
X113367928Y-112568709D01*
X113471384Y-113304841D01*
G37*
G36*
X111470243Y-113586083D02*
G01*
X111473483Y-113701651D01*
X111448824Y-113803744D01*
X111396265Y-113892364D01*
X111318752Y-113963705D01*
X111219229Y-114013960D01*
X111097694Y-114043130D01*
X110974539Y-114048697D01*
X110866059Y-114028719D01*
X110772252Y-113983195D01*
X110697109Y-113914523D01*
X110644620Y-113825097D01*
X110614785Y-113714919D01*
X110510142Y-112970345D01*
X110740423Y-112937981D01*
X110844095Y-113675647D01*
X110870577Y-113768694D01*
X110919169Y-113828303D01*
X110987124Y-113857206D01*
X111071695Y-113858138D01*
X111155058Y-113833408D01*
X111210942Y-113786514D01*
X111239347Y-113717455D01*
X111240274Y-113626230D01*
X111135739Y-112882423D01*
X111366787Y-112849951D01*
X111470243Y-113586083D01*
G37*
G36*
X114180653Y-112489800D02*
G01*
X114267761Y-112521697D01*
X114334617Y-112573487D01*
X114380369Y-112644681D01*
X114405016Y-112735279D01*
X114405318Y-112814003D01*
X114383134Y-112885906D01*
X114340283Y-112947211D01*
X114278582Y-112994140D01*
X114359996Y-113015770D01*
X114426254Y-113061838D01*
X114473582Y-113129158D01*
X114498204Y-113214541D01*
X114500656Y-113314912D01*
X114477805Y-113401097D01*
X114429651Y-113473094D01*
X114357852Y-113530325D01*
X114264067Y-113572207D01*
X114148294Y-113598741D01*
X113944111Y-113627437D01*
X113918112Y-113442444D01*
X113875715Y-113140777D01*
X113875716Y-113140777D01*
X113918112Y-113442444D01*
X114115386Y-113414719D01*
X114186467Y-113394847D01*
X114236976Y-113358101D01*
X114267599Y-113244602D01*
X114237922Y-113161539D01*
X114177658Y-113117041D01*
X114086806Y-113111110D01*
X113875716Y-113140777D01*
X113875715Y-113140777D01*
X113852845Y-112978045D01*
X114023253Y-112954096D01*
X114117695Y-112923688D01*
X114169267Y-112869214D01*
X114177972Y-112790671D01*
X114157755Y-112726880D01*
X114118462Y-112687491D01*
X114058045Y-112670445D01*
X113974449Y-112673680D01*
X113813253Y-112696335D01*
X113852845Y-112978045D01*
X113944111Y-113627437D01*
X113713830Y-113659801D01*
X113556758Y-112542171D01*
X113948235Y-112487152D01*
X114074145Y-112478285D01*
X114180653Y-112489800D01*
G37*
D11*
X165366325Y-86213365D02*
X164366325Y-86213365D01*
X179166325Y-72213365D02*
X179166325Y-73213365D01*
X178166317Y-86213201D02*
X179166317Y-86213201D01*
X164366317Y-85213201D02*
X164366317Y-86213201D01*
X179166317Y-86213201D02*
X179166317Y-85213201D01*
X164366325Y-72213365D02*
X165366325Y-72213365D01*
X179166317Y-72213201D02*
X178166317Y-72213201D01*
X164366325Y-73213365D02*
X164366325Y-72213365D01*
D10*
X94035974Y-77534090D02*
X93497482Y-78013702D01*
X94035974Y-77534090D02*
X93959429Y-76989443D01*
X94035974Y-77534090D02*
X94112519Y-78078738D01*
X93497482Y-78013702D02*
X93386144Y-77221487D01*
X94432081Y-77478421D02*
X94035974Y-77534090D01*
X93386144Y-77221487D02*
X94035974Y-77534090D01*
X93441813Y-77617594D02*
X92946679Y-77687181D01*
D11*
X179166325Y-53713403D02*
X179166325Y-54713403D01*
X179166317Y-53713239D02*
X178166317Y-53713239D01*
X179166317Y-67713239D02*
X179166317Y-66713239D01*
X164366325Y-54713403D02*
X164366325Y-53713403D01*
X165366325Y-67713403D02*
X164366325Y-67713403D01*
X164366325Y-53713403D02*
X165366325Y-53713403D01*
X164366317Y-66713239D02*
X164366317Y-67713239D01*
X178166317Y-67713239D02*
X179166317Y-67713239D01*
X84865319Y-67967460D02*
X84726146Y-66977192D01*
X101330506Y-78781022D02*
X101191333Y-77790754D01*
X84726146Y-66977192D02*
X85716414Y-66838019D01*
X99382083Y-64917269D02*
X98391815Y-65056442D01*
X87664838Y-80701772D02*
X86674570Y-80840945D01*
X99382114Y-64917430D02*
X99521287Y-65907698D01*
X100340238Y-78920195D02*
X101330506Y-78781022D01*
X86535366Y-79850515D02*
X86674539Y-80840783D01*
D10*
X115151310Y-80425231D02*
X115189676Y-80973891D01*
X114524869Y-80068059D02*
X115151310Y-80425231D01*
X115151310Y-80425231D02*
X114580675Y-80866111D01*
X114580675Y-80866111D02*
X114524869Y-80068059D01*
X115151310Y-80425231D02*
X115112944Y-79876571D01*
X114552772Y-80467085D02*
X114053990Y-80501963D01*
X115550336Y-80397329D02*
X115151310Y-80425231D01*
D11*
X159666354Y-82213210D02*
X160666354Y-82213210D01*
X145866362Y-68213374D02*
X146866362Y-68213374D01*
X160666362Y-68213374D02*
X160666362Y-69213374D01*
X160666354Y-68213210D02*
X159666354Y-68213210D01*
X160666354Y-82213210D02*
X160666354Y-81213210D01*
X145866362Y-69213374D02*
X145866362Y-68213374D01*
X145866354Y-81213210D02*
X145866354Y-82213210D01*
X146866362Y-82213374D02*
X145866362Y-82213374D01*
D10*
X160661606Y-124950782D02*
X160661606Y-124400782D01*
X161061606Y-124950782D02*
X160661606Y-124950782D01*
X160661606Y-124950782D02*
X160661606Y-125500782D01*
X160061606Y-124950782D02*
X159561606Y-124950782D01*
X160661606Y-124950782D02*
X160061606Y-125350782D01*
X160061606Y-124550782D02*
X160661606Y-124950782D01*
X160061606Y-125350782D02*
X160061606Y-124550782D01*
X196793958Y-135097043D02*
X197193958Y-134404223D01*
X197193958Y-134404223D02*
X197513573Y-135050633D01*
X197513573Y-135050633D02*
X196793958Y-135097043D01*
X197513573Y-135050633D02*
X197238573Y-135526947D01*
X197859983Y-135250633D02*
X197513573Y-135050633D01*
X196993958Y-134750633D02*
X196560945Y-134500633D01*
X197513573Y-135050633D02*
X197788573Y-134574319D01*
X153016360Y-61850901D02*
X153016360Y-61050901D01*
X153616360Y-61450901D02*
X153616360Y-60900901D01*
X153616360Y-61450901D02*
X153016360Y-61850901D01*
X154016360Y-61450901D02*
X153616360Y-61450901D01*
X153616360Y-61450901D02*
X153616360Y-62000901D01*
X153016360Y-61050901D02*
X153616360Y-61450901D01*
X153016360Y-61450901D02*
X152516360Y-61450901D01*
D11*
X145866361Y-87713336D02*
X145866361Y-86713336D01*
X160666353Y-86713172D02*
X159666353Y-86713172D01*
X160666353Y-100713172D02*
X160666353Y-99713172D01*
X145866353Y-99713172D02*
X145866353Y-100713172D01*
X159666353Y-100713172D02*
X160666353Y-100713172D01*
X145866361Y-86713336D02*
X146866361Y-86713336D01*
X146866361Y-100713336D02*
X145866361Y-100713336D01*
X160666361Y-86713336D02*
X160666361Y-87713336D01*
D10*
X96667979Y-95860231D02*
X96744524Y-96404879D01*
X96018149Y-95547628D02*
X96667979Y-95860231D01*
X96129487Y-96339843D02*
X96018149Y-95547628D01*
X96667979Y-95860231D02*
X96129487Y-96339843D01*
X96073818Y-95943735D02*
X95578684Y-96013322D01*
X97064086Y-95804562D02*
X96667979Y-95860231D01*
X96667979Y-95860231D02*
X96591434Y-95315584D01*
D11*
X128366405Y-92713416D02*
X127366405Y-92713416D01*
X142166397Y-92713252D02*
X142166397Y-91713252D01*
X127366405Y-79713416D02*
X127366405Y-78713416D01*
X127366405Y-78713416D02*
X128366405Y-78713416D01*
X127366397Y-91713252D02*
X127366397Y-92713252D01*
X141166397Y-92713252D02*
X142166397Y-92713252D01*
X142166397Y-78713252D02*
X141166397Y-78713252D01*
X142166405Y-78713416D02*
X142166405Y-79713416D01*
X108575579Y-83153075D02*
X107578015Y-83222832D01*
X121365373Y-68224539D02*
X121435129Y-69222103D01*
X107508239Y-82225105D02*
X107577996Y-83222669D01*
X106671181Y-70254499D02*
X106601425Y-69256935D01*
X121344380Y-82260029D02*
X122341944Y-82190273D01*
X106601425Y-69256935D02*
X107598989Y-69187179D01*
X122341944Y-82190273D02*
X122272187Y-81192709D01*
X121365353Y-68224376D02*
X120367789Y-68294133D01*
D10*
X134516417Y-72350924D02*
X134516417Y-71550924D01*
X135116417Y-71950924D02*
X134516417Y-72350924D01*
X134516417Y-71950924D02*
X134016417Y-71950924D01*
X135516417Y-71950924D02*
X135116417Y-71950924D01*
X135116417Y-71950924D02*
X135116417Y-71400924D01*
X134516417Y-71550924D02*
X135116417Y-71950924D01*
X135116417Y-71950924D02*
X135116417Y-72500924D01*
D12*
X125700613Y-74037258D02*
G75*
G03*
X124570852Y-74017537I-753024J-10768603D01*
G01*
X105428630Y-78475258D02*
G75*
G03*
X104540245Y-82659359I19518945J-6330700D01*
G01*
X131278294Y-65286998D02*
G75*
G03*
X127094194Y-64398614I-6330702J-19518963D01*
G01*
X104739696Y-88370878D02*
G75*
G03*
X105917784Y-92482815I20207849J3564905D01*
G01*
X121382675Y-64598065D02*
G75*
G03*
X117270737Y-65776153I3564912J-20207879D01*
G01*
X128512509Y-105013857D02*
G75*
G03*
X132624446Y-103835769I-3564917J20207896D01*
G01*
X144466556Y-91136661D02*
G75*
G03*
X145354939Y-86952563I-19519014J6330710D01*
G01*
X118616892Y-104324924D02*
G75*
G03*
X122800990Y-105213308I6330700J19518963D01*
G01*
X124570852Y-74017537D02*
G75*
G03*
X123445218Y-74116017I376731J-10788345D01*
G01*
X125324332Y-95594386D02*
G75*
G03*
X126449966Y-95495905I-376737J10788325D01*
G01*
X124194571Y-95574665D02*
G75*
G03*
X125324332Y-95594385I753018J10768625D01*
G01*
X145155488Y-81241044D02*
G75*
G03*
X143977401Y-77129109I-20207915J-3564924D01*
G01*
D11*
X189604847Y-118044031D02*
X189346028Y-119009957D01*
X171944532Y-126770385D02*
X171685713Y-127736310D01*
X189604882Y-118043871D02*
X188638956Y-117785052D01*
X185015489Y-131308013D02*
X185981415Y-131566832D01*
X175309145Y-114213509D02*
X176275071Y-114472328D01*
X172651604Y-127995290D02*
X171685678Y-127736471D01*
X175050326Y-115179435D02*
X175309145Y-114213509D01*
X185981415Y-131566832D02*
X186240234Y-130600906D01*
D10*
X78367978Y-102960232D02*
X78291433Y-102415585D01*
X77773817Y-103043736D02*
X77278683Y-103113323D01*
X78367978Y-102960232D02*
X78444523Y-103504880D01*
X78764085Y-102904563D02*
X78367978Y-102960232D01*
X77829486Y-103439844D02*
X77718148Y-102647629D01*
X77718148Y-102647629D02*
X78367978Y-102960232D01*
X78367978Y-102960232D02*
X77829486Y-103439844D01*
D11*
X120053867Y-63805133D02*
X121051431Y-63735377D01*
X105380668Y-51799603D02*
X105310912Y-50802039D01*
X105310912Y-50802039D02*
X106308476Y-50732283D01*
X106217726Y-63770209D02*
X106287483Y-64767773D01*
X120074860Y-49769643D02*
X120144616Y-50767207D01*
X121051431Y-63735377D02*
X120981674Y-62737813D01*
X107285066Y-64698179D02*
X106287502Y-64767936D01*
X120074840Y-49769480D02*
X119077276Y-49839237D01*
%LPC*%
D13*
X154916364Y-98450848D03*
X151616364Y-98450848D03*
D14*
X155666363Y-57601074D03*
D15*
X158766355Y-62213246D03*
D16*
X153266363Y-59513410D03*
D15*
X147766371Y-62200910D03*
D17*
X154816363Y-57601074D03*
X154816363Y-57613410D03*
D18*
X153266363Y-57613410D03*
D17*
X151716363Y-57601074D03*
D18*
X153266363Y-57601074D03*
D15*
X147766355Y-51213246D03*
D16*
X153266363Y-55701074D03*
X153266363Y-55713410D03*
D14*
X150866363Y-57601074D03*
D17*
X151716363Y-57613410D03*
D16*
X153266363Y-59501074D03*
D14*
X155666363Y-57613410D03*
X150866363Y-57613410D03*
D15*
X158766371Y-51200910D03*
D19*
X156666371Y-53800910D03*
D20*
X156666371Y-58700910D03*
D21*
X117738655Y-98789460D03*
X114446693Y-99019656D03*
D13*
X136416439Y-53450910D03*
X133116439Y-53450910D03*
D22*
X154921384Y-43458942D03*
X161921384Y-43458942D03*
D23*
X152221384Y-41158942D03*
X152221384Y-45758942D03*
X153321384Y-41158942D03*
X153321384Y-45758942D03*
X157321384Y-45758942D03*
X157321384Y-41158942D03*
X160321384Y-45758942D03*
X160321384Y-41158942D03*
D13*
X173416327Y-65450912D03*
X170116327Y-65450912D03*
D16*
X160311604Y-119200947D03*
D17*
X161861604Y-121113283D03*
D15*
X154811612Y-125700783D03*
D18*
X160311604Y-121100947D03*
D14*
X157911604Y-121113283D03*
X162711604Y-121113283D03*
X157911604Y-121100947D03*
X162711604Y-121100947D03*
D15*
X165811612Y-114700783D03*
D16*
X160311604Y-123013283D03*
D17*
X158761604Y-121100947D03*
D18*
X160311604Y-121113283D03*
D17*
X161861604Y-121100947D03*
D15*
X154811596Y-114713119D03*
X165811596Y-125713119D03*
D16*
X160311604Y-123000947D03*
D17*
X158761604Y-121113283D03*
D16*
X160311604Y-119213283D03*
D19*
X163711612Y-117300783D03*
D20*
X163711612Y-122200783D03*
D24*
X98565661Y-112279575D03*
D25*
X95926305Y-110744297D03*
D15*
X104389588Y-114199901D03*
D26*
X98302948Y-110410282D03*
D27*
X99836147Y-110182347D03*
D15*
X93494939Y-115718587D03*
D27*
X96768033Y-110626000D03*
D25*
X100679592Y-110076266D03*
D24*
X98567377Y-112291791D03*
D27*
X99837864Y-110194563D03*
D24*
X98036803Y-108516556D03*
D15*
X102856983Y-103294734D03*
D26*
X98301232Y-110398066D03*
D24*
X98038520Y-108528772D03*
D25*
X100677875Y-110064050D03*
D15*
X91965735Y-104837857D03*
D25*
X95924588Y-110732081D03*
D27*
X96766316Y-110613784D03*
D19*
X101139270Y-106161695D03*
D20*
X101821219Y-111014008D03*
D28*
X100455326Y-114079306D03*
X97187442Y-114538578D03*
D13*
X173416324Y-83950865D03*
X170116324Y-83950865D03*
D29*
X87847591Y-107505962D03*
D30*
X87847591Y-107505962D03*
D31*
X115956668Y-96959457D03*
D32*
X118219145Y-94908976D03*
D15*
X110658404Y-100036376D03*
D31*
X115692453Y-93181020D03*
D33*
X117371215Y-94968269D03*
D31*
X115957528Y-96971763D03*
D15*
X109891928Y-89075479D03*
D33*
X117370355Y-94955963D03*
D32*
X118218284Y-94896670D03*
X113430837Y-95243807D03*
D15*
X121632453Y-99281362D03*
D34*
X115824130Y-95064085D03*
D33*
X114278767Y-95184514D03*
D15*
X120864288Y-88295851D03*
D32*
X113429977Y-95231501D03*
D34*
X115824991Y-95076391D03*
D31*
X115691593Y-93168714D03*
D33*
X114277906Y-95172208D03*
D19*
X118950770Y-91036006D03*
D20*
X119292577Y-95924070D03*
D35*
X197801098Y-130743141D03*
D36*
X198199605Y-133152906D03*
D37*
X199143437Y-131518141D03*
D36*
X200093437Y-129872693D03*
D35*
X197807266Y-130732458D03*
D38*
X197064976Y-130318141D03*
D36*
X198193437Y-133163589D03*
D15*
X207112834Y-128714757D03*
D37*
X199149605Y-131507458D03*
D38*
X201221898Y-132718141D03*
X197071144Y-130307458D03*
D35*
X200491944Y-132282458D03*
D15*
X197580372Y-123225433D03*
D35*
X200485776Y-132293141D03*
D15*
X192086554Y-132741037D03*
D38*
X201228066Y-132707458D03*
D36*
X200099605Y-129862010D03*
D15*
X201606652Y-138251712D03*
D19*
X203994180Y-129916423D03*
D20*
X201544180Y-134159948D03*
D27*
X79072644Y-98962847D03*
D24*
X77273300Y-97297056D03*
D15*
X82093480Y-92075234D03*
D25*
X79914372Y-98844550D03*
D15*
X71202232Y-93618357D03*
D25*
X75161085Y-99512581D03*
D15*
X83626085Y-102980401D03*
D24*
X77802158Y-101060075D03*
D25*
X79916089Y-98856766D03*
D26*
X77539445Y-99190782D03*
D24*
X77803874Y-101072291D03*
D27*
X79074361Y-98975063D03*
D26*
X77537729Y-99178566D03*
D27*
X76004530Y-99406500D03*
D25*
X75162802Y-99524797D03*
D27*
X76002813Y-99394284D03*
D15*
X72731436Y-104499087D03*
D24*
X77275017Y-97309272D03*
D19*
X80375767Y-94942195D03*
D20*
X81057716Y-99794508D03*
D30*
X147421386Y-43508943D03*
D29*
X147421386Y-43508943D03*
X102747592Y-63305961D03*
D30*
X102747592Y-63305961D03*
D29*
X162773799Y-84602981D03*
X124673799Y-84602981D03*
X143723799Y-65552981D03*
D17*
X170216325Y-98600992D03*
D16*
X171766325Y-100513328D03*
D14*
X169366325Y-98613328D03*
D15*
X177266333Y-92200828D03*
D14*
X174166325Y-98613328D03*
D16*
X171766325Y-96713328D03*
D14*
X174166325Y-98600992D03*
D18*
X171766325Y-98613328D03*
X171766325Y-98600992D03*
D16*
X171766325Y-100500992D03*
D15*
X166266317Y-92213164D03*
D17*
X173316325Y-98613328D03*
D15*
X177266317Y-103213164D03*
D14*
X169366325Y-98600992D03*
D15*
X166266333Y-103200828D03*
D16*
X171766325Y-96700992D03*
D17*
X173316325Y-98600992D03*
X170216325Y-98613328D03*
D19*
X175166333Y-94800828D03*
D20*
X175166333Y-99700828D03*
D13*
X136421404Y-90450920D03*
X133121404Y-90450920D03*
D21*
X115157635Y-61879640D03*
X111865673Y-62109836D03*
D16*
X134766440Y-47713425D03*
X134766440Y-47701089D03*
X134766440Y-51501089D03*
D15*
X129266432Y-43213261D03*
D17*
X133216440Y-49613425D03*
D16*
X134766440Y-51513425D03*
D17*
X136316440Y-49613425D03*
D18*
X134766440Y-49613425D03*
D14*
X132366440Y-49601089D03*
X132366440Y-49613425D03*
D15*
X129266448Y-54200925D03*
D14*
X137166440Y-49613425D03*
D18*
X134766440Y-49601089D03*
D17*
X136316440Y-49601089D03*
D15*
X140266432Y-54213261D03*
D14*
X137166440Y-49601089D03*
D17*
X133216440Y-49601089D03*
D15*
X140266448Y-43200925D03*
D19*
X138166448Y-45800925D03*
D20*
X138166448Y-50700925D03*
D24*
X95990960Y-93959651D03*
D26*
X95726531Y-92078142D03*
D24*
X95992676Y-93971867D03*
D27*
X97261446Y-91862423D03*
D25*
X93351604Y-92424373D03*
D26*
X95728247Y-92090358D03*
D25*
X98104891Y-91756342D03*
D24*
X95462102Y-90196632D03*
D27*
X94193332Y-92306076D03*
D24*
X95463819Y-90208848D03*
D15*
X89391034Y-86517933D03*
X101814887Y-95879977D03*
D25*
X93349887Y-92412157D03*
D15*
X90920238Y-97398663D03*
D27*
X94191615Y-92293860D03*
D25*
X98103174Y-91744126D03*
D27*
X97263163Y-91874639D03*
D15*
X100282282Y-84974810D03*
D19*
X98564569Y-87841771D03*
D20*
X99246518Y-92694084D03*
D16*
X134766414Y-66201075D03*
D18*
X134766414Y-68113411D03*
D17*
X136316414Y-68101075D03*
D16*
X134766414Y-70001075D03*
D17*
X133216414Y-68113411D03*
D14*
X137166414Y-68113411D03*
D17*
X133216414Y-68101075D03*
D16*
X134766414Y-70013411D03*
D18*
X134766414Y-68101075D03*
D15*
X140266422Y-61700911D03*
X140266406Y-72713247D03*
D14*
X137166414Y-68101075D03*
D17*
X136316414Y-68113411D03*
D15*
X129266406Y-61713247D03*
D14*
X132366414Y-68101075D03*
D16*
X134766414Y-66213411D03*
D15*
X129266422Y-72700911D03*
D14*
X132366414Y-68113411D03*
D19*
X138166422Y-64300911D03*
D20*
X138166422Y-69200911D03*
D39*
X65444665Y-71289706D03*
X65798165Y-73804987D03*
X66151665Y-76320268D03*
X66505164Y-78835549D03*
X66858664Y-81350830D03*
X67212164Y-83866111D03*
X67565663Y-86381392D03*
D40*
X83598103Y-84128180D03*
X83244603Y-81612899D03*
X82891103Y-79097618D03*
X82537604Y-76582337D03*
X82184104Y-74067056D03*
X81830604Y-71551775D03*
X81477105Y-69036494D03*
D41*
X70075525Y-78013652D03*
X78874752Y-76777002D03*
D13*
X173416321Y-102463166D03*
X170116321Y-102463166D03*
X154916363Y-79950864D03*
X151616363Y-79950864D03*
D42*
X181030919Y-127864012D03*
X177843363Y-127009910D03*
D16*
X171766325Y-82013365D03*
D15*
X177266333Y-73700865D03*
D18*
X171766325Y-80101029D03*
D14*
X174166325Y-80101029D03*
X169366325Y-80101029D03*
D16*
X171766325Y-78213365D03*
D17*
X170216325Y-80101029D03*
D14*
X169366325Y-80113365D03*
D17*
X173316325Y-80113365D03*
D15*
X166266333Y-84700865D03*
X177266317Y-84713201D03*
D14*
X174166325Y-80113365D03*
D15*
X166266317Y-73713201D03*
D16*
X171766325Y-78201029D03*
D17*
X170216325Y-80113365D03*
X173316325Y-80101029D03*
D18*
X171766325Y-80113365D03*
D16*
X171766325Y-82001029D03*
D19*
X175166333Y-76300865D03*
D20*
X175166333Y-81200865D03*
D28*
X95323322Y-77353165D03*
X92055438Y-77812437D03*
D15*
X166266333Y-66200903D03*
X177266317Y-66213239D03*
D17*
X173316325Y-61613403D03*
D18*
X171766325Y-61613403D03*
X171766325Y-61601067D03*
D17*
X173316325Y-61601067D03*
D14*
X174166325Y-61601067D03*
D17*
X170216325Y-61613403D03*
D15*
X166266317Y-55213239D03*
X177266333Y-55200903D03*
D16*
X171766325Y-63513403D03*
D14*
X174166325Y-61613403D03*
D16*
X171766325Y-59713403D03*
X171766325Y-59701067D03*
D14*
X169366325Y-61613403D03*
D17*
X170216325Y-61601067D03*
D14*
X169366325Y-61601067D03*
D16*
X171766325Y-63501067D03*
D19*
X175166333Y-57800903D03*
D20*
X175166333Y-62700903D03*
D15*
X88345588Y-79078734D03*
D27*
X94688513Y-73554710D03*
D25*
X90776954Y-74104444D03*
D24*
X93416310Y-75639722D03*
D15*
X99240237Y-77560048D03*
D24*
X92887452Y-71876703D03*
D25*
X95530241Y-73436413D03*
X90775237Y-74092228D03*
D27*
X94686796Y-73542494D03*
D26*
X93151881Y-73758213D03*
D24*
X93418026Y-75651938D03*
D15*
X97707632Y-66654881D03*
D24*
X92889169Y-71888919D03*
D15*
X86816384Y-68198004D03*
D27*
X91618682Y-73986147D03*
X91616965Y-73973931D03*
D26*
X93153597Y-73770429D03*
D25*
X95528524Y-73424197D03*
D19*
X95989919Y-69521842D03*
D20*
X96671868Y-74374155D03*
D21*
X116448144Y-80334548D03*
X113156182Y-80564744D03*
D16*
X153266362Y-74213374D03*
D17*
X154816362Y-76101038D03*
X151716362Y-76101038D03*
D16*
X153266362Y-74201038D03*
D15*
X147766354Y-69713210D03*
D16*
X153266362Y-78001038D03*
D15*
X158766354Y-80713210D03*
D14*
X150866362Y-76101038D03*
D17*
X154816362Y-76113374D03*
X151716362Y-76113374D03*
D15*
X147766370Y-80700874D03*
D14*
X155666362Y-76113374D03*
D15*
X158766370Y-69700874D03*
D14*
X155666362Y-76101038D03*
D18*
X153266362Y-76113374D03*
D14*
X150866362Y-76113374D03*
D18*
X153266362Y-76101038D03*
D16*
X153266362Y-78013374D03*
D19*
X156666370Y-72300874D03*
D20*
X156666370Y-77200874D03*
D13*
X161961606Y-124950782D03*
X158661606Y-124950782D03*
D43*
X198639406Y-135700633D03*
X195781522Y-134050633D03*
D13*
X154916360Y-61450901D03*
X151616360Y-61450901D03*
D14*
X150866361Y-94613336D03*
X150866361Y-94601000D03*
D16*
X153266361Y-92713336D03*
D17*
X151716361Y-94601000D03*
D18*
X153266361Y-94601000D03*
D15*
X158766353Y-99213172D03*
D17*
X151716361Y-94613336D03*
D18*
X153266361Y-94613336D03*
D15*
X158766369Y-88200836D03*
D17*
X154816361Y-94613336D03*
D14*
X155666361Y-94613336D03*
D16*
X153266361Y-96501000D03*
D15*
X147766353Y-88213172D03*
D16*
X153266361Y-92701000D03*
D17*
X154816361Y-94601000D03*
D16*
X153266361Y-96513336D03*
D15*
X147766369Y-99200836D03*
D14*
X155666361Y-94601000D03*
D19*
X156666369Y-90800836D03*
D20*
X156666369Y-95700836D03*
D28*
X97955327Y-95679306D03*
X94687443Y-96138578D03*
D17*
X136316405Y-86613416D03*
D14*
X132366405Y-86601080D03*
D17*
X133216405Y-86601080D03*
D15*
X129266413Y-91200916D03*
D16*
X134766405Y-84701080D03*
D15*
X129266397Y-80213252D03*
D16*
X134766405Y-88513416D03*
D17*
X133216405Y-86613416D03*
D14*
X137166405Y-86613416D03*
D16*
X134766405Y-88501080D03*
D17*
X136316405Y-86601080D03*
D15*
X140266397Y-91213252D03*
D14*
X132366405Y-86613416D03*
D16*
X134766405Y-84713416D03*
D14*
X137166405Y-86601080D03*
D15*
X140266413Y-80200916D03*
D18*
X134766405Y-86613416D03*
X134766405Y-86601080D03*
D19*
X138166413Y-82800916D03*
D20*
X138166413Y-87700916D03*
D32*
X116927768Y-76441772D03*
D15*
X108601412Y-70620581D03*
D33*
X116079839Y-76501065D03*
D15*
X119573772Y-69840953D03*
D34*
X114534475Y-76621493D03*
X114533614Y-76609187D03*
D33*
X112987390Y-76717310D03*
D32*
X112140321Y-76788909D03*
D33*
X112988251Y-76729616D03*
D15*
X109367888Y-81581478D03*
D31*
X114667012Y-78516865D03*
D15*
X120341937Y-80826464D03*
D32*
X112139461Y-76776603D03*
X116928629Y-76454078D03*
D31*
X114666152Y-78504559D03*
X114401077Y-74713816D03*
X114401937Y-74726122D03*
D33*
X116080699Y-76513371D03*
D19*
X117660254Y-72581108D03*
D20*
X118002061Y-77469172D03*
D13*
X136416417Y-71950924D03*
X133116417Y-71950924D03*
D29*
X143985987Y-84141126D03*
X105909197Y-85470796D03*
X124282757Y-65767566D03*
D44*
X179923762Y-125582928D03*
X180904082Y-121924325D03*
D45*
X180412326Y-123759584D03*
D46*
X178094104Y-123138419D03*
D44*
X179920569Y-125594843D03*
D15*
X176756210Y-116153994D03*
X184534385Y-129626187D03*
X187384603Y-118989092D03*
X173912409Y-126767266D03*
D45*
X180415518Y-123747669D03*
D44*
X180907275Y-121912410D03*
D46*
X178097296Y-123126503D03*
D47*
X181912703Y-124148838D03*
X181909511Y-124160754D03*
D46*
X182730548Y-124380750D03*
X182733740Y-124368834D03*
D47*
X178915141Y-123358415D03*
X178918333Y-123346499D03*
D19*
X184683229Y-120956979D03*
D20*
X183415015Y-125690015D03*
D29*
X177547591Y-109405962D03*
D30*
X177547591Y-109405962D03*
D28*
X79655326Y-102779307D03*
X76387442Y-103238579D03*
D31*
X113111424Y-56271226D03*
D15*
X118283259Y-51386057D03*
D32*
X110849808Y-58334013D03*
X115637255Y-57986876D03*
D15*
X107310899Y-52165685D03*
D32*
X110848948Y-58321707D03*
D31*
X113110564Y-56258920D03*
X113376499Y-60061969D03*
D33*
X114789326Y-58046169D03*
X114790186Y-58058475D03*
D32*
X115638116Y-57999182D03*
D34*
X113243101Y-58154291D03*
D31*
X113375639Y-60049663D03*
D34*
X113243962Y-58166597D03*
D15*
X108077375Y-63126582D03*
D33*
X111697738Y-58274720D03*
X111696877Y-58262414D03*
D15*
X119051424Y-62371568D03*
D19*
X116369741Y-54126212D03*
D20*
X116711548Y-59014276D03*
M02*
