M48
; DRILL file {KiCad (6.0.7-1)-1} date Thursday, December 29, 2022 at 03:50:35 PM
; FORMAT={-:-/ absolute / metric / decimal}
; #@! TF.CreationDate,2022-12-29T15:50:35-05:00
; #@! TF.GenerationSoftware,Kicad,Pcbnew,(6.0.7-1)-1
; #@! TF.FileFunction,Plated,1,2,PTH
FMAT,2
METRIC
; #@! TA.AperFunction,Plated,PTH,ComponentDrill
T1C0.300
; #@! TA.AperFunction,Plated,PTH,ViaDrill
T2C0.400
; #@! TA.AperFunction,Plated,PTH,ComponentDrill
T3C0.900
; #@! TA.AperFunction,Plated,PTH,ComponentDrill
T4C1.016
; #@! TA.AperFunction,Plated,PTH,ComponentDrill
T5C1.100
; #@! TA.AperFunction,Plated,PTH,ComponentDrill
T6C2.200
%
G90
G05
T1
X75.05Y-75.123
X75.404Y-77.638
X75.757Y-80.153
X76.111Y-82.669
X76.464Y-85.184
X76.818Y-87.699
X77.171Y-90.215
X77.654Y-75.398
X78.007Y-77.914
X78.361Y-80.429
X78.471Y-108.017
X78.714Y-82.944
X79.068Y-85.459
X79.421Y-87.975
X79.775Y-90.49
X83.125Y-107.363
X94.087Y-82.609
X96.656Y-100.894
X98.741Y-81.955
X99.232Y-119.219
X101.311Y-100.24
X103.886Y-118.565
X112.697Y-61.95
X113.989Y-80.422
X115.277Y-98.842
X117.385Y-61.622
X118.677Y-80.094
X119.965Y-98.514
X133.995Y-72.242
X133.995Y-53.742
X134.0Y-90.742
X138.695Y-72.242
X138.695Y-53.742
X138.7Y-90.742
X148.242Y-126.006
X152.518Y-79.742
X152.518Y-61.242
X152.518Y-97.992
X152.942Y-126.006
X157.218Y-79.742
X157.218Y-61.242
X157.218Y-97.992
X167.447Y-127.884
X170.995Y-106.342
X170.995Y-87.842
X170.995Y-69.342
X171.987Y-129.1
X175.695Y-106.342
X175.695Y-87.842
X175.695Y-69.342
X185.455Y-134.756
X189.526Y-137.106
T2
X81.075Y-73.264
X81.63Y-70.844
T4
X72.922Y-82.797
X81.722Y-81.56
T5
X76.368Y-100.6
X77.05Y-105.452
X83.1Y-99.641
X83.782Y-104.493
X91.982Y-75.179
X92.664Y-80.032
X94.554Y-93.477
X95.236Y-98.329
X97.129Y-111.802
X97.811Y-116.654
X98.714Y-74.221
X99.396Y-79.073
X101.286Y-92.518
X101.968Y-97.371
X103.861Y-110.843
X104.543Y-115.696
X111.117Y-54.404
X111.459Y-59.292
X112.408Y-72.876
X112.75Y-77.764
X113.696Y-91.297
X114.038Y-96.185
X117.899Y-53.917
X118.241Y-58.805
X119.191Y-72.39
X119.533Y-77.278
X120.479Y-90.81
X120.821Y-95.698
X132.945Y-83.104
X132.945Y-88.004
X132.945Y-64.604
X132.945Y-69.504
X132.945Y-46.104
X132.945Y-51.004
X139.745Y-83.092
X139.745Y-87.992
X139.745Y-64.592
X139.745Y-69.492
X139.745Y-46.092
X139.745Y-50.992
X147.192Y-118.368
X147.192Y-123.268
X151.468Y-72.104
X151.468Y-77.004
X151.468Y-90.354
X151.468Y-95.254
X151.468Y-53.604
X151.468Y-58.504
X153.992Y-118.356
X153.992Y-123.256
X158.268Y-72.092
X158.268Y-76.992
X158.268Y-90.342
X158.268Y-95.242
X158.268Y-53.592
X158.268Y-58.492
X167.124Y-124.997
X168.392Y-120.264
X169.945Y-98.692
X169.945Y-103.592
X169.945Y-61.704
X169.945Y-66.604
X169.945Y-80.204
X169.945Y-85.104
X173.695Y-126.745
X174.963Y-122.012
X176.745Y-98.68
X176.745Y-103.58
X176.745Y-61.692
X176.745Y-66.592
X176.745Y-80.192
X176.745Y-85.092
X185.929Y-131.826
X188.379Y-127.582
X191.824Y-135.215
X194.274Y-130.971
T6
X90.544Y-112.069
X105.044Y-66.819
X107.718Y-85.398
X126.091Y-65.695
X145.794Y-84.069
X166.674Y-51.242
X183.044Y-121.569
T3
X172.586Y-48.942G85X171.986Y-48.942
G05
X172.586Y-53.542G85X171.986Y-53.542
G05
X173.686Y-48.942G85X173.086Y-48.942
G05
X173.686Y-53.542G85X173.086Y-53.542
G05
X177.686Y-48.942G85X177.086Y-48.942
G05
X177.686Y-53.542G85X177.086Y-53.542
G05
X180.686Y-48.942G85X180.086Y-48.942
G05
X180.686Y-53.542G85X180.086Y-53.542
G05
T0
M30
