G04 #@! TF.GenerationSoftware,KiCad,Pcbnew,(6.0.7-1)-1*
G04 #@! TF.CreationDate,2022-12-29T15:50:44-05:00*
G04 #@! TF.ProjectId,musubi,6d757375-6269-42e6-9b69-6361645f7063,rev?*
G04 #@! TF.SameCoordinates,Original*
G04 #@! TF.FileFunction,Legend,Bot*
G04 #@! TF.FilePolarity,Positive*
%FSLAX46Y46*%
G04 Gerber Fmt 4.6, Leading zero omitted, Abs format (unit mm)*
G04 Created by KiCad (PCBNEW (6.0.7-1)-1) date 2022-12-29 15:50:44*
%MOMM*%
%LPD*%
G01*
G04 APERTURE LIST*
G04 Aperture macros list*
%AMHorizOval*
0 Thick line with rounded ends*
0 $1 width*
0 $2 $3 position (X,Y) of the first rounded end (center of the circle)*
0 $4 $5 position (X,Y) of the second rounded end (center of the circle)*
0 Add line between two ends*
20,1,$1,$2,$3,$4,$5,0*
0 Add two circle primitives to create the rounded ends*
1,1,$1,$2,$3*
1,1,$1,$4,$5*%
%AMRotRect*
0 Rectangle, with rotation*
0 The origin of the aperture is its center*
0 $1 length*
0 $2 width*
0 $3 Rotation angle, in degrees counterclockwise*
0 Add horizontal line*
21,1,$1,$2,0,0,$3*%
G04 Aperture macros list end*
%ADD10C,0.100000*%
%ADD11C,0.150000*%
%ADD12C,0.200000*%
%ADD13R,1.200000X1.200000*%
%ADD14O,0.300000X4.100000*%
%ADD15C,1.300000*%
%ADD16O,5.100000X0.300000*%
%ADD17O,2.000000X4.100000*%
%ADD18O,5.100000X4.100000*%
%ADD19C,1.600000*%
%ADD20C,1.400000*%
%ADD21RotRect,1.200000X1.200000X184.000000*%
%ADD22C,1.500000*%
%ADD23O,2.200000X1.600000*%
%ADD24HorizOval,0.300000X2.376643X0.334015X-2.376643X-0.334015X0*%
%ADD25HorizOval,0.300000X-0.264429X1.881509X0.264429X-1.881509X0*%
%ADD26HorizOval,4.100000X0.495134X0.069587X-0.495134X-0.069587X0*%
%ADD27HorizOval,2.000000X-0.146132X1.039781X0.146132X-1.039781X0*%
%ADD28RotRect,1.200000X1.200000X188.000000*%
%ADD29C,2.600000*%
%ADD30C,4.400000*%
%ADD31HorizOval,0.300000X2.394154X0.167416X-2.394154X-0.167416X0*%
%ADD32HorizOval,0.300000X-0.132537X1.895372X0.132537X-1.895372X0*%
%ADD33HorizOval,2.000000X-0.073244X1.047442X0.073244X-1.047442X0*%
%ADD34HorizOval,4.100000X0.498782X0.034878X-0.498782X-0.034878X0*%
%ADD35HorizOval,2.000000X-0.525000X-0.909327X0.525000X0.909327X0*%
%ADD36HorizOval,0.300000X2.078461X-1.200000X-2.078461X1.200000X0*%
%ADD37HorizOval,4.100000X0.433013X-0.250000X-0.433013X0.250000X0*%
%ADD38HorizOval,0.300000X-0.950000X-1.645448X0.950000X1.645448X0*%
%ADD39HorizOval,1.800000X0.470377X0.066107X-0.470377X-0.066107X0*%
%ADD40HorizOval,1.800000X-0.470377X-0.066107X0.470377X0.066107X0*%
%ADD41C,1.397000*%
%ADD42RotRect,1.200000X1.200000X165.000000*%
%ADD43RotRect,1.200000X1.200000X150.000000*%
%ADD44HorizOval,0.300000X2.318222X-0.621166X-2.318222X0.621166X0*%
%ADD45HorizOval,4.100000X0.482963X-0.129410X-0.482963X0.129410X0*%
%ADD46HorizOval,0.300000X-0.491756X-1.835259X0.491756X1.835259X0*%
%ADD47HorizOval,2.000000X-0.271760X-1.014222X0.271760X1.014222X0*%
G04 APERTURE END LIST*
D10*
X155218354Y-97992001D02*
X155218354Y-98542001D01*
X155618354Y-97992001D02*
X155218354Y-97992001D01*
X154618354Y-97992001D02*
X154118354Y-97992001D01*
X155218354Y-97992001D02*
X155218354Y-97442001D01*
X154618354Y-97592001D02*
X155218354Y-97992001D01*
X155218354Y-97992001D02*
X154618354Y-98392001D01*
X154618354Y-98392001D02*
X154618354Y-97592001D01*
D11*
X162268354Y-50492159D02*
X162268354Y-49492159D01*
X161268354Y-63492159D02*
X162268354Y-63492159D01*
X162268354Y-49492159D02*
X161268354Y-49492159D01*
X147468354Y-49492159D02*
X147468354Y-50492159D01*
X147468362Y-49491995D02*
X148468362Y-49491995D01*
X148468362Y-63491995D02*
X147468362Y-63491995D01*
X162268362Y-62491995D02*
X162268362Y-63491995D01*
X147468362Y-63491995D02*
X147468362Y-62491995D01*
D10*
X117371586Y-98695862D02*
X116872804Y-98730740D01*
X117399489Y-99094888D02*
X117343683Y-98296836D01*
X117343683Y-98296836D02*
X117970124Y-98654008D01*
X117970124Y-98654008D02*
X118008490Y-99202668D01*
X118369150Y-98626106D02*
X117970124Y-98654008D01*
X117970124Y-98654008D02*
X117399489Y-99094888D01*
X117970124Y-98654008D02*
X117931758Y-98105348D01*
X136095055Y-54141968D02*
X136095055Y-53341968D01*
X136095055Y-53341968D02*
X136695055Y-53741968D01*
X136095055Y-53741968D02*
X135595055Y-53741968D01*
X136695055Y-53741968D02*
X136695055Y-53191968D01*
X136695055Y-53741968D02*
X136695055Y-54291968D01*
X136695055Y-53741968D02*
X136095055Y-54141968D01*
X137095055Y-53741968D02*
X136695055Y-53741968D01*
X173094979Y-69741961D02*
X173094979Y-68941961D01*
X173694979Y-69341961D02*
X173694979Y-68791961D01*
X173094979Y-68941961D02*
X173694979Y-69341961D01*
X173694979Y-69341961D02*
X173094979Y-69741961D01*
X174094979Y-69341961D02*
X173694979Y-69341961D01*
X173694979Y-69341961D02*
X173694979Y-69891961D01*
X173094979Y-69341961D02*
X172594979Y-69341961D01*
D11*
X143191723Y-128255780D02*
X143191723Y-127255780D01*
X144191723Y-128255780D02*
X143191723Y-128255780D01*
X156991715Y-128255944D02*
X157991715Y-128255944D01*
X143191723Y-114255780D02*
X144191723Y-114255780D01*
X157991723Y-127255780D02*
X157991723Y-128255780D01*
X143191715Y-114255944D02*
X143191715Y-115255944D01*
X157991715Y-114255944D02*
X156991715Y-114255944D01*
X157991715Y-115255944D02*
X157991715Y-114255944D01*
X94544039Y-122150023D02*
X94404866Y-121159755D01*
X107251598Y-106226672D02*
X106261330Y-106365845D01*
X107390771Y-107216940D02*
X107251598Y-106226672D01*
X108209753Y-120229598D02*
X109200021Y-120090425D01*
X92595630Y-108286434D02*
X92734804Y-109276702D01*
X92595616Y-108286270D02*
X93585884Y-108147097D01*
X95534307Y-122010850D02*
X94544039Y-122150023D01*
X109060833Y-119099993D02*
X109200006Y-120090261D01*
D10*
X101905467Y-118843324D02*
X101366975Y-119322936D01*
X101255637Y-118530721D02*
X101905467Y-118843324D01*
X101905467Y-118843324D02*
X101828922Y-118298677D01*
X102301574Y-118787655D02*
X101905467Y-118843324D01*
X101366975Y-119322936D02*
X101255637Y-118530721D01*
X101311306Y-118926828D02*
X100816172Y-118996415D01*
X101905467Y-118843324D02*
X101982012Y-119387972D01*
X173694977Y-87841952D02*
X173694977Y-88391952D01*
X173694977Y-87841952D02*
X173694977Y-87291952D01*
X173694977Y-87841952D02*
X173094977Y-88241952D01*
X173094977Y-87841952D02*
X172594977Y-87841952D01*
X173094977Y-88241952D02*
X173094977Y-87441952D01*
X173094977Y-87441952D02*
X173694977Y-87841952D01*
X174094977Y-87841952D02*
X173694977Y-87841952D01*
D11*
X124162356Y-100476650D02*
X125159920Y-100406893D01*
X125090160Y-99409165D02*
X125159916Y-100406729D01*
X109419381Y-87473392D02*
X109489138Y-88470956D01*
X111393532Y-101369368D02*
X110395968Y-101439125D01*
X124253086Y-87438560D02*
X124183329Y-86440996D01*
X124183329Y-86440996D02*
X123185765Y-86510753D01*
X109419378Y-87473228D02*
X110416942Y-87403472D01*
X110395968Y-101439125D02*
X110326212Y-100441561D01*
X199788305Y-129420856D02*
X198922280Y-128920856D01*
X180837243Y-134645074D02*
X179971218Y-134145074D01*
X179971218Y-134145074D02*
X180471218Y-133279048D01*
X199288305Y-130286882D02*
X199788305Y-129420856D01*
X193288394Y-140679048D02*
X192788394Y-141545074D01*
X186971129Y-122020856D02*
X186471129Y-122886882D01*
X191922280Y-141045212D02*
X192788305Y-141545212D01*
X186971218Y-122020718D02*
X187837243Y-122520718D01*
X74773206Y-110808614D02*
X73782938Y-110947787D01*
X73782938Y-110947787D02*
X73643765Y-109957519D01*
X88299732Y-107897757D02*
X88438905Y-108888025D01*
X71834515Y-97084034D02*
X72824783Y-96944861D01*
X71834529Y-97084198D02*
X71973703Y-98074466D01*
X86629670Y-96014704D02*
X86490497Y-95024436D01*
X86490497Y-95024436D02*
X85500229Y-95163609D01*
X87448652Y-109027362D02*
X88438920Y-108888189D01*
D12*
X126379164Y-73945102D02*
G75*
G03*
X125253530Y-74043582I376731J-10788345D01*
G01*
X146274866Y-91064229D02*
G75*
G03*
X147163251Y-86880128I-19518962J6330703D01*
G01*
X130320821Y-104941422D02*
G75*
G03*
X134432756Y-103763335I-3564924J20207915D01*
G01*
X120425205Y-104252489D02*
G75*
G03*
X124609302Y-105140873I6330717J19519024D01*
G01*
X106548008Y-88298443D02*
G75*
G03*
X107726095Y-92410379I20207896J3564917D01*
G01*
X107236940Y-78402828D02*
G75*
G03*
X106348557Y-82586924I19519125J-6330732D01*
G01*
X146963800Y-81168609D02*
G75*
G03*
X145785712Y-77056671I-20207896J-3564917D01*
G01*
X123190987Y-64525630D02*
G75*
G03*
X119079051Y-65703717I3564917J-20207896D01*
G01*
X127508925Y-73964823D02*
G75*
G03*
X126379164Y-73945102I-753024J-10768603D01*
G01*
X127132644Y-95521951D02*
G75*
G03*
X128258278Y-95423470I-376737J10788325D01*
G01*
X133086608Y-65214564D02*
G75*
G03*
X128902506Y-64326179I-6330704J-19518962D01*
G01*
X126002883Y-95502230D02*
G75*
G03*
X127132644Y-95521950I753018J10768625D01*
G01*
D11*
X180744975Y-95579779D02*
X180744975Y-94579779D01*
X179744975Y-108579779D02*
X180744975Y-108579779D01*
X166944983Y-108579615D02*
X165944983Y-108579615D01*
X165944983Y-94579615D02*
X166944983Y-94579615D01*
X180744975Y-94579779D02*
X179744975Y-94579779D01*
X165944983Y-108579615D02*
X165944983Y-107579615D01*
X165944975Y-94579779D02*
X165944975Y-95579779D01*
X180744983Y-107579615D02*
X180744983Y-108579615D01*
D10*
X136100019Y-91141977D02*
X136100019Y-90341977D01*
X136700019Y-90741977D02*
X136700019Y-91291977D01*
X136100019Y-90341977D02*
X136700019Y-90741977D01*
X137100019Y-90741977D02*
X136700019Y-90741977D01*
X136700019Y-90741977D02*
X136100019Y-91141977D01*
X136700019Y-90741977D02*
X136700019Y-90191977D01*
X136100019Y-90741977D02*
X135600019Y-90741977D01*
X114791818Y-61803273D02*
X114293036Y-61838151D01*
X114819721Y-62202299D02*
X114763915Y-61404247D01*
X115390356Y-61761419D02*
X114819721Y-62202299D01*
X114763915Y-61404247D02*
X115390356Y-61761419D01*
X115390356Y-61761419D02*
X115351990Y-61212759D01*
X115390356Y-61761419D02*
X115428722Y-62310079D01*
X115789382Y-61733517D02*
X115390356Y-61761419D01*
D11*
X142745054Y-55992146D02*
X143745054Y-55992146D01*
X128945062Y-55991982D02*
X128945062Y-54991982D01*
X143745054Y-42992146D02*
X143745054Y-41992146D01*
X128945054Y-41992146D02*
X128945054Y-42992146D01*
X143745054Y-41992146D02*
X142745054Y-41992146D01*
X143745062Y-54991982D02*
X143745062Y-55991982D01*
X129945062Y-55991982D02*
X128945062Y-55991982D01*
X128945062Y-41991982D02*
X129945062Y-41991982D01*
X90020237Y-89961520D02*
X90159411Y-90951788D01*
X90020223Y-89961356D02*
X91010491Y-89822183D01*
X106485440Y-100775079D02*
X106624613Y-101765347D01*
X104676205Y-87901758D02*
X103685937Y-88040931D01*
X105634360Y-101904684D02*
X106624628Y-101765511D01*
X104815378Y-88892026D02*
X104676205Y-87901758D01*
X92958914Y-103685936D02*
X91968646Y-103825109D01*
X91968646Y-103825109D02*
X91829473Y-102834841D01*
X143745030Y-60492132D02*
X142745030Y-60492132D01*
X143745030Y-61492132D02*
X143745030Y-60492132D01*
X128945038Y-60491968D02*
X129945038Y-60491968D01*
X128945030Y-60492132D02*
X128945030Y-61492132D01*
X142745030Y-74492132D02*
X143745030Y-74492132D01*
X128945038Y-74491968D02*
X128945038Y-73491968D01*
X129945038Y-74491968D02*
X128945038Y-74491968D01*
X143745038Y-73491968D02*
X143745038Y-74491968D01*
X67099295Y-73332031D02*
X67238468Y-74322299D01*
X84706261Y-70857534D02*
X83715993Y-70996707D01*
X87628897Y-91653163D02*
X86638628Y-91792336D01*
X70021930Y-94127661D02*
X71012198Y-93988488D01*
X70021930Y-94127661D02*
X69882757Y-93137393D01*
X84706261Y-70857534D02*
X84845434Y-71847802D01*
X67099295Y-73332031D02*
X68089563Y-73192858D01*
X87628897Y-91653163D02*
X87489723Y-90662895D01*
G36*
X73840403Y-73377202D02*
G01*
X73761800Y-73388249D01*
X73679149Y-73390446D01*
X73616695Y-73370969D01*
X73574281Y-73325831D01*
X73551748Y-73251047D01*
X73553152Y-73176907D01*
X73581222Y-73124268D01*
X73631533Y-73090144D01*
X73699657Y-73071554D01*
X73747715Y-73065600D01*
X73796215Y-73062792D01*
X73840403Y-73377202D01*
G37*
G36*
X76450940Y-73640632D02*
G01*
X74588059Y-73902443D01*
X73913650Y-73997225D01*
X73449895Y-74062402D01*
X73449764Y-74062420D01*
X73336376Y-74067123D01*
X73224248Y-74049615D01*
X73117692Y-74010568D01*
X73020800Y-73951483D01*
X72937296Y-73874630D01*
X72870391Y-73782964D01*
X72822654Y-73680006D01*
X72795921Y-73569714D01*
X72791218Y-73456326D01*
X72808726Y-73344198D01*
X72847774Y-73237642D01*
X72863632Y-73211637D01*
X73341906Y-73211637D01*
X73345244Y-73317774D01*
X73371525Y-73421756D01*
X73417668Y-73501037D01*
X73483674Y-73555616D01*
X73567916Y-73587863D01*
X73668766Y-73600140D01*
X73786226Y-73592450D01*
X73855396Y-73582729D01*
X73901572Y-73911287D01*
X74094934Y-73884111D01*
X73959941Y-72923589D01*
X73894726Y-72921532D01*
X73822204Y-72924510D01*
X73750910Y-72930523D01*
X73689379Y-72937567D01*
X73576160Y-72962118D01*
X73483836Y-73001010D01*
X73412409Y-73054243D01*
X73364294Y-73123793D01*
X73341906Y-73211637D01*
X72863632Y-73211637D01*
X72906859Y-73140750D01*
X72983711Y-73057247D01*
X73075377Y-72990341D01*
X73178335Y-72942605D01*
X73288627Y-72915872D01*
X73288758Y-72915853D01*
X73469403Y-72890465D01*
X74104375Y-72890465D01*
X74191645Y-73511425D01*
X74206954Y-73591833D01*
X74229018Y-73663276D01*
X74259636Y-73724300D01*
X74300609Y-73773448D01*
X74352247Y-73810075D01*
X74414859Y-73833538D01*
X74489907Y-73842829D01*
X74578854Y-73836942D01*
X74664602Y-73818277D01*
X74733199Y-73788798D01*
X74824102Y-73699876D01*
X74848762Y-73641504D01*
X74860982Y-73574460D01*
X74862498Y-73499702D01*
X74855050Y-73418189D01*
X74767780Y-72797230D01*
X74572846Y-72824626D01*
X74658349Y-73433009D01*
X74666532Y-73536862D01*
X74654698Y-73606657D01*
X74618121Y-73648669D01*
X74552069Y-73669174D01*
X74482925Y-73667670D01*
X74435287Y-73636692D01*
X74403778Y-73572187D01*
X74383019Y-73470102D01*
X74297737Y-72863290D01*
X74104375Y-72890465D01*
X73469403Y-72890465D01*
X75077605Y-72664447D01*
X75712582Y-72664447D01*
X75735118Y-72824796D01*
X76131275Y-72769120D01*
X76161985Y-72987634D01*
X75817706Y-73036019D01*
X75840242Y-73196368D01*
X76184520Y-73147983D01*
X76222963Y-73421520D01*
X75792222Y-73482057D01*
X75814757Y-73642406D01*
X76438862Y-73554694D01*
X76306001Y-72609339D01*
X76458295Y-72609339D01*
X76530252Y-72756330D01*
X76611867Y-72703981D01*
X76726665Y-72671014D01*
X76817806Y-72675038D01*
X76902569Y-72719234D01*
X76972063Y-72814471D01*
X76998142Y-72884548D01*
X77015821Y-72971837D01*
X77023843Y-73075179D01*
X77016683Y-73163019D01*
X76994343Y-73235359D01*
X76928051Y-73312608D01*
X76818966Y-73350582D01*
X76691558Y-73350855D01*
X76607309Y-73327426D01*
X76580006Y-73486764D01*
X76697353Y-73517563D01*
X76774852Y-73522904D01*
X76861471Y-73516141D01*
X76985872Y-73483695D01*
X77078832Y-73428318D01*
X77338075Y-73428318D01*
X77545585Y-73399154D01*
X77559580Y-73167944D01*
X77818969Y-73131489D01*
X77894581Y-73350106D01*
X78095803Y-73321826D01*
X78052186Y-73212693D01*
X78009019Y-73107665D01*
X77966300Y-73006742D01*
X77924030Y-72909924D01*
X77882208Y-72817211D01*
X77830720Y-72705366D01*
X77780249Y-72596486D01*
X77730797Y-72490567D01*
X77682362Y-72387612D01*
X77471707Y-72417218D01*
X77452422Y-72530592D01*
X77433692Y-72647194D01*
X77415515Y-72767025D01*
X77397892Y-72890086D01*
X77384399Y-72991407D01*
X77371670Y-73095890D01*
X77359707Y-73203537D01*
X77348507Y-73314346D01*
X77338075Y-73428318D01*
X77078832Y-73428318D01*
X77084489Y-73424948D01*
X77157322Y-73339901D01*
X77194519Y-73260229D01*
X77216195Y-73168511D01*
X77222353Y-73064747D01*
X77212990Y-72948936D01*
X77188663Y-72835729D01*
X77149708Y-72738205D01*
X77097976Y-72656704D01*
X77035318Y-72591566D01*
X76962800Y-72543245D01*
X76881487Y-72512191D01*
X76793230Y-72498744D01*
X76699881Y-72503247D01*
X76607559Y-72525039D01*
X76537220Y-72554964D01*
X76487871Y-72585945D01*
X76458295Y-72609339D01*
X76306001Y-72609339D01*
X76302102Y-72581595D01*
X75712582Y-72664447D01*
X75077605Y-72664447D01*
X77429400Y-72333924D01*
X78064370Y-72333924D01*
X78086905Y-72494274D01*
X78489350Y-72437714D01*
X78522491Y-72673521D01*
X78170352Y-72723011D01*
X78192887Y-72883360D01*
X78545027Y-72833870D01*
X78603575Y-73250463D01*
X78796938Y-73223288D01*
X78660178Y-72250189D01*
X78064370Y-72333924D01*
X77429400Y-72333924D01*
X78647879Y-72162678D01*
X78648009Y-72162660D01*
X78761397Y-72157956D01*
X78873525Y-72175465D01*
X78980081Y-72214512D01*
X79076974Y-72273597D01*
X79160477Y-72350450D01*
X79227382Y-72442115D01*
X79275119Y-72545074D01*
X79301852Y-72655365D01*
X79306555Y-72768753D01*
X79289047Y-72880881D01*
X79250000Y-72987438D01*
X79190915Y-73084330D01*
X79114062Y-73167833D01*
X79022396Y-73234738D01*
X78919438Y-73282475D01*
X78809146Y-73309208D01*
X78809015Y-73309226D01*
X77557663Y-73485092D01*
X76870677Y-73581642D01*
X76450940Y-73640632D01*
G37*
G36*
X77660684Y-72653535D02*
G01*
X77699535Y-72747467D01*
X77735132Y-72841056D01*
X77768923Y-72938905D01*
X77578705Y-72965639D01*
X77583430Y-72862376D01*
X77591064Y-72762712D01*
X77602519Y-72661710D01*
X77616910Y-72553082D01*
X77660684Y-72653535D01*
G37*
D10*
X173694972Y-106341952D02*
X173694972Y-105791952D01*
X173094972Y-106741952D02*
X173094972Y-105941952D01*
X173694972Y-106341952D02*
X173694972Y-106891952D01*
X174094972Y-106341952D02*
X173694972Y-106341952D01*
X173094972Y-106341952D02*
X172594972Y-106341952D01*
X173694972Y-106341952D02*
X173094972Y-106741952D01*
X173094972Y-105941952D02*
X173694972Y-106341952D01*
X155618351Y-79741990D02*
X155218351Y-79741990D01*
X154618351Y-80141990D02*
X154618351Y-79341990D01*
X154618351Y-79741990D02*
X154118351Y-79741990D01*
X155218351Y-79741990D02*
X155218351Y-80291990D01*
X155218351Y-79741990D02*
X154618351Y-80141990D01*
X155218351Y-79741990D02*
X155218351Y-79191990D01*
X154618351Y-79341990D02*
X155218351Y-79741990D01*
X169372240Y-128813627D02*
X169579295Y-128040886D01*
X170055323Y-128582548D02*
X170197674Y-128051288D01*
X169579295Y-128040886D02*
X170055323Y-128582548D01*
X170055323Y-128582548D02*
X169912973Y-129113807D01*
X169475768Y-128427256D02*
X168992805Y-128297847D01*
X170055323Y-128582548D02*
X169372240Y-128813627D01*
X170441693Y-128686075D02*
X170055323Y-128582548D01*
D11*
X180744988Y-89091952D02*
X180744988Y-90091952D01*
X180744980Y-76092116D02*
X179744980Y-76092116D01*
X165944980Y-76092116D02*
X165944980Y-77092116D01*
X166944988Y-90091952D02*
X165944988Y-90091952D01*
X165944988Y-76091952D02*
X166944988Y-76091952D01*
X179744980Y-90092116D02*
X180744980Y-90092116D01*
X165944988Y-90091952D02*
X165944988Y-89091952D01*
X180744980Y-77092116D02*
X180744980Y-76092116D01*
D10*
X96166066Y-82316461D02*
X95670932Y-82386048D01*
X96760227Y-82232957D02*
X96836772Y-82777605D01*
X96221735Y-82712569D02*
X96110397Y-81920354D01*
X96110397Y-81920354D02*
X96760227Y-82232957D01*
X96760227Y-82232957D02*
X96683682Y-81688310D01*
X96760227Y-82232957D02*
X96221735Y-82712569D01*
X97156334Y-82177288D02*
X96760227Y-82232957D01*
D11*
X180744978Y-58592115D02*
X180744978Y-57592115D01*
X166944986Y-71591951D02*
X165944986Y-71591951D01*
X165944986Y-57591951D02*
X166944986Y-57591951D01*
X179744978Y-71592115D02*
X180744978Y-71592115D01*
X180744978Y-57592115D02*
X179744978Y-57592115D01*
X165944986Y-71591951D02*
X165944986Y-70591951D01*
X180744986Y-70591951D02*
X180744986Y-71591951D01*
X165944978Y-57592115D02*
X165944978Y-58592115D01*
X103062802Y-83607008D02*
X104053070Y-83467835D01*
X103913882Y-82477403D02*
X104053055Y-83467671D01*
X89397088Y-85527433D02*
X89257915Y-84537165D01*
X102243820Y-70594350D02*
X102104647Y-69604082D01*
X87448679Y-71663844D02*
X87587853Y-72654112D01*
X87448665Y-71663680D02*
X88438933Y-71524507D01*
X90387356Y-85388260D02*
X89397088Y-85527433D01*
X102104647Y-69604082D02*
X101114379Y-69743255D01*
D10*
X116055624Y-79876634D02*
X116682065Y-80233806D01*
X117081091Y-80205904D02*
X116682065Y-80233806D01*
X116111430Y-80674686D02*
X116055624Y-79876634D01*
X116682065Y-80233806D02*
X116111430Y-80674686D01*
X116682065Y-80233806D02*
X116643699Y-79685146D01*
X116682065Y-80233806D02*
X116720431Y-80782466D01*
X116083527Y-80275660D02*
X115584745Y-80310538D01*
D11*
X147468358Y-67991999D02*
X148468358Y-67991999D01*
X162268350Y-67992163D02*
X161268350Y-67992163D01*
X162268358Y-80991999D02*
X162268358Y-81991999D01*
X161268350Y-81992163D02*
X162268350Y-81992163D01*
X147468350Y-67992163D02*
X147468350Y-68992163D01*
X162268350Y-68992163D02*
X162268350Y-67992163D01*
X148468358Y-81991999D02*
X147468358Y-81991999D01*
X147468358Y-81991999D02*
X147468358Y-80991999D01*
D10*
X151341715Y-126005779D02*
X150941715Y-126005779D01*
X150341715Y-125605779D02*
X150941715Y-126005779D01*
X150341715Y-126005779D02*
X149841715Y-126005779D01*
X150941715Y-126005779D02*
X150941715Y-126555779D01*
X150941715Y-126005779D02*
X150941715Y-125455779D01*
X150941715Y-126005779D02*
X150341715Y-126405779D01*
X150341715Y-126405779D02*
X150341715Y-125605779D01*
X187074070Y-136152042D02*
X187474070Y-135459222D01*
X187793685Y-136105632D02*
X187518685Y-136581946D01*
X187793685Y-136105632D02*
X187074070Y-136152042D01*
X187474070Y-135459222D02*
X187793685Y-136105632D01*
X187793685Y-136105632D02*
X188068685Y-135629318D01*
X187274070Y-135805632D02*
X186841057Y-135555632D01*
X188140095Y-136305632D02*
X187793685Y-136105632D01*
X154618352Y-60841986D02*
X155218352Y-61241986D01*
X155218352Y-61241986D02*
X154618352Y-61641986D01*
X154618352Y-61241986D02*
X154118352Y-61241986D01*
X154618352Y-61641986D02*
X154618352Y-60841986D01*
X155618352Y-61241986D02*
X155218352Y-61241986D01*
X155218352Y-61241986D02*
X155218352Y-61791986D01*
X155218352Y-61241986D02*
X155218352Y-60691986D01*
D11*
X162268352Y-87242154D02*
X162268352Y-86242154D01*
X148468360Y-100241990D02*
X147468360Y-100241990D01*
X162268352Y-86242154D02*
X161268352Y-86242154D01*
X162268360Y-99241990D02*
X162268360Y-100241990D01*
X147468360Y-100241990D02*
X147468360Y-99241990D01*
X147468360Y-86241990D02*
X148468360Y-86241990D01*
X147468352Y-86242154D02*
X147468352Y-87242154D01*
X161268352Y-100242154D02*
X162268352Y-100242154D01*
D10*
X99330074Y-100518427D02*
X99253529Y-99973780D01*
X98680244Y-100205824D02*
X99330074Y-100518427D01*
X99726181Y-100462758D02*
X99330074Y-100518427D01*
X98735913Y-100601931D02*
X98240779Y-100671518D01*
X99330074Y-100518427D02*
X99406619Y-101063075D01*
X98791582Y-100998039D02*
X98680244Y-100205824D01*
X99330074Y-100518427D02*
X98791582Y-100998039D01*
D11*
X143745021Y-79992137D02*
X143745021Y-78992137D01*
X142745021Y-92992137D02*
X143745021Y-92992137D01*
X128945029Y-92991973D02*
X128945029Y-91991973D01*
X128945021Y-78992137D02*
X128945021Y-79992137D01*
X143745021Y-78992137D02*
X142745021Y-78992137D01*
X129945029Y-92991973D02*
X128945029Y-92991973D01*
X128945029Y-78991973D02*
X129945029Y-78991973D01*
X143745029Y-91991973D02*
X143745029Y-92991973D01*
X122895269Y-68020808D02*
X121897705Y-68090565D01*
X108131321Y-69053204D02*
X108201078Y-70050768D01*
X122965026Y-69018372D02*
X122895269Y-68020808D01*
X123802100Y-80988977D02*
X123871856Y-81986541D01*
X108131318Y-69053040D02*
X109128882Y-68983284D01*
X110105472Y-82949180D02*
X109107908Y-83018937D01*
X109107908Y-83018937D02*
X109038152Y-82021373D01*
X122874296Y-82056462D02*
X123871860Y-81986705D01*
D10*
X136695033Y-72241982D02*
X136695033Y-71691982D01*
X136095033Y-72241982D02*
X135595033Y-72241982D01*
X136095033Y-72641982D02*
X136095033Y-71841982D01*
X136695033Y-72241982D02*
X136695033Y-72791982D01*
X136095033Y-71841982D02*
X136695033Y-72241982D01*
X136695033Y-72241982D02*
X136095033Y-72641982D01*
X137095033Y-72241982D02*
X136695033Y-72241982D01*
D11*
X161969030Y-128779399D02*
X162227849Y-127813473D01*
X179888149Y-119087116D02*
X178922223Y-118828297D01*
X162934956Y-129038218D02*
X161969030Y-128779399D01*
X175298757Y-132351258D02*
X176264682Y-132610077D01*
X179629330Y-120053041D02*
X179888149Y-119087116D01*
X165592497Y-115256437D02*
X166558423Y-115515256D01*
X176523552Y-131643995D02*
X176264733Y-132609921D01*
X165592447Y-115256594D02*
X165333628Y-116222520D01*
D10*
X81144365Y-107641098D02*
X80605873Y-108120710D01*
X80494535Y-107328495D02*
X81144365Y-107641098D01*
X81144365Y-107641098D02*
X81220910Y-108185746D01*
X80605873Y-108120710D02*
X80494535Y-107328495D01*
X80550204Y-107724602D02*
X80055070Y-107794189D01*
X81144365Y-107641098D02*
X81067820Y-107096451D01*
X81540472Y-107585429D02*
X81144365Y-107641098D01*
D11*
X108813757Y-64476803D02*
X107816193Y-64546560D01*
X107816193Y-64546560D02*
X107746437Y-63548996D01*
X121582581Y-63584085D02*
X122580145Y-63514328D01*
X122510385Y-62516600D02*
X122580141Y-63514164D01*
X106839603Y-50580663D02*
X107837167Y-50510907D01*
X121603554Y-49548431D02*
X120605990Y-49618188D01*
X121673311Y-50545995D02*
X121603554Y-49548431D01*
X106839606Y-50580827D02*
X106909363Y-51578391D01*
G36*
X153806292Y-110982653D02*
G01*
X153467707Y-110982653D01*
X153467707Y-111916070D01*
X153236854Y-111916070D01*
X153236854Y-110982653D01*
X152893653Y-110982653D01*
X152893653Y-110795662D01*
X153806292Y-110795662D01*
X153806292Y-110982653D01*
G37*
G36*
X148713843Y-111876739D02*
G01*
X148639799Y-111808338D01*
X148586361Y-111714116D01*
X148554298Y-111595611D01*
X148546605Y-111492839D01*
X148765999Y-111492839D01*
X148776195Y-111607496D01*
X148803705Y-111688294D01*
X148851222Y-111736196D01*
X148921440Y-111752164D01*
X148992523Y-111735523D01*
X149041099Y-111685601D01*
X149069090Y-111601436D01*
X149078420Y-111482066D01*
X149078420Y-111209659D01*
X149067358Y-111098176D01*
X149038790Y-111020744D01*
X148991177Y-110975439D01*
X148922979Y-110960338D01*
X148852857Y-110976209D01*
X148804090Y-111023822D01*
X148775521Y-111106256D01*
X148765999Y-111226588D01*
X148765999Y-111492839D01*
X148546605Y-111492839D01*
X148543610Y-111452824D01*
X148543610Y-111246595D01*
X148555666Y-111107955D01*
X148588755Y-110992657D01*
X148642877Y-110900700D01*
X148717092Y-110833796D01*
X148810459Y-110793653D01*
X148922979Y-110780272D01*
X149035541Y-110793781D01*
X149129037Y-110834309D01*
X149203465Y-110901855D01*
X149257545Y-110995479D01*
X149289993Y-111114240D01*
X149300808Y-111258138D01*
X149300808Y-111464367D01*
X149288753Y-111603050D01*
X149255664Y-111718476D01*
X149201542Y-111810647D01*
X149127327Y-111877765D01*
X149033959Y-111918036D01*
X148921440Y-111931460D01*
X148807723Y-111917780D01*
X148713843Y-111876739D01*
G37*
G36*
X153896333Y-109921531D02*
G01*
X153797631Y-109893109D01*
X153718566Y-109846428D01*
X153660861Y-109781833D01*
X153626237Y-109699667D01*
X153614696Y-109599932D01*
X153615026Y-109597606D01*
X153847240Y-109597606D01*
X153893361Y-109705739D01*
X153948494Y-109735098D01*
X154021648Y-109744884D01*
X154220861Y-109744884D01*
X154220861Y-109440252D01*
X154007696Y-109440252D01*
X153918554Y-109458769D01*
X153865069Y-109511221D01*
X153847240Y-109597606D01*
X153615026Y-109597606D01*
X153627196Y-109511953D01*
X153664693Y-109438701D01*
X153723895Y-109383860D01*
X153801507Y-109351110D01*
X153733875Y-109313225D01*
X153682909Y-109258480D01*
X153650934Y-109190364D01*
X153643453Y-109135619D01*
X153872820Y-109135619D01*
X153892371Y-109212186D01*
X153951024Y-109258953D01*
X154048778Y-109275921D01*
X154220861Y-109275921D01*
X154220861Y-108991442D01*
X154058080Y-108991442D01*
X153974849Y-108999872D01*
X153917391Y-109025161D01*
X153883963Y-109069635D01*
X153872820Y-109135619D01*
X153643453Y-109135619D01*
X153640276Y-109112365D01*
X153652076Y-109019218D01*
X153687474Y-108942349D01*
X153746471Y-108881759D01*
X153828292Y-108838049D01*
X153932162Y-108811823D01*
X154058080Y-108803081D01*
X154453405Y-108803081D01*
X154453405Y-109931695D01*
X154014672Y-109931695D01*
X153896333Y-109921531D01*
G37*
G36*
X158910455Y-111916070D02*
G01*
X158679601Y-111916070D01*
X158679601Y-111521311D01*
X158477220Y-111521311D01*
X158353970Y-111510751D01*
X158249958Y-111479073D01*
X158165184Y-111426276D01*
X158102554Y-111355182D01*
X158064976Y-111268612D01*
X158052640Y-111168105D01*
X158285612Y-111168105D01*
X158297636Y-111238900D01*
X158333707Y-111291227D01*
X158392670Y-111323546D01*
X158473373Y-111334320D01*
X158679601Y-111334320D01*
X158679601Y-110982653D01*
X158467986Y-110982653D01*
X158391805Y-110996505D01*
X158334091Y-111034980D01*
X158297732Y-111093655D01*
X158285612Y-111168105D01*
X158052640Y-111168105D01*
X158052451Y-111166566D01*
X158065340Y-111063933D01*
X158104008Y-110973034D01*
X158166627Y-110897719D01*
X158251369Y-110841833D01*
X158354772Y-110807205D01*
X158473373Y-110795662D01*
X158910455Y-110795662D01*
X158910455Y-111916070D01*
G37*
G36*
X154206779Y-111901363D02*
G01*
X154130641Y-111863743D01*
X154063650Y-111812271D01*
X154007861Y-111748145D01*
X153963272Y-111671365D01*
X153930782Y-111583727D01*
X153911287Y-111487025D01*
X153905025Y-111385107D01*
X154138720Y-111385107D01*
X154146074Y-111492283D01*
X154167107Y-111580905D01*
X154201820Y-111650973D01*
X154277617Y-111719363D01*
X154380347Y-111742160D01*
X154485000Y-111718498D01*
X154561951Y-111647510D01*
X154597007Y-111575860D01*
X154618040Y-111487110D01*
X154625051Y-111381260D01*
X154625051Y-111326625D01*
X154617612Y-111219534D01*
X154596323Y-111131169D01*
X154561182Y-111061528D01*
X154484808Y-110993715D01*
X154381886Y-110971111D01*
X154278387Y-110994004D01*
X154201820Y-111062682D01*
X154166765Y-111133135D01*
X154145732Y-111222399D01*
X154138720Y-111330472D01*
X154138720Y-111385107D01*
X153905025Y-111385107D01*
X153904789Y-111381260D01*
X153904789Y-111331242D01*
X153911416Y-111225776D01*
X153931295Y-111128946D01*
X153964426Y-111040751D01*
X154009657Y-110963373D01*
X154065831Y-110898990D01*
X154132949Y-110847604D01*
X154209002Y-110810198D01*
X154291981Y-110787753D01*
X154381886Y-110780272D01*
X154471790Y-110787753D01*
X154554769Y-110810198D01*
X154630822Y-110847604D01*
X154697941Y-110898990D01*
X154754115Y-110963373D01*
X154799345Y-111040751D01*
X154832477Y-111129031D01*
X154852356Y-111226118D01*
X154858982Y-111332011D01*
X154858982Y-111387416D01*
X154851886Y-111491000D01*
X154831622Y-111586292D01*
X154798191Y-111673289D01*
X154752704Y-111749770D01*
X154696274Y-111813511D01*
X154628899Y-111864512D01*
X154552717Y-111901705D01*
X154469866Y-111924021D01*
X154380347Y-111931460D01*
X154290015Y-111923936D01*
X154206779Y-111901363D01*
G37*
G36*
X152375772Y-111300461D02*
G01*
X152607395Y-110795662D01*
X152860564Y-110795662D01*
X152492738Y-111509768D01*
X152492738Y-111916070D01*
X152258037Y-111916070D01*
X152258037Y-111509768D01*
X151890211Y-110795662D01*
X152142610Y-110795662D01*
X152375772Y-111300461D01*
G37*
G36*
X149900257Y-111525928D02*
G01*
X149467023Y-111525928D01*
X149467023Y-111346632D01*
X149900257Y-111346632D01*
X149900257Y-111525928D01*
G37*
G36*
X156184598Y-108797655D02*
G01*
X156287014Y-108827886D01*
X156372280Y-108876042D01*
X156435067Y-108939895D01*
X156473727Y-109016537D01*
X156486614Y-109103063D01*
X156465254Y-109212359D01*
X156401176Y-109305635D01*
X156294378Y-109382891D01*
X156211243Y-109421164D01*
X156102917Y-109460018D01*
X156000597Y-109498194D01*
X155935485Y-109534432D01*
X155888976Y-109635589D01*
X155935485Y-109729769D01*
X155991102Y-109755058D01*
X156064934Y-109763488D01*
X156162603Y-109751812D01*
X156232366Y-109716785D01*
X156274224Y-109658407D01*
X156288177Y-109576677D01*
X156521496Y-109576677D01*
X156507446Y-109679384D01*
X156465297Y-109768914D01*
X156396406Y-109843037D01*
X156302129Y-109899526D01*
X156189345Y-109935280D01*
X156064934Y-109947197D01*
X155948404Y-109937939D01*
X155848927Y-109910163D01*
X155766503Y-109863869D01*
X155704922Y-109801298D01*
X155667973Y-109724687D01*
X155655657Y-109634038D01*
X155678330Y-109513115D01*
X155746349Y-109413897D01*
X155818782Y-109358172D01*
X155915159Y-109308821D01*
X156035479Y-109265844D01*
X156130144Y-109232125D01*
X156198647Y-109196080D01*
X156254070Y-109103838D01*
X156206786Y-109008883D01*
X156150007Y-108981849D01*
X156074236Y-108972838D01*
X155995753Y-108983593D01*
X155937035Y-109015859D01*
X155900409Y-109067503D01*
X155888201Y-109136394D01*
X155655657Y-109136394D01*
X155668738Y-109040276D01*
X155707979Y-108955010D01*
X155770863Y-108884181D01*
X155854870Y-108831374D01*
X155956026Y-108798527D01*
X156070360Y-108787578D01*
X156184598Y-108797655D01*
G37*
G36*
X157893931Y-111916070D02*
G01*
X157663078Y-111916070D01*
X157663078Y-111505920D01*
X157479165Y-111505920D01*
X157269089Y-111916070D01*
X157021307Y-111916070D01*
X157021307Y-111905296D01*
X157263702Y-111447438D01*
X157175690Y-111394245D01*
X157113263Y-111325470D01*
X157076038Y-111239381D01*
X157065810Y-111152715D01*
X157294483Y-111152715D01*
X157306410Y-111222067D01*
X157342192Y-111274683D01*
X157399713Y-111307868D01*
X157476857Y-111318929D01*
X157663078Y-111318929D01*
X157663078Y-110982653D01*
X157477626Y-110982653D01*
X157396539Y-110994004D01*
X157339499Y-111028054D01*
X157305737Y-111081920D01*
X157294483Y-111152715D01*
X157065810Y-111152715D01*
X157063630Y-111134247D01*
X157075600Y-111034638D01*
X157111510Y-110951274D01*
X157171361Y-110884156D01*
X157253271Y-110834993D01*
X157355360Y-110805495D01*
X157477626Y-110795662D01*
X157893931Y-110795662D01*
X157893931Y-111916070D01*
G37*
G36*
X153425561Y-109931695D02*
G01*
X153193017Y-109931695D01*
X153193017Y-108803081D01*
X153425561Y-108803081D01*
X153425561Y-109931695D01*
G37*
G36*
X151787866Y-111916070D02*
G01*
X151557013Y-111916070D01*
X151557013Y-111521311D01*
X151354632Y-111521311D01*
X151231382Y-111510751D01*
X151127370Y-111479073D01*
X151042595Y-111426276D01*
X150979966Y-111355182D01*
X150942388Y-111268612D01*
X150930051Y-111168105D01*
X151163024Y-111168105D01*
X151175047Y-111238900D01*
X151211118Y-111291227D01*
X151270082Y-111323546D01*
X151350784Y-111334320D01*
X151557013Y-111334320D01*
X151557013Y-110982653D01*
X151345398Y-110982653D01*
X151269216Y-110996505D01*
X151211503Y-111034980D01*
X151175143Y-111093655D01*
X151163024Y-111168105D01*
X150930051Y-111168105D01*
X150929862Y-111166566D01*
X150942751Y-111063933D01*
X150981419Y-110973034D01*
X151044038Y-110897719D01*
X151128780Y-110841833D01*
X151232183Y-110807205D01*
X151350784Y-110795662D01*
X151787866Y-110795662D01*
X151787866Y-111916070D01*
G37*
G36*
X155869349Y-110982653D02*
G01*
X155530765Y-110982653D01*
X155530765Y-111916070D01*
X155299912Y-111916070D01*
X155299912Y-110982653D01*
X154956710Y-110982653D01*
X154956710Y-110795662D01*
X155869349Y-110795662D01*
X155869349Y-110982653D01*
G37*
G36*
X148341229Y-110960338D02*
G01*
X148341229Y-111141173D01*
X148075748Y-111058835D01*
X148075748Y-111916070D01*
X147853359Y-111916070D01*
X147853359Y-110794123D01*
X147877214Y-110794123D01*
X148341229Y-110960338D01*
G37*
G36*
X150771343Y-111916070D02*
G01*
X150020301Y-111916070D01*
X150020301Y-111730617D01*
X150540490Y-111730617D01*
X150540490Y-111430508D01*
X150097252Y-111430508D01*
X150097252Y-111249673D01*
X150540490Y-111249673D01*
X150540490Y-110982653D01*
X150021840Y-110982653D01*
X150021840Y-110795662D01*
X150771343Y-110795662D01*
X150771343Y-111916070D01*
G37*
G36*
X156898217Y-109554198D02*
G01*
X156911830Y-109644406D01*
X156949570Y-109708840D01*
X157011437Y-109747500D01*
X157097429Y-109760387D01*
X157181048Y-109747694D01*
X157244320Y-109709615D01*
X157284143Y-109643824D01*
X157297417Y-109547997D01*
X157297417Y-108803081D01*
X157529961Y-108803081D01*
X157529961Y-109554973D01*
X157515750Y-109668231D01*
X157476218Y-109764091D01*
X157411364Y-109842553D01*
X157324806Y-109900689D01*
X157220161Y-109935570D01*
X157097429Y-109947197D01*
X156973018Y-109935226D01*
X156867469Y-109899311D01*
X156780782Y-109839452D01*
X156716402Y-109759009D01*
X156677774Y-109661341D01*
X156664898Y-109546447D01*
X156664898Y-108803081D01*
X156898217Y-108803081D01*
X156898217Y-109554198D01*
G37*
G36*
X154877410Y-109554198D02*
G01*
X154891023Y-109644406D01*
X154928763Y-109708840D01*
X154990630Y-109747500D01*
X155076623Y-109760387D01*
X155160241Y-109747694D01*
X155223513Y-109709615D01*
X155263336Y-109643824D01*
X155276610Y-109547997D01*
X155276610Y-108803081D01*
X155509154Y-108803081D01*
X155509154Y-109554973D01*
X155494943Y-109668231D01*
X155455411Y-109764091D01*
X155390557Y-109842553D01*
X155303999Y-109900689D01*
X155199354Y-109935570D01*
X155076623Y-109947197D01*
X154952212Y-109935226D01*
X154846662Y-109899311D01*
X154759975Y-109839452D01*
X154695595Y-109759009D01*
X154656967Y-109661341D01*
X154644091Y-109546447D01*
X154644091Y-108803081D01*
X154877410Y-108803081D01*
X154877410Y-109554198D01*
G37*
G36*
X158315960Y-109621636D02*
G01*
X158605865Y-108803081D01*
X158909722Y-108803081D01*
X158909722Y-109931695D01*
X158677178Y-109931695D01*
X158677178Y-109623186D01*
X158700432Y-109091436D01*
X158396575Y-109931695D01*
X158236895Y-109931695D01*
X157932262Y-109090661D01*
X157955517Y-109623186D01*
X157955517Y-109931695D01*
X157722198Y-109931695D01*
X157722198Y-108803081D01*
X158027605Y-108803081D01*
X158315960Y-109621636D01*
G37*
G36*
X156269837Y-111901363D02*
G01*
X156193698Y-111863743D01*
X156126708Y-111812271D01*
X156070918Y-111748145D01*
X156026330Y-111671365D01*
X155993839Y-111583727D01*
X155974345Y-111487025D01*
X155968083Y-111385107D01*
X156201778Y-111385107D01*
X156209131Y-111492283D01*
X156230164Y-111580905D01*
X156264878Y-111650973D01*
X156340675Y-111719363D01*
X156443404Y-111742160D01*
X156548058Y-111718498D01*
X156625009Y-111647510D01*
X156660064Y-111575860D01*
X156681097Y-111487110D01*
X156688109Y-111381260D01*
X156688109Y-111326625D01*
X156680670Y-111219534D01*
X156659380Y-111131169D01*
X156624239Y-111061528D01*
X156547865Y-110993715D01*
X156444943Y-110971111D01*
X156341444Y-110994004D01*
X156264878Y-111062682D01*
X156229822Y-111133135D01*
X156208789Y-111222399D01*
X156201778Y-111330472D01*
X156201778Y-111385107D01*
X155968083Y-111385107D01*
X155967847Y-111381260D01*
X155967847Y-111331242D01*
X155974473Y-111225776D01*
X155994352Y-111128946D01*
X156027484Y-111040751D01*
X156072714Y-110963373D01*
X156128888Y-110898990D01*
X156196007Y-110847604D01*
X156272060Y-110810198D01*
X156355039Y-110787753D01*
X156444943Y-110780272D01*
X156534848Y-110787753D01*
X156617827Y-110810198D01*
X156693880Y-110847604D01*
X156760998Y-110898990D01*
X156817173Y-110963373D01*
X156862403Y-111040751D01*
X156895534Y-111129031D01*
X156915413Y-111226118D01*
X156922040Y-111332011D01*
X156922040Y-111387416D01*
X156914943Y-111491000D01*
X156894679Y-111586292D01*
X156861248Y-111673289D01*
X156815762Y-111749770D01*
X156759331Y-111813511D01*
X156691956Y-111864512D01*
X156615775Y-111901705D01*
X156532924Y-111924021D01*
X156443404Y-111931460D01*
X156353072Y-111923936D01*
X156269837Y-111901363D01*
G37*
G36*
X79103787Y-92442815D02*
G01*
X78989745Y-92771753D01*
X78804369Y-92797806D01*
X78803236Y-92789746D01*
X78936441Y-92421717D01*
X78865002Y-92391175D01*
X78811067Y-92346285D01*
X78774166Y-92285793D01*
X78753829Y-92208442D01*
X78753619Y-92197986D01*
X78928480Y-92197986D01*
X78944697Y-92248617D01*
X78976999Y-92284219D01*
X79023521Y-92302998D01*
X79082399Y-92303163D01*
X79221719Y-92283582D01*
X79186361Y-92032000D01*
X79047617Y-92051499D01*
X78988145Y-92068518D01*
X78949052Y-92099990D01*
X78929457Y-92143838D01*
X78928480Y-92197986D01*
X78753619Y-92197986D01*
X78752310Y-92132663D01*
X78770411Y-92066519D01*
X78808131Y-92010011D01*
X78864242Y-91964619D01*
X78937516Y-91931816D01*
X79027956Y-91911604D01*
X79339411Y-91867832D01*
X79457215Y-92706054D01*
X79284505Y-92730327D01*
X79241380Y-92423478D01*
X79103787Y-92442815D01*
G37*
G36*
X76919252Y-93064046D02*
G01*
X76844701Y-93043213D01*
X76782114Y-92999825D01*
X76732227Y-92934952D01*
X76695780Y-92849665D01*
X76672771Y-92743964D01*
X76651087Y-92589676D01*
X76645530Y-92484686D01*
X76648963Y-92460298D01*
X76809833Y-92460298D01*
X76815362Y-92551325D01*
X76843356Y-92750518D01*
X76863040Y-92835226D01*
X76892116Y-92892781D01*
X76932703Y-92923623D01*
X76986914Y-92928185D01*
X77038346Y-92908262D01*
X77069438Y-92865806D01*
X77081529Y-92799895D01*
X77075959Y-92709609D01*
X77047317Y-92505810D01*
X77027319Y-92423568D01*
X76997805Y-92368642D01*
X76957419Y-92339754D01*
X76904810Y-92335626D01*
X76854018Y-92354874D01*
X76822539Y-92395622D01*
X76809833Y-92460298D01*
X76648963Y-92460298D01*
X76658161Y-92394948D01*
X76688984Y-92320461D01*
X76737472Y-92262604D01*
X76803103Y-92222754D01*
X76885877Y-92200912D01*
X76971510Y-92199184D01*
X77045719Y-92219673D01*
X77108504Y-92262382D01*
X77158807Y-92326739D01*
X77195569Y-92412177D01*
X77218792Y-92518696D01*
X77240476Y-92672985D01*
X77246038Y-92778007D01*
X77233419Y-92867841D01*
X77202619Y-92942488D01*
X77154153Y-93000505D01*
X77088535Y-93040451D01*
X77005766Y-93062324D01*
X76919252Y-93064046D01*
G37*
G36*
X81690939Y-92392125D02*
G01*
X81518228Y-92416398D01*
X81400424Y-91578175D01*
X81573135Y-91553902D01*
X81690939Y-92392125D01*
G37*
G36*
X80165356Y-92612533D02*
G01*
X80100711Y-92604398D01*
X80039793Y-92584258D01*
X79984263Y-92552793D01*
X79935782Y-92510683D01*
X79894350Y-92457930D01*
X79860828Y-92395780D01*
X79836076Y-92325483D01*
X79820094Y-92247039D01*
X79814835Y-92209618D01*
X79808703Y-92130019D01*
X79810413Y-92102854D01*
X79983649Y-92102854D01*
X79989767Y-92184446D01*
X79995512Y-92225321D01*
X80012282Y-92304730D01*
X80037336Y-92368820D01*
X80070674Y-92417592D01*
X80134572Y-92460787D01*
X80213824Y-92467041D01*
X80289632Y-92438335D01*
X80339738Y-92377135D01*
X80358431Y-92319845D01*
X80364836Y-92251236D01*
X80358952Y-92171308D01*
X80353207Y-92130432D01*
X80336382Y-92051096D01*
X80311163Y-91987225D01*
X80277550Y-91938819D01*
X80213282Y-91896116D01*
X80133905Y-91890026D01*
X80058880Y-91918036D01*
X80008819Y-91977467D01*
X79990000Y-92033862D01*
X79983649Y-92102854D01*
X79810413Y-92102854D01*
X79813394Y-92055485D01*
X79828908Y-91986020D01*
X79854611Y-91923374D01*
X79889867Y-91869301D01*
X79934679Y-91823800D01*
X79987644Y-91787817D01*
X80047365Y-91762302D01*
X80113839Y-91747252D01*
X80181887Y-91743396D01*
X80246326Y-91751462D01*
X80307158Y-91771451D01*
X80362775Y-91802839D01*
X80411571Y-91845099D01*
X80453545Y-91898233D01*
X80487614Y-91960796D01*
X80512695Y-92031340D01*
X80528786Y-92109866D01*
X80534612Y-92151317D01*
X80540194Y-92229558D01*
X80535053Y-92302981D01*
X80519190Y-92371582D01*
X80493201Y-92433583D01*
X80457685Y-92487204D01*
X80412641Y-92532444D01*
X80359557Y-92568280D01*
X80299920Y-92593686D01*
X80233728Y-92608664D01*
X80165356Y-92612533D01*
G37*
G36*
X78339146Y-92562020D02*
G01*
X78245827Y-92567079D01*
X78164680Y-92554316D01*
X78095705Y-92523729D01*
X78041375Y-92477126D01*
X78004159Y-92416311D01*
X77984058Y-92341283D01*
X77983715Y-92317919D01*
X78158658Y-92317919D01*
X78175097Y-92369619D01*
X78207585Y-92404975D01*
X78255096Y-92422955D01*
X78316606Y-92422529D01*
X78470894Y-92400845D01*
X78433918Y-92137749D01*
X78275601Y-92159999D01*
X78220062Y-92178372D01*
X78180930Y-92213226D01*
X78159898Y-92260946D01*
X78158658Y-92317919D01*
X77983715Y-92317919D01*
X77982910Y-92263144D01*
X78002281Y-92191073D01*
X78041210Y-92128143D01*
X78098734Y-92077422D01*
X78172453Y-92040643D01*
X78259969Y-92019537D01*
X78586967Y-91973581D01*
X78704772Y-92811803D01*
X78532061Y-92836076D01*
X78490555Y-92540741D01*
X78339146Y-92562020D01*
G37*
G36*
X80860683Y-92332688D02*
G01*
X80826810Y-92513570D01*
X80643161Y-92539380D01*
X80721590Y-92186239D01*
X80887654Y-92186239D01*
X81097209Y-92156788D01*
X80948912Y-91857674D01*
X80887654Y-92186239D01*
X80721590Y-92186239D01*
X80839114Y-91657062D01*
X80999159Y-91634569D01*
X81428994Y-92428939D01*
X81245346Y-92454749D01*
X81163503Y-92290129D01*
X81116870Y-92296683D01*
X80860683Y-92332688D01*
G37*
G36*
X82203223Y-91889216D02*
G01*
X82513042Y-92276586D01*
X82312121Y-92304823D01*
X82109662Y-92033869D01*
X81989729Y-92350133D01*
X81788808Y-92378370D01*
X81979852Y-91920609D01*
X81677337Y-91539258D01*
X81875954Y-91511344D01*
X82073738Y-91778258D01*
X82190288Y-91467167D01*
X82388905Y-91439253D01*
X82203223Y-91889216D01*
G37*
G36*
X75566353Y-93254184D02*
G01*
X75491802Y-93233351D01*
X75429214Y-93189963D01*
X75379328Y-93125089D01*
X75342880Y-93039803D01*
X75319871Y-92934102D01*
X75298187Y-92779814D01*
X75292629Y-92674824D01*
X75296062Y-92650436D01*
X75456933Y-92650436D01*
X75462462Y-92741463D01*
X75490456Y-92940655D01*
X75510140Y-93025363D01*
X75539217Y-93082919D01*
X75579803Y-93113760D01*
X75634015Y-93118323D01*
X75685446Y-93098399D01*
X75716537Y-93055944D01*
X75728629Y-92990033D01*
X75723058Y-92899746D01*
X75694416Y-92695948D01*
X75674419Y-92613706D01*
X75644904Y-92558780D01*
X75604519Y-92529891D01*
X75551910Y-92525764D01*
X75501118Y-92545011D01*
X75469639Y-92585760D01*
X75456933Y-92650436D01*
X75296062Y-92650436D01*
X75305261Y-92585085D01*
X75336084Y-92510599D01*
X75384572Y-92452741D01*
X75450204Y-92412891D01*
X75532977Y-92391050D01*
X75618609Y-92389321D01*
X75692819Y-92409811D01*
X75755604Y-92452519D01*
X75805908Y-92516877D01*
X75842670Y-92602315D01*
X75865892Y-92708834D01*
X75887575Y-92863123D01*
X75893138Y-92968145D01*
X75880520Y-93057979D01*
X75849720Y-93132626D01*
X75801253Y-93190643D01*
X75735635Y-93230589D01*
X75652867Y-93252462D01*
X75566353Y-93254184D01*
G37*
G36*
X76257883Y-92970763D02*
G01*
X76283369Y-93152109D01*
X76116992Y-93175492D01*
X76091505Y-92994146D01*
X75996514Y-93007496D01*
X75977662Y-92873358D01*
X76072653Y-92860007D01*
X76027779Y-92540714D01*
X76197443Y-92540714D01*
X76239031Y-92836625D01*
X76424407Y-92810572D01*
X76211052Y-92558175D01*
X76197443Y-92540714D01*
X76027779Y-92540714D01*
X75999187Y-92337270D01*
X76167292Y-92313644D01*
X76594335Y-92816630D01*
X76601577Y-92922460D01*
X76443259Y-92944710D01*
X76257883Y-92970763D01*
G37*
G36*
X77724550Y-92119736D02*
G01*
X77789794Y-92154230D01*
X77841846Y-92204521D01*
X77878630Y-92267306D01*
X77898065Y-92339280D01*
X77731110Y-92362743D01*
X77714939Y-92306675D01*
X77684221Y-92265127D01*
X77641626Y-92241393D01*
X77589814Y-92238769D01*
X77513707Y-92282047D01*
X77497880Y-92322945D01*
X77497836Y-92373807D01*
X77536743Y-92456400D01*
X77577719Y-92500982D01*
X77634324Y-92551293D01*
X77946096Y-92802188D01*
X77962116Y-92916177D01*
X77387566Y-92996924D01*
X77368714Y-92862786D01*
X77729103Y-92812136D01*
X77510308Y-92637998D01*
X77432220Y-92566928D01*
X77378656Y-92503274D01*
X77345496Y-92442769D01*
X77328617Y-92381150D01*
X77326755Y-92310116D01*
X77342421Y-92248228D01*
X77375614Y-92195488D01*
X77424972Y-92153327D01*
X77489128Y-92123175D01*
X77568085Y-92105034D01*
X77649515Y-92102763D01*
X77724550Y-92119736D01*
G37*
%LPC*%
D13*
X156518354Y-97992001D03*
X153218354Y-97992001D03*
D14*
X157268354Y-57392159D03*
D15*
X160368346Y-62004331D03*
D16*
X154868354Y-59304495D03*
D15*
X149368362Y-61991995D03*
D17*
X156418354Y-57392159D03*
X156418354Y-57404495D03*
D18*
X154868354Y-57404495D03*
D17*
X153318354Y-57392159D03*
D18*
X154868354Y-57392159D03*
D15*
X149368346Y-51004331D03*
D16*
X154868354Y-55492159D03*
X154868354Y-55504495D03*
D14*
X152468354Y-57392159D03*
D17*
X153318354Y-57404495D03*
D16*
X154868354Y-59292159D03*
D14*
X157268354Y-57404495D03*
X152468354Y-57404495D03*
D15*
X160368362Y-50991995D03*
D19*
X151468346Y-53604331D03*
D20*
X151468346Y-58504331D03*
D21*
X119266958Y-98563325D03*
X115974996Y-98793521D03*
D13*
X137995055Y-53741968D03*
X134695055Y-53741968D03*
D22*
X174986206Y-51241997D03*
X181986206Y-51241997D03*
D23*
X172286206Y-48941997D03*
X172286206Y-53541997D03*
X173386206Y-48941997D03*
X173386206Y-53541997D03*
X177386206Y-53541997D03*
X177386206Y-48941997D03*
X180386206Y-53541997D03*
X180386206Y-48941997D03*
D13*
X174994979Y-69341961D03*
X171694979Y-69341961D03*
D16*
X150591715Y-120255944D03*
D17*
X152141715Y-122168280D03*
D15*
X145091723Y-126755780D03*
D18*
X150591715Y-122155944D03*
D14*
X148191715Y-122168280D03*
X152991715Y-122168280D03*
X148191715Y-122155944D03*
X152991715Y-122155944D03*
D15*
X156091723Y-115755780D03*
D16*
X150591715Y-124068280D03*
D17*
X149041715Y-122155944D03*
D18*
X150591715Y-122168280D03*
D17*
X152141715Y-122155944D03*
D15*
X145091707Y-115768116D03*
X156091707Y-126768116D03*
D16*
X150591715Y-124055944D03*
D17*
X149041715Y-122168280D03*
D16*
X150591715Y-120268280D03*
D19*
X147191707Y-118368116D03*
D20*
X147191707Y-123268116D03*
D24*
X101287511Y-116961180D03*
D25*
X98648155Y-115425902D03*
D15*
X107111438Y-118881506D03*
D26*
X101024798Y-115091887D03*
D27*
X102557997Y-114863952D03*
D15*
X96216789Y-120400192D03*
D27*
X99489883Y-115307605D03*
D25*
X103401442Y-114757871D03*
D24*
X101289227Y-116973396D03*
D27*
X102559714Y-114876168D03*
D24*
X100758653Y-113198161D03*
D15*
X105578833Y-107976339D03*
D26*
X101023082Y-115079671D03*
D24*
X100760370Y-113210377D03*
D25*
X103399725Y-114745655D03*
D15*
X94687585Y-109519462D03*
D25*
X98646438Y-115413686D03*
D27*
X99488166Y-115295389D03*
D19*
X97128998Y-111801895D03*
D20*
X97810947Y-116654209D03*
D28*
X103192815Y-118662399D03*
X99924931Y-119121671D03*
D13*
X174994977Y-87841952D03*
X171694977Y-87841952D03*
D29*
X90544301Y-112068688D03*
D30*
X90544301Y-112068688D03*
D31*
X117484969Y-96733322D03*
D32*
X119747446Y-94682841D03*
D15*
X112186705Y-99810241D03*
D31*
X117220754Y-92954885D03*
D33*
X118899516Y-94742134D03*
D31*
X117485829Y-96745628D03*
D15*
X111420229Y-88849344D03*
D33*
X118898656Y-94729828D03*
D32*
X119746585Y-94670535D03*
X114959138Y-95017672D03*
D15*
X123160754Y-99055227D03*
D34*
X117352431Y-94837950D03*
D33*
X115807068Y-94958379D03*
D15*
X122392589Y-88069716D03*
D32*
X114958278Y-95005366D03*
D34*
X117353292Y-94850256D03*
D31*
X117219894Y-92942579D03*
D33*
X115806207Y-94946073D03*
D19*
X113696480Y-91296522D03*
D20*
X114038287Y-96184586D03*
D35*
X188081210Y-131798140D03*
D36*
X188479717Y-134207905D03*
D37*
X189423549Y-132573140D03*
D36*
X190373549Y-130927692D03*
D35*
X188087378Y-131787457D03*
D38*
X187345088Y-131373140D03*
D36*
X188473549Y-134218588D03*
D15*
X197392946Y-129769756D03*
D37*
X189429717Y-132562457D03*
D38*
X191502010Y-133773140D03*
X187351256Y-131362457D03*
D35*
X190772056Y-133337457D03*
D15*
X187860484Y-124280432D03*
D35*
X190765888Y-133348140D03*
D15*
X182366666Y-133796036D03*
D38*
X191508178Y-133762457D03*
D36*
X190379717Y-130917009D03*
D15*
X191886764Y-139306711D03*
D19*
X188379138Y-127582098D03*
D20*
X185929138Y-131825622D03*
D27*
X81796896Y-103661716D03*
D24*
X79997552Y-101995925D03*
D15*
X84817732Y-96774103D03*
D25*
X82638624Y-103543419D03*
D15*
X73926484Y-98317226D03*
D25*
X77885337Y-104211450D03*
D15*
X86350337Y-107679270D03*
D24*
X80526410Y-105758944D03*
D25*
X82640341Y-103555635D03*
D26*
X80263697Y-103889651D03*
D24*
X80528126Y-105771160D03*
D27*
X81798613Y-103673932D03*
D26*
X80261981Y-103877435D03*
D27*
X78728782Y-104105369D03*
D25*
X77887054Y-104223666D03*
D27*
X78727065Y-104093153D03*
D15*
X75455688Y-109197956D03*
D24*
X79999269Y-102008141D03*
D19*
X76367897Y-100599659D03*
D20*
X77049846Y-105451973D03*
D29*
X166673711Y-51242001D03*
D30*
X166673711Y-51242001D03*
X105044296Y-66818696D03*
D29*
X105044296Y-66818696D03*
D30*
X145794299Y-84068691D03*
X107717509Y-85398361D03*
X126091069Y-65695131D03*
D17*
X171794975Y-102479779D03*
D16*
X173344975Y-104392115D03*
D14*
X170944975Y-102492115D03*
D15*
X178844983Y-96079615D03*
D14*
X175744975Y-102492115D03*
D16*
X173344975Y-100592115D03*
D14*
X175744975Y-102479779D03*
D18*
X173344975Y-102492115D03*
X173344975Y-102479779D03*
D16*
X173344975Y-104379779D03*
D15*
X167844967Y-96091951D03*
D17*
X174894975Y-102492115D03*
D15*
X178844967Y-107091951D03*
D14*
X170944975Y-102479779D03*
D15*
X167844983Y-107079615D03*
D16*
X173344975Y-100579779D03*
D17*
X174894975Y-102479779D03*
X171794975Y-102492115D03*
D19*
X169944967Y-98691951D03*
D20*
X169944967Y-103591951D03*
D13*
X138000019Y-90741977D03*
X134700019Y-90741977D03*
D21*
X116687190Y-61670736D03*
X113395228Y-61900932D03*
D16*
X136345054Y-48004482D03*
X136345054Y-47992146D03*
X136345054Y-51792146D03*
D15*
X130845046Y-43504318D03*
D17*
X134795054Y-49904482D03*
D16*
X136345054Y-51804482D03*
D17*
X137895054Y-49904482D03*
D18*
X136345054Y-49904482D03*
D14*
X133945054Y-49892146D03*
X133945054Y-49904482D03*
D15*
X130845062Y-54491982D03*
D14*
X138745054Y-49904482D03*
D18*
X136345054Y-49892146D03*
D17*
X137895054Y-49892146D03*
D15*
X141845046Y-54504318D03*
D14*
X138745054Y-49892146D03*
D17*
X134795054Y-49892146D03*
D15*
X141845062Y-43491982D03*
D19*
X132945046Y-46104318D03*
D20*
X132945046Y-51004318D03*
D24*
X98712118Y-98636266D03*
D26*
X98447689Y-96754757D03*
D24*
X98713834Y-98648482D03*
D27*
X99982604Y-96539038D03*
D25*
X96072762Y-97100988D03*
D26*
X98449405Y-96766973D03*
D25*
X100826049Y-96432957D03*
D24*
X98183260Y-94873247D03*
D27*
X96914490Y-96982691D03*
D24*
X98184977Y-94885463D03*
D15*
X92112192Y-91194548D03*
X104536045Y-100556592D03*
D25*
X96071045Y-97088772D03*
D15*
X93641396Y-102075278D03*
D27*
X96912773Y-96970475D03*
D25*
X100824332Y-96420741D03*
D27*
X99984321Y-96551254D03*
D15*
X103003440Y-89651425D03*
D19*
X94553605Y-93476981D03*
D20*
X95235554Y-98329295D03*
D16*
X136345030Y-66492132D03*
D18*
X136345030Y-68404468D03*
D17*
X137895030Y-68392132D03*
D16*
X136345030Y-70292132D03*
D17*
X134795030Y-68404468D03*
D14*
X138745030Y-68404468D03*
D17*
X134795030Y-68392132D03*
D16*
X136345030Y-70304468D03*
D18*
X136345030Y-68392132D03*
D15*
X141845038Y-61991968D03*
X141845022Y-73004304D03*
D14*
X138745030Y-68392132D03*
D17*
X137895030Y-68404468D03*
D15*
X130845022Y-62004304D03*
D14*
X133945030Y-68392132D03*
D16*
X136345030Y-66504468D03*
D15*
X130845038Y-72991968D03*
D14*
X133945030Y-68404468D03*
D19*
X132945022Y-64604304D03*
D20*
X132945022Y-69504304D03*
D39*
X84319816Y-73820147D03*
X84673316Y-76335429D03*
X85026816Y-78850710D03*
X85380317Y-81365991D03*
X85733815Y-83881272D03*
X86087315Y-86396553D03*
X86440815Y-88911834D03*
D40*
X70408375Y-91165046D03*
X70054875Y-88649765D03*
X69701376Y-86134484D03*
X69347876Y-83619203D03*
X68994376Y-81103922D03*
X68640877Y-78588641D03*
X68287377Y-76073361D03*
D41*
X72922493Y-82796708D03*
X81721720Y-81560058D03*
D13*
X174994972Y-106341952D03*
X171694972Y-106341952D03*
X156518351Y-79741990D03*
X153218351Y-79741990D03*
D42*
X171311027Y-128919012D03*
X168123471Y-128064910D03*
D16*
X173344980Y-85904452D03*
D15*
X178844988Y-77591952D03*
D18*
X173344980Y-83992116D03*
D14*
X175744980Y-83992116D03*
X170944980Y-83992116D03*
D16*
X173344980Y-82104452D03*
D17*
X171794980Y-83992116D03*
D14*
X170944980Y-84004452D03*
D17*
X174894980Y-84004452D03*
D15*
X167844988Y-88591952D03*
X178844972Y-88604288D03*
D14*
X175744980Y-84004452D03*
D15*
X167844972Y-77604288D03*
D16*
X173344980Y-82092116D03*
D17*
X171794980Y-84004452D03*
X174894980Y-83992116D03*
D18*
X173344980Y-84004452D03*
D16*
X173344980Y-85892116D03*
D19*
X169944972Y-80204288D03*
D20*
X169944972Y-85104288D03*
D28*
X98047575Y-82052032D03*
X94779691Y-82511304D03*
D15*
X167844986Y-70091951D03*
X178844970Y-70104287D03*
D17*
X174894978Y-65504451D03*
D18*
X173344978Y-65504451D03*
X173344978Y-65492115D03*
D17*
X174894978Y-65492115D03*
D14*
X175744978Y-65492115D03*
D17*
X171794978Y-65504451D03*
D15*
X167844970Y-59104287D03*
X178844986Y-59091951D03*
D16*
X173344978Y-67404451D03*
D14*
X175744978Y-65504451D03*
D16*
X173344978Y-63604451D03*
X173344978Y-63592115D03*
D14*
X170944978Y-65504451D03*
D17*
X171794978Y-65492115D03*
D14*
X170944978Y-65492115D03*
D16*
X173344978Y-67392115D03*
D19*
X169944970Y-61704287D03*
D20*
X169944970Y-66604287D03*
D15*
X91069838Y-83777602D03*
D27*
X97412763Y-78253578D03*
D25*
X93501204Y-78803312D03*
D24*
X96140560Y-80338590D03*
D15*
X101964487Y-82258916D03*
D24*
X95611702Y-76575571D03*
D25*
X98254491Y-78135281D03*
X93499487Y-78791096D03*
D27*
X97411046Y-78241362D03*
D26*
X95876131Y-78457081D03*
D24*
X96142276Y-80350806D03*
D15*
X100431882Y-71353749D03*
D24*
X95613419Y-76587787D03*
D15*
X89540634Y-72896872D03*
D27*
X94342932Y-78685015D03*
X94341215Y-78672799D03*
D26*
X95877847Y-78469297D03*
D25*
X98252774Y-78123065D03*
D19*
X91982047Y-75179305D03*
D20*
X92663996Y-80031619D03*
D21*
X117978899Y-80143123D03*
X114686937Y-80373319D03*
D16*
X154868350Y-74004499D03*
D17*
X156418350Y-75892163D03*
X153318350Y-75892163D03*
D16*
X154868350Y-73992163D03*
D15*
X149368342Y-69504335D03*
D16*
X154868350Y-77792163D03*
D15*
X160368342Y-80504335D03*
D14*
X152468350Y-75892163D03*
D17*
X156418350Y-75904499D03*
X153318350Y-75904499D03*
D15*
X149368358Y-80491999D03*
D14*
X157268350Y-75904499D03*
D15*
X160368358Y-69491999D03*
D14*
X157268350Y-75892163D03*
D18*
X154868350Y-75904499D03*
D14*
X152468350Y-75904499D03*
D18*
X154868350Y-75892163D03*
D16*
X154868350Y-77804499D03*
D19*
X151468342Y-72104335D03*
D20*
X151468342Y-77004335D03*
D13*
X152241715Y-126005779D03*
X148941715Y-126005779D03*
D43*
X188919518Y-136755632D03*
X186061634Y-135105632D03*
D13*
X156518352Y-61241986D03*
X153218352Y-61241986D03*
D14*
X152468352Y-94154490D03*
X152468352Y-94142154D03*
D16*
X154868352Y-92254490D03*
D17*
X153318352Y-94142154D03*
D18*
X154868352Y-94142154D03*
D15*
X160368344Y-98754326D03*
D17*
X153318352Y-94154490D03*
D18*
X154868352Y-94154490D03*
D15*
X160368360Y-87741990D03*
D17*
X156418352Y-94154490D03*
D14*
X157268352Y-94154490D03*
D16*
X154868352Y-96042154D03*
D15*
X149368344Y-87754326D03*
D16*
X154868352Y-92242154D03*
D17*
X156418352Y-94142154D03*
D16*
X154868352Y-96054490D03*
D15*
X149368360Y-98741990D03*
D14*
X157268352Y-94142154D03*
D19*
X151468344Y-90354326D03*
D20*
X151468344Y-95254326D03*
D28*
X100617422Y-100337502D03*
X97349538Y-100796774D03*
D17*
X137895021Y-86904473D03*
D14*
X133945021Y-86892137D03*
D17*
X134795021Y-86892137D03*
D15*
X130845029Y-91491973D03*
D16*
X136345021Y-84992137D03*
D15*
X130845013Y-80504309D03*
D16*
X136345021Y-88804473D03*
D17*
X134795021Y-86904473D03*
D14*
X138745021Y-86904473D03*
D16*
X136345021Y-88792137D03*
D17*
X137895021Y-86892137D03*
D15*
X141845013Y-91504309D03*
D14*
X133945021Y-86904473D03*
D16*
X136345021Y-85004473D03*
D14*
X138745021Y-86892137D03*
D15*
X141845029Y-80491973D03*
D18*
X136345021Y-86904473D03*
X136345021Y-86892137D03*
D19*
X132945013Y-83104309D03*
D20*
X132945013Y-88004309D03*
D32*
X118458525Y-76250347D03*
D15*
X110132169Y-70429156D03*
D33*
X117610596Y-76309640D03*
D15*
X121104529Y-69649528D03*
D34*
X116065232Y-76430068D03*
X116064371Y-76417762D03*
D33*
X114518147Y-76525885D03*
D32*
X113671078Y-76597484D03*
D33*
X114519008Y-76538191D03*
D15*
X110898645Y-81390053D03*
D31*
X116197769Y-78325440D03*
D15*
X121872694Y-80635039D03*
D32*
X113670218Y-76585178D03*
X118459386Y-76262653D03*
D31*
X116196909Y-78313134D03*
X115931834Y-74522391D03*
X115932694Y-74534697D03*
D33*
X117611456Y-76321946D03*
D19*
X112408420Y-72876334D03*
D20*
X112750227Y-77764398D03*
D13*
X137995033Y-72241982D03*
X134695033Y-72241982D03*
D44*
X170203871Y-126637928D03*
X171184191Y-122979325D03*
D45*
X170692435Y-124814584D03*
D46*
X168374213Y-124193419D03*
D44*
X170200678Y-126649843D03*
D15*
X167036319Y-117208994D03*
X174814494Y-130681187D03*
X177664712Y-120044092D03*
X164192518Y-127822266D03*
D45*
X170695627Y-124802669D03*
D44*
X171187384Y-122967410D03*
D46*
X168377405Y-124181503D03*
D47*
X172192812Y-125203838D03*
X172189620Y-125215754D03*
D46*
X173010657Y-125435750D03*
X173013849Y-125423834D03*
D47*
X169195250Y-124413415D03*
X169198442Y-124401499D03*
D19*
X168391834Y-120263921D03*
D20*
X167123621Y-124996957D03*
D30*
X183044297Y-121568690D03*
D29*
X183044297Y-121568690D03*
D28*
X82431713Y-107460173D03*
X79163829Y-107919445D03*
D31*
X114640979Y-56062320D03*
D15*
X119812814Y-51177151D03*
D32*
X112379363Y-58125107D03*
X117166810Y-57777970D03*
D15*
X108840454Y-51956779D03*
D32*
X112378503Y-58112801D03*
D31*
X114640119Y-56050014D03*
X114906054Y-59853063D03*
D33*
X116318881Y-57837263D03*
X116319741Y-57849569D03*
D32*
X117167671Y-57790276D03*
D34*
X114772656Y-57945385D03*
D31*
X114905194Y-59840757D03*
D34*
X114773517Y-57957691D03*
D15*
X109606930Y-62917676D03*
D33*
X113227293Y-58065814D03*
X113226432Y-58053508D03*
D15*
X120580979Y-62162662D03*
D19*
X111116705Y-54403957D03*
D20*
X111458512Y-59292021D03*
M02*
