G04 #@! TF.GenerationSoftware,KiCad,Pcbnew,(6.0.7-1)-1*
G04 #@! TF.CreationDate,2022-12-29T15:50:44-05:00*
G04 #@! TF.ProjectId,musubi,6d757375-6269-42e6-9b69-6361645f7063,rev?*
G04 #@! TF.SameCoordinates,Original*
G04 #@! TF.FileFunction,Soldermask,Top*
G04 #@! TF.FilePolarity,Negative*
%FSLAX46Y46*%
G04 Gerber Fmt 4.6, Leading zero omitted, Abs format (unit mm)*
G04 Created by KiCad (PCBNEW (6.0.7-1)-1) date 2022-12-29 15:50:44*
%MOMM*%
%LPD*%
G01*
G04 APERTURE LIST*
G04 Aperture macros list*
%AMHorizOval*
0 Thick line with rounded ends*
0 $1 width*
0 $2 $3 position (X,Y) of the first rounded end (center of the circle)*
0 $4 $5 position (X,Y) of the second rounded end (center of the circle)*
0 Add line between two ends*
20,1,$1,$2,$3,$4,$5,0*
0 Add two circle primitives to create the rounded ends*
1,1,$1,$2,$3*
1,1,$1,$4,$5*%
%AMRotRect*
0 Rectangle, with rotation*
0 The origin of the aperture is its center*
0 $1 length*
0 $2 width*
0 $3 Rotation angle, in degrees counterclockwise*
0 Add horizontal line*
21,1,$1,$2,0,0,$3*%
G04 Aperture macros list end*
%ADD10R,1.200000X1.200000*%
%ADD11O,0.300000X4.100000*%
%ADD12C,1.300000*%
%ADD13O,5.100000X0.300000*%
%ADD14O,2.000000X4.100000*%
%ADD15O,5.100000X4.100000*%
%ADD16C,1.600000*%
%ADD17C,1.400000*%
%ADD18RotRect,1.200000X1.200000X184.000000*%
%ADD19C,1.500000*%
%ADD20O,2.200000X1.600000*%
%ADD21HorizOval,0.300000X2.376643X0.334015X-2.376643X-0.334015X0*%
%ADD22HorizOval,0.300000X-0.264429X1.881509X0.264429X-1.881509X0*%
%ADD23HorizOval,4.100000X0.495134X0.069587X-0.495134X-0.069587X0*%
%ADD24HorizOval,2.000000X-0.146132X1.039781X0.146132X-1.039781X0*%
%ADD25RotRect,1.200000X1.200000X188.000000*%
%ADD26C,4.400000*%
%ADD27C,2.600000*%
%ADD28HorizOval,0.300000X2.394154X0.167416X-2.394154X-0.167416X0*%
%ADD29HorizOval,0.300000X-0.132537X1.895372X0.132537X-1.895372X0*%
%ADD30HorizOval,2.000000X-0.073244X1.047442X0.073244X-1.047442X0*%
%ADD31HorizOval,4.100000X0.498782X0.034878X-0.498782X-0.034878X0*%
%ADD32HorizOval,2.000000X-0.525000X-0.909327X0.525000X0.909327X0*%
%ADD33HorizOval,0.300000X2.078461X-1.200000X-2.078461X1.200000X0*%
%ADD34HorizOval,4.100000X0.433013X-0.250000X-0.433013X0.250000X0*%
%ADD35HorizOval,0.300000X-0.950000X-1.645448X0.950000X1.645448X0*%
%ADD36HorizOval,1.800000X0.470377X0.066107X-0.470377X-0.066107X0*%
%ADD37HorizOval,1.800000X-0.470377X-0.066107X0.470377X0.066107X0*%
%ADD38C,1.397000*%
%ADD39RotRect,1.200000X1.200000X165.000000*%
%ADD40RotRect,1.200000X1.200000X150.000000*%
%ADD41HorizOval,0.300000X2.318222X-0.621166X-2.318222X0.621166X0*%
%ADD42HorizOval,4.100000X0.482963X-0.129410X-0.482963X0.129410X0*%
%ADD43HorizOval,0.300000X-0.491756X-1.835259X0.491756X1.835259X0*%
%ADD44HorizOval,2.000000X-0.271760X-1.014222X0.271760X1.014222X0*%
G04 APERTURE END LIST*
D10*
X156518354Y-97992001D03*
X153218354Y-97992001D03*
D11*
X157268354Y-57392159D03*
D12*
X160368346Y-62004331D03*
D13*
X154868354Y-59304495D03*
D12*
X149368362Y-61991995D03*
D14*
X156418354Y-57392159D03*
X156418354Y-57404495D03*
D15*
X154868354Y-57404495D03*
D14*
X153318354Y-57392159D03*
D15*
X154868354Y-57392159D03*
D12*
X149368346Y-51004331D03*
D13*
X154868354Y-55492159D03*
X154868354Y-55504495D03*
D11*
X152468354Y-57392159D03*
D14*
X153318354Y-57404495D03*
D13*
X154868354Y-59292159D03*
D11*
X157268354Y-57404495D03*
X152468354Y-57404495D03*
D12*
X160368362Y-50991995D03*
D16*
X158268362Y-53591995D03*
D17*
X158268362Y-58491995D03*
D18*
X119266958Y-98563325D03*
X115974996Y-98793521D03*
D10*
X137995055Y-53741968D03*
X134695055Y-53741968D03*
D19*
X174986206Y-51241997D03*
X181986206Y-51241997D03*
D20*
X172286206Y-48941997D03*
X172286206Y-53541997D03*
X173386206Y-48941997D03*
X173386206Y-53541997D03*
X177386206Y-53541997D03*
X177386206Y-48941997D03*
X180386206Y-53541997D03*
X180386206Y-48941997D03*
D10*
X174994979Y-69341961D03*
X171694979Y-69341961D03*
D13*
X150591715Y-120255944D03*
D14*
X152141715Y-122168280D03*
D12*
X145091723Y-126755780D03*
D15*
X150591715Y-122155944D03*
D11*
X148191715Y-122168280D03*
X152991715Y-122168280D03*
X148191715Y-122155944D03*
X152991715Y-122155944D03*
D12*
X156091723Y-115755780D03*
D13*
X150591715Y-124068280D03*
D14*
X149041715Y-122155944D03*
D15*
X150591715Y-122168280D03*
D14*
X152141715Y-122155944D03*
D12*
X145091707Y-115768116D03*
X156091707Y-126768116D03*
D13*
X150591715Y-124055944D03*
D14*
X149041715Y-122168280D03*
D13*
X150591715Y-120268280D03*
D16*
X153991723Y-118355780D03*
D17*
X153991723Y-123255780D03*
D21*
X101287511Y-116961180D03*
D22*
X98648155Y-115425902D03*
D12*
X107111438Y-118881506D03*
D23*
X101024798Y-115091887D03*
D24*
X102557997Y-114863952D03*
D12*
X96216789Y-120400192D03*
D24*
X99489883Y-115307605D03*
D22*
X103401442Y-114757871D03*
D21*
X101289227Y-116973396D03*
D24*
X102559714Y-114876168D03*
D21*
X100758653Y-113198161D03*
D12*
X105578833Y-107976339D03*
D23*
X101023082Y-115079671D03*
D21*
X100760370Y-113210377D03*
D22*
X103399725Y-114745655D03*
D12*
X94687585Y-109519462D03*
D22*
X98646438Y-115413686D03*
D24*
X99488166Y-115295389D03*
D16*
X103861120Y-110843300D03*
D17*
X104543069Y-115695613D03*
D25*
X103192815Y-118662399D03*
X99924931Y-119121671D03*
D10*
X174994977Y-87841952D03*
X171694977Y-87841952D03*
D26*
X90544301Y-112068688D03*
D27*
X90544301Y-112068688D03*
D28*
X117484969Y-96733322D03*
D29*
X119747446Y-94682841D03*
D12*
X112186705Y-99810241D03*
D28*
X117220754Y-92954885D03*
D30*
X118899516Y-94742134D03*
D28*
X117485829Y-96745628D03*
D12*
X111420229Y-88849344D03*
D30*
X118898656Y-94729828D03*
D29*
X119746585Y-94670535D03*
X114959138Y-95017672D03*
D12*
X123160754Y-99055227D03*
D31*
X117352431Y-94837950D03*
D30*
X115807068Y-94958379D03*
D12*
X122392589Y-88069716D03*
D29*
X114958278Y-95005366D03*
D31*
X117353292Y-94850256D03*
D28*
X117219894Y-92942579D03*
D30*
X115806207Y-94946073D03*
D16*
X120479071Y-90809871D03*
D17*
X120820878Y-95697935D03*
D32*
X188081210Y-131798140D03*
D33*
X188479717Y-134207905D03*
D34*
X189423549Y-132573140D03*
D33*
X190373549Y-130927692D03*
D32*
X188087378Y-131787457D03*
D35*
X187345088Y-131373140D03*
D33*
X188473549Y-134218588D03*
D12*
X197392946Y-129769756D03*
D34*
X189429717Y-132562457D03*
D35*
X191502010Y-133773140D03*
X187351256Y-131362457D03*
D32*
X190772056Y-133337457D03*
D12*
X187860484Y-124280432D03*
D32*
X190765888Y-133348140D03*
D12*
X182366666Y-133796036D03*
D35*
X191508178Y-133762457D03*
D33*
X190379717Y-130917009D03*
D12*
X191886764Y-139306711D03*
D16*
X194274292Y-130971422D03*
D17*
X191824292Y-135214947D03*
D24*
X81796896Y-103661716D03*
D21*
X79997552Y-101995925D03*
D12*
X84817732Y-96774103D03*
D22*
X82638624Y-103543419D03*
D12*
X73926484Y-98317226D03*
D22*
X77885337Y-104211450D03*
D12*
X86350337Y-107679270D03*
D21*
X80526410Y-105758944D03*
D22*
X82640341Y-103555635D03*
D23*
X80263697Y-103889651D03*
D21*
X80528126Y-105771160D03*
D24*
X81798613Y-103673932D03*
D23*
X80261981Y-103877435D03*
D24*
X78728782Y-104105369D03*
D22*
X77887054Y-104223666D03*
D24*
X78727065Y-104093153D03*
D12*
X75455688Y-109197956D03*
D21*
X79999269Y-102008141D03*
D16*
X83100019Y-99641064D03*
D17*
X83781968Y-104493377D03*
D27*
X166673711Y-51242001D03*
D26*
X166673711Y-51242001D03*
X105044296Y-66818696D03*
D27*
X105044296Y-66818696D03*
D26*
X145794299Y-84068691D03*
X107717509Y-85398361D03*
X126091069Y-65695131D03*
D14*
X171794975Y-102479779D03*
D13*
X173344975Y-104392115D03*
D11*
X170944975Y-102492115D03*
D12*
X178844983Y-96079615D03*
D11*
X175744975Y-102492115D03*
D13*
X173344975Y-100592115D03*
D11*
X175744975Y-102479779D03*
D15*
X173344975Y-102492115D03*
X173344975Y-102479779D03*
D13*
X173344975Y-104379779D03*
D12*
X167844967Y-96091951D03*
D14*
X174894975Y-102492115D03*
D12*
X178844967Y-107091951D03*
D11*
X170944975Y-102479779D03*
D12*
X167844983Y-107079615D03*
D13*
X173344975Y-100579779D03*
D14*
X174894975Y-102479779D03*
X171794975Y-102492115D03*
D16*
X176744983Y-98679615D03*
D17*
X176744983Y-103579615D03*
D10*
X138000019Y-90741977D03*
X134700019Y-90741977D03*
D18*
X116687190Y-61670736D03*
X113395228Y-61900932D03*
D13*
X136345054Y-48004482D03*
X136345054Y-47992146D03*
X136345054Y-51792146D03*
D12*
X130845046Y-43504318D03*
D14*
X134795054Y-49904482D03*
D13*
X136345054Y-51804482D03*
D14*
X137895054Y-49904482D03*
D15*
X136345054Y-49904482D03*
D11*
X133945054Y-49892146D03*
X133945054Y-49904482D03*
D12*
X130845062Y-54491982D03*
D11*
X138745054Y-49904482D03*
D15*
X136345054Y-49892146D03*
D14*
X137895054Y-49892146D03*
D12*
X141845046Y-54504318D03*
D11*
X138745054Y-49892146D03*
D14*
X134795054Y-49892146D03*
D12*
X141845062Y-43491982D03*
D16*
X139745062Y-46091982D03*
D17*
X139745062Y-50991982D03*
D21*
X98712118Y-98636266D03*
D23*
X98447689Y-96754757D03*
D21*
X98713834Y-98648482D03*
D24*
X99982604Y-96539038D03*
D22*
X96072762Y-97100988D03*
D23*
X98449405Y-96766973D03*
D22*
X100826049Y-96432957D03*
D21*
X98183260Y-94873247D03*
D24*
X96914490Y-96982691D03*
D21*
X98184977Y-94885463D03*
D12*
X92112192Y-91194548D03*
X104536045Y-100556592D03*
D22*
X96071045Y-97088772D03*
D12*
X93641396Y-102075278D03*
D24*
X96912773Y-96970475D03*
D22*
X100824332Y-96420741D03*
D24*
X99984321Y-96551254D03*
D12*
X103003440Y-89651425D03*
D16*
X101285727Y-92518386D03*
D17*
X101967676Y-97370699D03*
D13*
X136345030Y-66492132D03*
D15*
X136345030Y-68404468D03*
D14*
X137895030Y-68392132D03*
D13*
X136345030Y-70292132D03*
D14*
X134795030Y-68404468D03*
D11*
X138745030Y-68404468D03*
D14*
X134795030Y-68392132D03*
D13*
X136345030Y-70304468D03*
D15*
X136345030Y-68392132D03*
D12*
X141845038Y-61991968D03*
X141845022Y-73004304D03*
D11*
X138745030Y-68392132D03*
D14*
X137895030Y-68404468D03*
D12*
X130845022Y-62004304D03*
D11*
X133945030Y-68392132D03*
D13*
X136345030Y-66504468D03*
D12*
X130845038Y-72991968D03*
D11*
X133945030Y-68404468D03*
D16*
X139745038Y-64591968D03*
D17*
X139745038Y-69491968D03*
D36*
X68291633Y-76072762D03*
X68645133Y-78588043D03*
X68998633Y-81103324D03*
X69352132Y-83618605D03*
X69705632Y-86133886D03*
X70059132Y-88649167D03*
X70412631Y-91164448D03*
D37*
X86445071Y-88911236D03*
X86091571Y-86395955D03*
X85738071Y-83880674D03*
X85384572Y-81365393D03*
X85031072Y-78850112D03*
X84677572Y-76334831D03*
X84324073Y-73819550D03*
D38*
X72922493Y-82796708D03*
X81721720Y-81560058D03*
D10*
X174994972Y-106341952D03*
X171694972Y-106341952D03*
X156518351Y-79741990D03*
X153218351Y-79741990D03*
D39*
X171311027Y-128919012D03*
X168123471Y-128064910D03*
D13*
X173344980Y-85904452D03*
D12*
X178844988Y-77591952D03*
D15*
X173344980Y-83992116D03*
D11*
X175744980Y-83992116D03*
X170944980Y-83992116D03*
D13*
X173344980Y-82104452D03*
D14*
X171794980Y-83992116D03*
D11*
X170944980Y-84004452D03*
D14*
X174894980Y-84004452D03*
D12*
X167844988Y-88591952D03*
X178844972Y-88604288D03*
D11*
X175744980Y-84004452D03*
D12*
X167844972Y-77604288D03*
D13*
X173344980Y-82092116D03*
D14*
X171794980Y-84004452D03*
X174894980Y-83992116D03*
D15*
X173344980Y-84004452D03*
D13*
X173344980Y-85892116D03*
D16*
X176744988Y-80191952D03*
D17*
X176744988Y-85091952D03*
D25*
X98047575Y-82052032D03*
X94779691Y-82511304D03*
D12*
X167844986Y-70091951D03*
X178844970Y-70104287D03*
D14*
X174894978Y-65504451D03*
D15*
X173344978Y-65504451D03*
X173344978Y-65492115D03*
D14*
X174894978Y-65492115D03*
D11*
X175744978Y-65492115D03*
D14*
X171794978Y-65504451D03*
D12*
X167844970Y-59104287D03*
X178844986Y-59091951D03*
D13*
X173344978Y-67404451D03*
D11*
X175744978Y-65504451D03*
D13*
X173344978Y-63604451D03*
X173344978Y-63592115D03*
D11*
X170944978Y-65504451D03*
D14*
X171794978Y-65492115D03*
D11*
X170944978Y-65492115D03*
D13*
X173344978Y-67392115D03*
D16*
X176744986Y-61691951D03*
D17*
X176744986Y-66591951D03*
D12*
X91069838Y-83777602D03*
D24*
X97412763Y-78253578D03*
D22*
X93501204Y-78803312D03*
D21*
X96140560Y-80338590D03*
D12*
X101964487Y-82258916D03*
D21*
X95611702Y-76575571D03*
D22*
X98254491Y-78135281D03*
X93499487Y-78791096D03*
D24*
X97411046Y-78241362D03*
D23*
X95876131Y-78457081D03*
D21*
X96142276Y-80350806D03*
D12*
X100431882Y-71353749D03*
D21*
X95613419Y-76587787D03*
D12*
X89540634Y-72896872D03*
D24*
X94342932Y-78685015D03*
X94341215Y-78672799D03*
D23*
X95877847Y-78469297D03*
D22*
X98252774Y-78123065D03*
D16*
X98714169Y-74220710D03*
D17*
X99396118Y-79073023D03*
D18*
X117978899Y-80143123D03*
X114686937Y-80373319D03*
D13*
X154868350Y-74004499D03*
D14*
X156418350Y-75892163D03*
X153318350Y-75892163D03*
D13*
X154868350Y-73992163D03*
D12*
X149368342Y-69504335D03*
D13*
X154868350Y-77792163D03*
D12*
X160368342Y-80504335D03*
D11*
X152468350Y-75892163D03*
D14*
X156418350Y-75904499D03*
X153318350Y-75904499D03*
D12*
X149368358Y-80491999D03*
D11*
X157268350Y-75904499D03*
D12*
X160368358Y-69491999D03*
D11*
X157268350Y-75892163D03*
D15*
X154868350Y-75904499D03*
D11*
X152468350Y-75904499D03*
D15*
X154868350Y-75892163D03*
D13*
X154868350Y-77804499D03*
D16*
X158268358Y-72091999D03*
D17*
X158268358Y-76991999D03*
D10*
X152241715Y-126005779D03*
X148941715Y-126005779D03*
D40*
X188919518Y-136755632D03*
X186061634Y-135105632D03*
D10*
X156518352Y-61241986D03*
X153218352Y-61241986D03*
D11*
X152468352Y-94154490D03*
X152468352Y-94142154D03*
D13*
X154868352Y-92254490D03*
D14*
X153318352Y-94142154D03*
D15*
X154868352Y-94142154D03*
D12*
X160368344Y-98754326D03*
D14*
X153318352Y-94154490D03*
D15*
X154868352Y-94154490D03*
D12*
X160368360Y-87741990D03*
D14*
X156418352Y-94154490D03*
D11*
X157268352Y-94154490D03*
D13*
X154868352Y-96042154D03*
D12*
X149368344Y-87754326D03*
D13*
X154868352Y-92242154D03*
D14*
X156418352Y-94142154D03*
D13*
X154868352Y-96054490D03*
D12*
X149368360Y-98741990D03*
D11*
X157268352Y-94142154D03*
D16*
X158268360Y-90341990D03*
D17*
X158268360Y-95241990D03*
D25*
X100617422Y-100337502D03*
X97349538Y-100796774D03*
D14*
X137895021Y-86904473D03*
D11*
X133945021Y-86892137D03*
D14*
X134795021Y-86892137D03*
D12*
X130845029Y-91491973D03*
D13*
X136345021Y-84992137D03*
D12*
X130845013Y-80504309D03*
D13*
X136345021Y-88804473D03*
D14*
X134795021Y-86904473D03*
D11*
X138745021Y-86904473D03*
D13*
X136345021Y-88792137D03*
D14*
X137895021Y-86892137D03*
D12*
X141845013Y-91504309D03*
D11*
X133945021Y-86904473D03*
D13*
X136345021Y-85004473D03*
D11*
X138745021Y-86892137D03*
D12*
X141845029Y-80491973D03*
D15*
X136345021Y-86904473D03*
X136345021Y-86892137D03*
D16*
X139745029Y-83091973D03*
D17*
X139745029Y-87991973D03*
D29*
X118458525Y-76250347D03*
D12*
X110132169Y-70429156D03*
D30*
X117610596Y-76309640D03*
D12*
X121104529Y-69649528D03*
D31*
X116065232Y-76430068D03*
X116064371Y-76417762D03*
D30*
X114518147Y-76525885D03*
D29*
X113671078Y-76597484D03*
D30*
X114519008Y-76538191D03*
D12*
X110898645Y-81390053D03*
D28*
X116197769Y-78325440D03*
D12*
X121872694Y-80635039D03*
D29*
X113670218Y-76585178D03*
X118459386Y-76262653D03*
D28*
X116196909Y-78313134D03*
X115931834Y-74522391D03*
X115932694Y-74534697D03*
D30*
X117611456Y-76321946D03*
D16*
X119191011Y-72389683D03*
D17*
X119532818Y-77277747D03*
D10*
X137995033Y-72241982D03*
X134695033Y-72241982D03*
D41*
X170203871Y-126637928D03*
X171184191Y-122979325D03*
D42*
X170692435Y-124814584D03*
D43*
X168374213Y-124193419D03*
D41*
X170200678Y-126649843D03*
D12*
X167036319Y-117208994D03*
X174814494Y-130681187D03*
X177664712Y-120044092D03*
X164192518Y-127822266D03*
D42*
X170695627Y-124802669D03*
D41*
X171187384Y-122967410D03*
D43*
X168377405Y-124181503D03*
D44*
X172192812Y-125203838D03*
X172189620Y-125215754D03*
D43*
X173010657Y-125435750D03*
X173013849Y-125423834D03*
D44*
X169195250Y-124413415D03*
X169198442Y-124401499D03*
D16*
X174963338Y-122011979D03*
D17*
X173695124Y-126745015D03*
D26*
X183044297Y-121568690D03*
D27*
X183044297Y-121568690D03*
D25*
X82431713Y-107460173D03*
X79163829Y-107919445D03*
D28*
X114640979Y-56062320D03*
D12*
X119812814Y-51177151D03*
D29*
X112379363Y-58125107D03*
X117166810Y-57777970D03*
D12*
X108840454Y-51956779D03*
D29*
X112378503Y-58112801D03*
D28*
X114640119Y-56050014D03*
X114906054Y-59853063D03*
D30*
X116318881Y-57837263D03*
X116319741Y-57849569D03*
D29*
X117167671Y-57790276D03*
D31*
X114772656Y-57945385D03*
D28*
X114905194Y-59840757D03*
D31*
X114773517Y-57957691D03*
D12*
X109606930Y-62917676D03*
D30*
X113227293Y-58065814D03*
X113226432Y-58053508D03*
D12*
X120580979Y-62162662D03*
D16*
X117899296Y-53917306D03*
D17*
X118241103Y-58805370D03*
M02*
