G04 #@! TF.GenerationSoftware,KiCad,Pcbnew,(6.0.7-1)-1*
G04 #@! TF.CreationDate,2022-12-29T15:50:45-05:00*
G04 #@! TF.ProjectId,musubi,6d757375-6269-42e6-9b69-6361645f7063,rev?*
G04 #@! TF.SameCoordinates,Original*
G04 #@! TF.FileFunction,Profile,NP*
%FSLAX46Y46*%
G04 Gerber Fmt 4.6, Leading zero omitted, Abs format (unit mm)*
G04 Created by KiCad (PCBNEW (6.0.7-1)-1) date 2022-12-29 15:50:45*
%MOMM*%
%LPD*%
G01*
G04 APERTURE LIST*
G04 #@! TA.AperFunction,Profile*
%ADD10C,0.003937*%
G04 #@! TD*
G04 APERTURE END LIST*
D10*
X156427476Y-131505816D02*
X142341788Y-131505819D01*
X191899556Y-144784680D02*
X179701137Y-137741908D01*
X91904205Y-123845287D02*
X91341415Y-119840631D01*
X97666964Y-66945734D02*
G75*
G03*
X104534104Y-58465551I-1113334J7922114D01*
G01*
X146595086Y-40742046D02*
X146595085Y-42242056D01*
X67339660Y-71207837D02*
G75*
G03*
X65637465Y-73466742I278240J-1980463D01*
G01*
X179701136Y-137741910D02*
G75*
G03*
X173912661Y-135344263I-12000536J-20785890D01*
G01*
X183595002Y-102462356D02*
G75*
G03*
X195594976Y-123246909I24000198J156D01*
G01*
X71134634Y-112581983D02*
X65637465Y-73466742D01*
X150595080Y-46242032D02*
X181595017Y-46242038D01*
X97666965Y-66945743D02*
X67339666Y-71207876D01*
X126095128Y-42246233D02*
X126095130Y-40742054D01*
X140341769Y-125959834D02*
G75*
G03*
X133506784Y-120018220I-5999969J34D01*
G01*
X162638986Y-132323550D02*
G75*
G03*
X156427476Y-131505816I-6211586J-23183050D01*
G01*
X140341781Y-129505819D02*
G75*
G03*
X142341788Y-131505819I1999919J-81D01*
G01*
X173912661Y-135344263D02*
X162638985Y-132323555D01*
X202149544Y-127031203D02*
X195594976Y-123246909D01*
X140341787Y-129505819D02*
X140341790Y-125959834D01*
X91904185Y-123845290D02*
G75*
G03*
X94163076Y-125547503I1980515J278290D01*
G01*
X105765044Y-47397842D02*
G75*
G03*
X103909441Y-49532547I139556J-1995158D01*
G01*
X122374170Y-46236470D02*
X105765049Y-47397911D01*
X128095124Y-38742064D02*
X144595092Y-38742063D01*
X71134643Y-112581982D02*
G75*
G03*
X73393464Y-114284174I1980557J278382D01*
G01*
X194631600Y-144052626D02*
X202881593Y-129763251D01*
X82306068Y-113031778D02*
X73393464Y-114284174D01*
X104534104Y-58465551D02*
X103909441Y-49532547D01*
X91341414Y-119840631D02*
G75*
G03*
X82306068Y-113031778I-7922154J-1113319D01*
G01*
X183595016Y-102462356D02*
X183595012Y-48242038D01*
X146595137Y-40742046D02*
G75*
G03*
X144595092Y-38742063I-2000237J-254D01*
G01*
X128095124Y-38742030D02*
G75*
G03*
X126095130Y-40742054I-24J-1999970D01*
G01*
X146595068Y-42242056D02*
G75*
G03*
X150595080Y-46242032I4000032J56D01*
G01*
X183595062Y-48242038D02*
G75*
G03*
X181595017Y-46242038I-1999962J38D01*
G01*
X122374171Y-46236481D02*
G75*
G03*
X126095128Y-42246233I-279071J3990281D01*
G01*
X191899545Y-144784699D02*
G75*
G03*
X194631600Y-144052626I999955J1732199D01*
G01*
X94163076Y-125547503D02*
X133506784Y-120018220D01*
X202881549Y-129763226D02*
G75*
G03*
X202149544Y-127031203I-1731949J1000026D01*
G01*
M02*
